<?xml version="1.0" encoding="utf-8"?>
<!-- Generator: Adobe Illustrator 23.0.0, SVG Export Plug-In . SVG Version: 6.00 Build 0)  -->
<svg version="1.1" id="Calque_1" xmlns="http://www.w3.org/2000/svg" xmlns:xlink="http://www.w3.org/1999/xlink" x="0px" y="0px"
	 viewBox="0 0 63 70" style="enable-background:new 0 0 63 70;" xml:space="preserve">
<style type="text/css">
	.st0{fill:#8AB0B7;}
	.st1{fill:#C5BCCF;}
	.st2{fill:#7B7089;}
	.st3{fill:#9D95A7;}
	.st4{fill:#41364F;}
	.st5{font-family:'BlowBrush';}
	.st6{font-size:6.3311px;}
</style>
<path class="st0" d="M44.2,25c0-0.3-0.1-0.6-0.4-0.8c-0.3-0.2-0.5-0.4-0.8-0.6c-0.2-0.2-0.5-0.3-0.7-0.5c-0.3-0.2-0.7-0.4-0.9-0.7
	c-0.1-0.2-0.4-0.3-0.6-0.4c-0.3-0.2-0.6-0.5-1-0.5c-0.4-0.1-0.8-0.4-1.2-0.6L37,20.1c-0.3-0.1-0.6-0.3-0.9-0.2c-0.3,0-0.5,0-0.8-0.1
	c-0.6-0.2-1.3-0.3-2-0.4c-0.4-0.1-0.8-0.2-1.2-0.2l-0.2-0.1c-0.3-0.1-0.6-0.1-0.9-0.2l-0.7-0.1c0,0-0.1,0-0.1,0c0,0,0-0.1,0.1-0.1
	l0.1-0.6c-0.2-0.1-0.4-0.1-0.5-0.3c-0.1-0.1-0.2-0.3-0.1-0.4c0.2-0.4,0-0.7-0.3-0.9c-0.3-0.3-0.2-0.6-0.2-0.9c0-0.5,0.1-0.9,0.1-1.4
	c-0.5,0.1-1,0.2-1.5,0.2c-0.9,0.1-1.9,0.3-2.9,0.4c-0.3,0-0.6,0.1-0.9,0.1c-0.6,0.2-1.3,0.3-1.9,0.5c-0.5,0.2-0.9,0.6-1.4,0.8
	c-1.3,0.7-2.6,1.4-3.9,2c-1.2,0.6-2.4,1.1-3.6,1.7c-0.9,0.4-1.8,0.9-2.8,1.4c0,0,0,0-0.1,0.1L10,21.9c0,0.1,0,0.2-0.1,0.2
	c-0.2,0.1-0.3,0.2-0.5,0.2c-1.2,0.7-2.5,1.2-3.9,1.5c-0.3,0.1-0.4-0.2-0.3-0.4l-1.4,0.4c0,0.3,0.1,0.6,0.1,0.9
	c0.2,1,0.3,1.9,0.6,2.9c0.2,0.8,0.6,1.5,0.9,2.2c0.3,0.7,0.7,1.4,1.4,1.7c0,0.1,0,0.3,0.1,0.3C7,31.9,7.3,32,7.4,32.1
	c0.1,0.1,0.2,0.3,0.3,0.3C8,32.6,8.3,32.8,8.6,33c0.4,0.3,0.8,0.6,1.2,0.8c0.3,0.2,0.5,0.5,0.8,0.6c0.4,0.1,0.6,0.5,0.9,0.8
	c0.4,0.5,0.9,0.8,1.4,1.3c0.2,0.1,0.3,0.3,0.4,0.5l0.1-0.3l1,1.1c0-0.1,0-0.2-0.1-0.3c0.2,0.2,0.3,0.4,0.5,0.5
	c0.6,0.5,1.2,0.8,1.7,1.3c0.4,0.4,0.7,0.8,1.1,1.2l1.4,1.7c0.2,0.2,0.4,0.3,0.7,0.2c0.1,0,0.3,0.2,0.5,0.4c0.4-0.1,0.7-0.7,1.1-0.2
	c0.2-0.1,0.4-0.2,0.5-0.3c0.4-0.4,0.8-0.8,1.2-1.2c0.5-0.5,1.1-1,1.6-1.5c0.3-0.3,0.5-0.8,0.6-1.2c0.2-0.5,0.5-0.8,1-1
	c0.1-0.1,0.2-0.1,0.4-0.2c0.3-0.5,0.6-1,0.9-1.5c0.4-0.6,0.8-1.2,1.2-1.8c0,0,0.1,0,0.1-0.1c0.3-0.4,0.6-0.8,0.9-1.2
	c0.3-0.4,0.6-0.8,0.9-1.2c0.4-0.5,0.7-0.9,1.1-1.4l1.8-2c0.3-0.3,0.7-0.6,0.9-0.9c0.2-0.5,0.6-0.7,1-0.7c0.1,0,0.2-0.1,0.2-0.2
	c0-0.4,0.4-0.6,0.5-0.9c0.1-0.1,0.4-0.2,0.5-0.2s0.3,0,0.5,0c0,0,0-0.1,0-0.1c0.3,0,0.5-0.3,0.9-0.3c0.2,0,0.4-0.2,0.6-0.2
	c0.5,0,0.6,0.2,0.8,0.5c0.6,0.2,1.3,0.3,1.8,0.5c0.5,0.2,0.9,0.4,1.3,0.6c0.1,0.1,0.2,0.1,0.3,0.2c0.4-0.1,0.8-0.1,1.2-0.2
	C44.2,25.8,44.2,25.4,44.2,25z M28.3,25.4c-0.2,0.8-0.5,1.6-0.9,2.3c-0.4,0.7-1,1.4-1.7,1.9c-0.4,0.3-0.8,0.7-1.2,1
	c-0.4,0.2-0.8,0.3-1.3,0.5c-0.2,0.1-0.4,0.2-0.6,0.3c-0.4,0.1-0.7,0.2-1.1,0.2c-0.3,0.1-0.6,0.2-0.9,0.2C20.5,32,20.3,32,20,32
	c-0.1,0-0.3,0-0.4,0c-0.6,0-1.3-0.1-1.9-0.1c-0.4,0-0.8-0.2-1.2-0.3c-0.5-0.1-0.9-0.5-1.3-0.6c-0.4-0.2-0.8-0.4-1.1-0.7
	c-0.4-0.4-0.9-0.7-1.2-1.1c-0.5-0.7-0.9-1.6-0.9-2.5c0-0.2-0.1-0.5-0.1-0.7c0-0.7,0.2-1.3,0.6-1.9c0.2-0.3,0.3-0.6,0.5-0.9
	c0.1-0.1,0.3-0.2,0.4-0.4c0.6-0.6,1.3-1.3,2.1-1.7c0.9-0.4,1.8-0.7,2.8-1.1c0.4-0.1,0.7-0.3,1.1-0.4c0.8-0.1,1.6-0.2,2.4-0.2
	c0.6,0,1.1-0.1,1.7-0.1c1.4,0.1,2.7,0.5,3.6,1.6C28.2,22.3,28.6,23.8,28.3,25.4z"/>
<path class="st1" d="M60.8,5c-0.1-0.1-0.3-0.2-0.4-0.2c-0.3-0.1-0.5-0.1-0.8-0.2c-0.3-0.1-0.5,0.2-0.8,0.2c-0.2,0-0.3,0.1-0.4,0.3
	c-0.1,0.2-0.2,0.3-0.5,0.2c-0.1,0-0.3,0-0.4,0.1c-0.2,0.1-0.4,0.3-0.6,0.5c-0.2,0.2-0.3,0.5-0.5,0.6c-0.6,0.4-1,1.1-1.7,1.5
	c-0.4,0.2-0.6,0.6-0.9,0.8c-0.5,0.5-0.9,0.9-1.4,1.4c-0.3,0.3-0.6,0.5-0.9,0.7c-0.6,0.5-1.1,0.9-1.6,1.4c0,0-0.1,0-0.1-0.1
	c0-0.1,0.1-0.2,0.1-0.3c0-0.2,0.3-0.6-0.1-0.7c-0.3-0.1-0.4-0.3-0.4-0.6c0.2-1.2,0.2-2.4,0.3-3.6c0-0.2,0-0.5,0.1-0.7
	c-0.1-0.9,0-1.8-0.1-2.7c-0.1-0.1-0.1-0.1-0.2-0.1c-0.4,0-0.7,0.1-1.1,0.1c-0.2,0-0.4,0.1-0.5,0.2c-0.4,0.5-0.7,0.9-1.1,1.4
	c-0.3,0.4-0.7,0.7-1,1.1c-0.1,0.1-0.2,0.1-0.3,0.1c-0.1,0-0.1,0-0.2-0.1c0,0-0.1,0-0.1,0c0,0.1-0.1,0.2-0.3,0.2h-0.1
	c-1.4-0.2-2.8-0.7-4.2-0.6c-0.1,0-0.1,0-0.2-0.1c-0.5,0-1,0-1.5,0.1c-0.2,0-0.4,0-0.5-0.2c-0.1-0.1-0.2-0.3-0.3-0.3
	c-0.3-0.1-0.5-0.1-0.8-0.1c-0.4,0.1-0.5-0.1-0.6-0.5c-0.2-1.2-0.5-2.3-0.7-3.5c-0.1-0.7-0.6-0.7-1.2-0.5c-0.2,0.1-0.3,0.2-0.5,0.2
	c-0.4,0.1-0.7,0.2-1.1,0.4c-0.3,0.5-0.5,1-0.8,1.6c-0.1,0.4-0.2,0.7-0.3,1.1c-0.1,0.3-0.2,0.6-0.3,0.9c-0.2,0.4-0.4,0.8-0.5,1.3
	c-0.2,0.8-0.5,1.7-0.8,2.4c-0.2,0.5-0.3,0.9-0.5,1.4c-0.2,0.6-0.3,1.2-0.4,1.8c-0.1,0.4-0.2,0.8-0.3,1.2c-0.1,0.4-0.2,0.8-0.2,1.2
	l-0.1,1.4c0,0.3-0.1,0.6,0.2,0.9c0.2,0.3,0.4,0.5,0.3,0.9c0,0.1,0,0.3,0.1,0.4c0.1,0.1,0.3,0.2,0.5,0.3c0.3,0.1,0.5,0.2,0.8,0.3l0,0
	v0h0c0.2,0.1,0.4,0.2,0.5,0.3l-0.1,0.1c0.1,0.1,0.2,0.1,0.3,0.2c0.1,0,0.1,0,0.2,0.1c0,0,0-0.1,0-0.1c0.1-0.1,0.3-0.2,0.3-0.2
	c0.5,0.1,0.9,0.3,1.3,0.4c0.1,0,0.3,0,0.5,0c0.5,0.1,0.9,0.4,1.4,0.3c0.4,0,0.7,0.1,1.1,0.2c0.2,0,0.5,0.2,0.7,0.1
	c0.3-0.1,0.5,0,0.7,0c0.6,0.1,1.3,0.3,1.9,0.5c0.3,0.1,0.7,0.2,0.9,0.6c0.2,0.3,0.5,0.5,0.7,0.6c0.9,0.3,1.7,0.6,2.4,1.1
	c0.1,0,0.3,0,0.5,0c0.2-0.4,0.4-0.8,0.5-1.2c0.2,0.1,0.5,0.3,0.8,0.4l0.1-0.1c0.2-0.1,0.4-0.4,0.6-0.5c0.2-0.2,0.5-0.4,0.7-0.6
	c0.2-0.3,0.4-0.6,0.5-1c0.1-0.2,0.2-0.3,0.4-0.4c0.1-0.1,0.3,0.1,0.4,0c0.4-0.1,0.7-0.2,1-0.4c0.1-0.1,0.3-0.2,0.4-0.3
	c0.3-0.2,0.5-0.4,0.7-0.6c0.5-0.4,1.1-0.8,1.7-1h0c0.3-0.2,0.5-0.4,0.7-0.6c0.7-0.6,1.4-1.3,2.1-2c0.4-0.4,0.8-0.8,1.2-1.2
	c0.5-0.6,1.1-1.2,1.6-1.8c0.7-0.8,1.4-1.6,2-2.5c0.5-0.7,1-1.5,1.3-2.3C61.6,5.8,61.1,5.4,60.8,5L60.8,5z M38.8,14
	c-0.4,0.3-0.9,0.6-1.5,0.6c-0.4,0-0.9-0.2-1.2-0.5c-0.3-0.3-0.7-0.6-1-0.9c-0.5-0.6-0.4-0.9,0.1-1.4c0.6-0.6,1.3-0.9,2.2-0.8h0.1
	c0.6,0.4,1.5,0.6,1.9,1.4C39.4,12.7,39.2,13.6,38.8,14z M46.7,15.4c-0.6,0-1.2-0.1-1.6-0.6c-0.1-0.1-0.3-0.2-0.4-0.4
	c-0.8-0.7-0.7-2,0.4-2.4c0.3-0.1,0.5-0.2,0.7-0.3c0.6-0.2,1.1,0,1.6,0.3c0.5,0.3,0.9,0.8,1,1.4c0,0,0,0.1,0,0.1
	C48.4,14.2,47.4,15.4,46.7,15.4z M39.5,25.1c0.6,0.2,1.3,0.3,1.8,0.5c0.5,0.2,0.9,0.4,1.3,0.6c0.1,0.1,0.2,0.1,0.3,0.2
	c0.4,0.4,0.8,0.8,1.1,1.2c0.5,0.5,0.9,1.1,1.4,1.6c0.6,0.6,1.1,1.4,1.7,2c0.1,0.1,0.4,0.2,0.5,0.2c0.3,0.1,0.6,0.1,0.9,0.2
	c0.2,0.1,0.3,0.1,0.5,0c0.4-0.2,0.7-0.4,1.1-0.6c0.2-0.1,0.4-0.4,0.5-0.5c0.3-0.2,0.7-0.4,1.1-0.6c0.5-0.2,0.8-0.6,1-1.1
	c0.3-0.5,0.6-1,1.2-1.3c0.4-0.2,0.8-0.4,1.1-0.7c0.4-0.3,0.6-0.1,0.8,0.1c0.6,0.5,1,1,1.3,1.7c0.1,0.1,0.1,0.3,0.1,0.4
	c-0.1,0.3,0,0.7-0.3,1c-0.2,0.2-0.4,0.6-0.5,0.9c-0.2,0.3-0.4,0.6-0.6,0.8c-0.1,0.2-0.3,0.4-0.4,0.6c-0.2,0.2-0.5,0.4-0.7,0.6
	c-0.3,0.2-0.6,0.5-0.9,0.7c-0.4,0.3-0.7,0.5-1,0.8c-0.5,0.4-1.1,0.4-1.6,0.7c-0.3,0.2-0.6,0.4-1,0.6c-0.4,0.2-0.7,0.5-1.2,0.1
	c0,0-0.1-0.1-0.2,0C48.5,35.8,48.3,36,48,36c-0.2,0.1-0.4,0.1-0.6,0.1c-0.6,0-1.2,0-1.8-0.2c-0.6-0.2-1.1-0.4-1.7-0.6
	c-0.6-0.2-1.2-0.5-1.8-0.7c-0.4-0.2-0.7-0.5-1-0.8c-0.3-0.4-0.6-0.7-0.9-1.1c0,0-0.1,0-0.1,0c-0.6,1.4-1.2,2.7-1.8,4
	c-0.3,0.7-0.6,1.3-1,2c-0.2,0.4-0.3,0.4-0.7,0.1c-0.2-0.1-0.3-0.4-0.6-0.2c0,0-0.1-0.1-0.2-0.1c-0.4-0.3-0.7-0.5-1.3-0.5
	c-0.6,0-1.3-0.2-1.7-0.7c0,0-0.1-0.1-0.2-0.1c-0.3,0-0.6,0-0.9,0c-0.5-0.1-1-0.2-1.5-0.5l-0.1-0.1l-0.3-0.3
	c-0.4-0.2-0.8-0.5-1.3-0.7c-0.1-0.1-0.2-0.2-0.2-0.3c0-0.2,0.1-0.5,0.2-0.7c0.1-0.2,0.2-0.4,0.2-0.5c0.3-0.4,0.6-0.8,0.9-1.2
	c0.3-0.4,0.6-0.8,0.9-1.2c0.4-0.5,0.7-0.9,1.1-1.4l1.7-2c0.3-0.3,0.7-0.6,0.9-0.9c0.2-0.5,0.6-0.7,1-0.7c0.1,0,0.2-0.1,0.2-0.2
	c0-0.4,0.4-0.6,0.5-0.9c0.1-0.1,0.4-0.2,0.5-0.2c0.2,0,0.3,0,0.5,0c0.3,0.1,0.6,0.2,0.8,0.3c0.2,0,0.4,0.1,0.5,0.1
	C38.9,25.5,39.1,25.3,39.5,25.1L39.5,25.1z"/>
<path class="st2" d="M29.9,36.2l0.3,0.3l0.1,0.1c0,0.4,0.2,0.5,0.5,0.5c0.6,0.1,1.3,0.3,1.9,0.5c0.6,0.2,1.3,0.5,1.9,0.8
	c0.6,0.2,1.3,0.4,2,0.6c0.2,0.1,0.4,0.4,0.5,0.6c0,0,0,0.2-0.1,0.2c-0.1,0.2-0.3,0.3-0.4,0.5c-0.1,0.1-0.3,0.2-0.4,0.2
	c-0.5,0.1-1-0.1-1.4-0.3c-0.1,0-0.4-0.1-0.5,0c-0.3,0.3-0.6,0.1-0.9,0.1c-0.3-0.1-0.4,0.1-0.6,0.2c-0.3,0.1-0.3,0.3-0.3,0.6
	c-0.1,0.2-0.1,0.3-0.2,0.5c-0.2,0.3-0.4,0.6-0.4,0.9c0,0.1-0.2,0.2-0.2,0.3c0,0.3-0.4,0.5-0.1,0.8l0.8,1.2c0.1,0.1,0.2,0.2,0.3,0.3
	c0.3,0.1,0.5,0.3,0.4,0.7v0.3c0,0-0.1,0-0.1,0c-0.1,0-0.2,0-0.2,0c-0.2,0.1-0.5,0.2-0.7,0.4c-0.1,0.1-0.2,0.2-0.4,0.4
	c-0.4-0.1-0.8,0-1.1,0.3c-0.1,0-0.1,0.1-0.1,0.2c-0.2,0.1-0.3,0.2-0.5,0.3c-0.2,0.1-0.3,0-0.5,0.2c-0.1,0.2-0.5,0.1-0.7,0.2
	c-0.2,0-0.3,0-0.5,0.1c-0.3,0.1-0.6,0.2-0.9,0.1c-0.5-0.1-0.9,0-1.4,0c-0.6,0-1.1-0.1-1.7-0.2c-0.6-0.1-1.1-0.4-1.7-0.4
	c-0.1,0-0.2-0.1-0.2-0.1c-0.1-0.2-0.2-0.4-0.3-0.6c0-0.2-0.1-0.4,0-0.6s0.3-0.5,0.1-0.8c0-0.1,0.1-0.2,0.1-0.3
	c0-0.2-0.1-0.4-0.1-0.5c0.1-0.2,0-0.7-0.2-0.9c-0.1-0.1-0.2-0.3-0.3-0.4c-0.1-0.2-0.1-0.5-0.1-0.7c0.4-0.4,0.8-0.8,1.2-1.2
	c0.5-0.5,1.1-1,1.6-1.5c0.3-0.3,0.5-0.8,0.6-1.2c0.2-0.5,0.5-0.8,1-1c0.1-0.1,0.2-0.1,0.4-0.2c0.1,0,0.1,0,0.2,0
	c0.4-0.2,0.7-0.4,1-0.6c0.3-0.2,0.5-0.4,0.9-0.4c0.1,0,0.3,0.1,0.4,0C29.4,36.5,29.7,36.3,29.9,36.2z"/>
<path class="st1" d="M21.8,42.5c0,0.2,0,0.5,0.1,0.7c0,0.2,0.1,0.3,0.3,0.4c0.2,0.2,0.3,0.7,0.2,0.9c-0.7,0.9-1.7,1.7-2.8,2.2
	c-0.4,0.2-0.7,0.5-1.1,0.6c-0.5,0.3-1.1,0.5-1.7,0.7c-0.6,0.2-1.1,0.5-1.8,0.7c-0.6,0.2-1.2,0.3-1.8,0.5h-0.1
	c-0.9,0.2-1.8,0.3-2.8,0.3c-0.2,0-0.3,0-0.5,0.1c-0.5,0.2-0.9,0.1-1.3,0c-0.1,0-0.2-0.1-0.3-0.1c-0.7,0.4-1.2-0.2-1.8-0.5
	c-0.4-0.2-0.7-0.4-1.1-0.5c-0.6-0.3-1.2-0.6-1.8-0.9c-0.1,0-0.2,0-0.2-0.1c-0.2-0.1-0.4-0.2-0.2-0.4c0,0,0-0.2-0.1-0.2
	c-0.1-0.1-0.3-0.2-0.4-0.4c-0.2-0.3-0.4-0.5-0.5-0.8c-0.3-0.5-0.5-1-0.8-1.5c-0.1-0.1-0.2-0.3-0.2-0.4c-0.1-0.2-0.2-0.3,0-0.5
	c0.1-0.1,0-0.4,0-0.5c-0.2-0.9-0.5-1.7-0.7-2.6c-0.1-0.2,0-0.3,0.2-0.4c0.3-0.1,0.4-0.3,0.3-0.5c-0.1-0.7,0.2-1.3,0.7-1.7
	c-0.2-0.2-0.1-0.4,0.1-0.5c0.2-0.1,0.3-0.3,0.5-0.4c0.2-0.1,0.5-0.2,0.6,0.1c0.2,0.5,0.5,1.1,0.7,1.6c0.2,0.5,0.4,0.9,0.5,1.4
	c0.2,0.8,0.4,1.7,0.3,2.5c0,0.4,0,0.8,0.5,1.1c0.5,0.4,0.8,0.9,1.2,1.3c0.2,0.2,0.3,0.5,0.5,0.6c0,0,0.1,0.1,0.1,0.1
	c0.7,0.1,1.4,0.3,2.1,0.4c1.1,0.1,2.3,0.1,3.4,0.1c0.6,0,1.2-0.2,1.8-0.4c0.8-0.3,1.6-0.6,2.3-1c0.4-0.2,0.6-0.6,0.9-0.9
	c0.6-0.4,1.1-0.7,1.7-1.1c0.2,0.2,0.4,0.3,0.7,0.2c0.1,0,0.3,0.2,0.5,0.4c0.4-0.1,0.7-0.7,1.1-0.2C21.5,42.7,21.6,42.6,21.8,42.5
	L21.8,42.5z"/>
<path class="st2" d="M17.9,69.6c-0.5-0.4-1.3-0.5-1.7-1.1c-0.3-0.4-0.7-0.7-0.6-1.3c0-0.1-0.2-0.2-0.2-0.3c-0.2-0.3-0.4-0.6-0.6-0.9
	c-0.1-0.1-0.1-0.3-0.2-0.4c-0.1-0.2-0.3-0.4-0.3-0.6c-0.1-0.2-0.1-0.4-0.3-0.6c-0.3-0.2-0.2-0.6-0.1-1c0-0.1,0.1-0.3,0.1-0.4
	c0.1-0.5,0.4-0.9,0.6-1.4c0.1-0.2,0.2-0.5,0.4-0.6c0.3-0.3,0.6-0.6,0.7-1c0.2-0.5,0.7-0.8,0.8-1.4c0-0.1,0.1-0.1,0.2-0.2
	c0.1-0.1,0.1-0.3,0.3-0.4c0.2-0.1,0.2-0.5,0.6-0.4c0.2,0.1,0.3-0.3,0.1-0.5c-0.1-0.2-0.1-0.4,0.1-0.6c0.1-0.1,0.3-0.1,0.4-0.1
	c0.5-0.2,0.9-0.5,1.4-0.6c0.2-0.1,0.3-0.1,0.5-0.2c0.1,0,0.2,0.1,0.2,0.1c0.3-0.2,0.4,0,0.6,0.2c0.6,0.4,1.1,0.8,1.6,1.2
	c0.6,0.3,1.2,0.6,1.8,0.8c0,0,0.1,0,0.1,0c0.1,0.1,0.2,0.3,0.4,0.4c0.4,0.3,0.4,0.7,0.4,1.1c0,0.1,0,0.2-0.1,0.4
	c-0.4,0.1-0.7,0.3-1.1,0.3c-0.3,0-0.4,0.2-0.5,0.4c-0.2,0.3-0.3,0.6-0.4,0.9c0,0.1-0.1,0.1-0.2,0.1c-0.2,0.6-0.7,1-1,1.5
	c-0.4,0.5-1,0.6-1.4,1.1c0,0.2,0.1,0.6,0.1,1c0,0.9,0.1,1.8,0,2.8c0,0.5-0.3,0.9-0.5,1.4c0,0.1-0.2,0.1-0.3,0.2c0,0,0.1,0.1,0.1,0.2
	h-1.1l-0.4,0.4c-0.1-0.1-0.1-0.2-0.2-0.4C18.1,69.4,18,69.5,17.9,69.6z M41,54.3c-0.2,0.3-0.3,0.5-0.4,0.8c-0.1,0.1-0.1,0.2-0.2,0.3
	c-0.2,0.3-0.4,0.5-0.7,0.6c-0.1,0.1-0.1,0.3-0.1,0.5c-0.4,0.5-0.9,1.1-1.3,1.7c-0.2,0.2-0.4,0.5-0.3,0.8s0.3,0.6,0.4,0.9
	c0.1,0.4,0.2,0.8,0.2,1.2c0,0.8,0,1.6-0.1,2.4c-0.1,0.7-0.9,1.2-1.6,0.9c-0.5-0.2-1-0.2-1.4-0.4c-0.5-0.2-0.9-0.3-1.2-0.7
	c-0.1-0.1-0.3-0.1-0.4-0.2c-0.4-0.5-0.7-1.1-1.1-1.6c-0.2-0.3-0.3-0.6-0.4-0.8c-0.1-0.4-0.1-0.8-0.2-1.3c-0.1-0.6-0.2-1.2-0.2-1.8
	c0-0.3,0-0.5,0.3-0.6c0.1,0,0.2-0.2,0.2-0.3c0.2-0.4,0.5-0.7,0.6-1c0.2-0.3,0.4-0.6,0.5-0.9c0.3-0.5,0.5-1.1,0.8-1.6
	c0.3-0.4,0.5-0.9,0.6-1.5c0.1-0.3,0-0.6,0.2-0.8c0.3-0.4,0.6-0.8,0.9-1.1c0.2-0.2,0.6-0.2,0.8,0c0.4,0.5,1,0.6,1.5,0.9
	c0.6,0.3,1.3,0.6,1.9,0.9c0.5,0.2,0.9,0.4,1.2,0.8c0.1,0.2,0.1,0.4,0,0.5c-0.1,0.3-0.3,0.5-0.5,0.8C41.2,53.9,41.1,54.1,41,54.3
	C41,54.3,41,54.4,41,54.3L41,54.3z"/>
<path class="st1" d="M43.6,44.4c0.2-0.1,0.3-0.1,0.3-0.2c0.2-0.2,0.3-0.4,0-0.6c-0.1-0.1-0.3-0.3-0.5-0.4c-0.7-0.4-1.3-0.7-2-1
	c-0.9-0.4-1.8-0.8-2.8-1.2c-0.7-0.3-1.4-0.5-2.1-0.7c-0.1,0.1-0.3,0.2-0.4,0.2c-0.5,0.1-1-0.1-1.4-0.3c-0.1,0-0.4-0.1-0.5,0
	c-0.3,0.3-0.6,0.1-0.9,0.1c-0.1,0.1-0.1,0.2-0.2,0.3c-0.2,0.2-0.5,0.3-0.7,0.5c-0.1,0.2-0.1,0.3-0.2,0.5c-0.2,0.6-0.2,1.2-0.6,1.7
	l-0.2,0.3l0.8,1.2c0.1,0.1,0.2,0.2,0.3,0.3c0.3,0.1,0.5,0.3,0.4,0.7V46c0.2,0,0.4,0,0.6,0c0.3-0.1,0.7-0.3,1-0.3
	c0.6,0.1,1.2,0.3,1.8,0.5c0.6,0.2,1.2,0.4,1.8,0.6c0.1,0,0.3,0.2,0.3,0.2c0,0.1-0.1,0.3-0.2,0.3c0,0.1,0,0.1,0,0.2
	c0,0.1,0,0.1-0.1,0.2c0.2,0.1,0.1,0.3,0,0.5c-0.1,0.2-0.1,0.4-0.3,0.5c-0.2,0.2-0.3,0.5-0.3,0.8c0.4,0.2,0.7,0.3,1,0.5
	c0,0,0.1,0.1,0.1,0.1c0,0.3,0.3,0.4,0.5,0.4c0.6,0.3,1.3,0.5,2,0.7c0,0,0-0.1-0.1-0.1l0.1,0.1h0c0.3,0.2,0.6,0.1,0.9-0.1
	c0.4-0.3,0.9-0.7,1.1-1.2c0.2-0.6,0.5-1.2,0.6-1.9c0.2-0.7,0.3-1.4,0.4-2.1C44.5,45.3,44.5,44.7,43.6,44.4L43.6,44.4z M33.1,45.8
	C33.1,45.8,33.1,45.8,33.1,45.8z M28.8,49.2c-0.1-0.3-0.6-0.6-0.8-0.6c-0.9,0-1.8,0.2-2.6,0c-0.3-0.1-0.6,0-0.8,0
	c-0.3,0-0.6-0.1-0.9-0.1c-0.1,0-0.2,0.1-0.2,0.1c-0.3,0.7-0.6,1.4-0.9,2.1c-0.3,0.8-0.6,1.6-1,2.3c-0.2,0.3-0.4,0.6-0.6,0.9
	c-0.2,0.5-0.4,1.1-0.9,1.5c0,0.1,0,0.1,0,0.2c0.1,0,0.2,0.1,0.2,0.1c0.3-0.2,0.4,0,0.6,0.2c0.6,0.4,1.1,0.8,1.6,1.2
	c0.6,0.3,1.2,0.6,1.8,0.8c0,0,0.1,0,0.1,0c0.3-0.2,0.5-0.3,0.8-0.5c0.3-0.2,0.5-0.6,0.9-0.6c0,0,0-0.1,0.1-0.1
	c0.4-0.3,0.5-0.7,0.7-1.1c0.3-0.6,0.7-1.2,1-1.8c0.3-0.8,0.6-1.6,0.9-2.3C28.9,50.6,29.1,49.9,28.8,49.2z"/>
<path class="st3" d="M17.9,69.6c0.1-0.1,0.2-0.2,0.3-0.2c0.1,0.2,0.1,0.3,0.2,0.4c-0.1,0-0.2,0.1-0.3,0.1C18,69.8,18,69.7,17.9,69.6
	z"/>
<path class="st1" d="M32.8,46.1c0.1,0,0.3,0,0.3,0C33,46.1,32.9,46.1,32.8,46.1z M13.3,49.2h-0.1H13.3z"/>
<path class="st2" d="M33.1,45.8L33.1,45.8C33.1,45.8,33.1,45.8,33.1,45.8z"/>
<g>
	<path class="st4" d="M62,5.7C61.8,5,61.1,4.2,60.4,4c-0.5-0.2-0.9,0-1.3,0.1c-0.6,0.1-1.2,0.5-1.7,0.8c-0.5,0.4-0.9,0.8-1.3,1.2
		l-1.6,1.5c-0.4,0.4-0.7,0.7-1.1,1c-0.6,0.5-1.3,1-1.9,1.4c-0.5,0.4-1,0.7-1.6,1.1c0.1-0.4,0.1-0.8,0.1-1.1c0.1-0.6,0.2-1.3,0.2-2
		c0-0.5,0-1,0-1.4c0-0.8,0.1-1.6,0.1-2.4c0-0.4-0.1-0.7-0.2-1c-0.3-0.5-1.5-0.6-1.9-0.2c-0.2,0.1-0.3,0.3-0.5,0.5
		c-0.5,0.5-0.9,0.9-1.3,1.4c-0.3,0.5-0.6,1-0.8,1.4c-0.5-0.2-1-0.4-1.5-0.5c-1-0.2-2-0.4-3-0.5C40,5.1,38.9,5,37.8,5.2
		c-0.2,0-0.3,0-0.3-0.2c-0.1-0.8-0.2-1.7-0.4-2.5c-0.1-0.7-0.4-1.4-0.9-1.9c-0.2-0.2-0.5-0.3-0.6-0.4c-0.4-0.2-1.3-0.1-1.5,0.2
		c-0.3,0.4-0.5,0.7-0.7,1.1c-0.5,0.8-0.8,1.7-1.3,2.5c-0.3,0.6-0.6,1.2-0.8,1.9C31,6.4,30.7,7,30.5,7.6c-0.2,0.5-0.3,1.1-0.5,1.6
		c-0.3,0.9-0.6,1.9-0.7,2.9c-0.1,0.6-0.1,1.3-0.2,1.9h-1.5c-0.4,0-0.8,0-1.1,0.1c-0.7,0.1-1.4,0.3-2,0.5c-0.7,0.2-1.5,0.6-2.2,0.8
		c-1,0.3-2,0.7-3,1.2c-0.6,0.3-1.3,0.6-1.9,1c-1.1,0.6-2.2,1.3-3.3,1.8c-0.8,0.5-1.6,0.8-2.5,1.3c-0.7,0.4-1.4,0.7-2.1,1
		C9,22,8.5,22.4,7.9,22.5C6.9,22.8,6,22.9,5,23.1c-0.6,0.1-1.2,0.2-1.6,0.6v0.5c0,0.3-0.2,0.5-0.1,0.8c0.1,0.4,0.2,0.8,0.3,1.3
		c0.1,0.3,0.1,0.5,0.2,0.8c0.2,0.6,0.3,1.1,0.5,1.7c0.3,0.7,0.7,1.5,1.2,2.2c0.3,0.4,0.6,0.9,1,1.2c0.4,0.3,0.8,0.6,1.2,0.9
		c0.4,0.4,0.8,0.7,1.2,1c0.5,0.4,1,0.8,1.5,1.2c0.2,0.2,0.4,0.4,0.6,0.6c0.6,0.6,1.3,1.1,2,1.7c0.4,0.3,0.7,0.7,1.1,1
		c0.4,0.4,0.8,0.6,1.1,1c0.6,0.5,1.1,1.1,1.7,1.6c0.3,0.3,0.6,0.6,1,0.8c0.1,0.1,0.3,0.2,0.1,0.4c-0.2,0.1-0.3,0.2-0.5,0.3
		c-0.9,0.4-1.9,0.8-2.9,1.3c-0.9,0.4-1.8,0.6-2.7,0.8c-0.5,0.1-1,0.1-1.4,0.1c-1.1,0.2-2.1,0.1-3.1-0.4c-0.6-0.3-1.1-0.7-1.5-1.2
		c-0.3-0.5-0.6-0.9-0.8-1.5c-0.2-0.6-0.4-1.2-0.5-1.8c-0.1-0.5,0-1,0.1-1.5c0.1-1-0.3-1.7-1-2.4c-0.6-0.6-1.6-0.6-2-0.3
		c-0.3,0.2-0.6,0.6-0.9,0.8c-0.5,0.5-0.6,1-0.7,1.7c0,0.4-0.1,0.8-0.1,1.2c0,0.7-0.1,1.4,0,2.1c0,0.7,0.2,1.4,0.3,2
		c0.2,0.8,0.5,1.6,0.8,2.3c0.1,0.3,0.3,0.5,0.4,0.7c0.3,0.4,0.5,0.8,0.8,1.1C3,48.3,3.7,48.6,4.3,49c0.5,0.3,1.1,0.5,1.7,0.7
		c0.6,0.2,1.3,0.3,1.9,0.4c1,0.3,2,0.1,3,0.1c0.6,0,1.3-0.2,1.9-0.2c1.2-0.1,2.3-0.4,3.4-0.9c0.7-0.3,1.5-0.6,2.2-1
		c0.4-0.2,0.8-0.4,1.1-0.6c0.4-0.3,0.8-0.6,1.3-0.9c0.1-0.1,0.2-0.2,0.3,0c0,0,0,0,0.1,0v0.1c0.1,0.2,0.2,0.4,0.3,0.4
		c0.4,0.2,0.6,0.5,0.9,0.7c0.3,0.1,0.2,0.4,0.1,0.6c-0.1,1.1,0,2.3-0.7,3.3c-0.7,0.9-1.2,1.9-1.8,2.9c0,0-0.1-0.1-0.1-0.1
		c-0.2,0-0.4,0.1-0.5,0.1c-0.1,0-0.2,0.1-0.2,0.2c-0.3,0.3-0.6,0.5-0.8,0.7c-0.5,0.6-0.9,1.3-1.4,2c-0.2,0.3-0.4,0.5-0.6,0.8
		c-0.4,0.5-0.9,0.9-1.3,1.4c-0.5,0.5-0.9,1.1-1.3,1.7c-0.3,0.3-0.6,0.6-0.8,1c0,0,0,0.1,0,0.1c0.7,2.8,2,6.2,4.8,7.3
		c0.4,0,0.7,0.1,1.1,0.1c0.2,0,0.5,0,0.7-0.1c0.7-0.2,1.2-0.7,1.5-1.4c0.3-0.9,0.1-1.9,0.1-2.9c0-0.5-0.1-1-0.2-1.5
		c0-0.1,0-0.2,0.1-0.3c0.3-0.3,0.6-0.6,1-0.9c0.6-0.6,1.3-1.1,1.8-1.8c0.7-0.7,1.3-1.6,1.9-2.3c0.3-0.4,0.3-0.5,0-0.8
		c0.1-0.2,0.3-0.3,0.4-0.5c0.5-0.7,0.9-1.5,1.4-2.2c0.3-0.5,0.6-1.1,1-1.6c0.5-0.7,0.8-1.5,0.9-2.3c0.1-0.5,0.1-1,0.2-1.6
		c0-0.3,0.1-0.6,0.1-1c0.1,0,0.2,0,0.3-0.1c0.6-0.2,1.2-0.5,1.8-0.7c0.6-0.3,1-0.6,1.5-0.9c0.4-0.3,0.8-0.6,1.2-0.9c0,0,0.1,0,0.2,0
		c0.8,0.2,1.7,0.4,2.6,0.5l1.1,0.3c-0.3,0.6-0.7,1.2-1.1,1.8c-1-0.1-1.2,0.1-1.5,0.7c-0.6,1-1,2.1-1.6,3.1c-0.6,1.2-1.4,2.4-2,3.6
		c-0.3,0.5-0.5,1.1-0.7,1.7c0,0.1,0,0.2,0,0.2c0.2,0.6,0.5,1.3,0.6,1.9c0.3,1,0.8,2,1.5,2.8c0.2,0.2,0.4,0.5,0.6,0.8
		c0.3,0.3,0.5,0.5,0.9,0.7c0.4,0.2,0.8,0.3,1.2,0.4c0.4,0.1,0.8,0.2,1.3,0.2c0.2,0,0.5-0.1,0.7-0.2c0.2-0.1,0.3-0.2,0.5-0.3
		c0,0,0,0,0-0.1c0.2-0.2,0.5-0.4,0.6-0.6c0.3-0.5,0.3-1,0.2-1.6c-0.1-0.7-0.1-1.5-0.2-2.2c-0.1-0.5-0.3-0.9-0.4-1.4
		c0-0.1,0-0.2,0.1-0.3c0.1-0.1,0.2-0.1,0.2-0.2c0.2-0.3,0.4-0.6,0.6-0.9l1.3-1.7c0.2-0.3,0.4-0.7,0.6-1c0.3-0.4,0.6-0.8,0.9-1.2
		c0.2-0.4,0.6-0.6,0.9-1L43,51.9c0.2-0.3,0.5-0.6,0.7-1c0.2-0.3,0.3-0.7,0.5-1c0.1-0.2,0.2-0.3,0.3-0.5l0.2-0.5
		c0.1-0.4,0.3-0.7,0.4-1.1c0,0,0-0.1,0-0.1c0.1-0.5,0.2-1.1,0.2-1.6c0-0.3,0-0.6,0-1c-0.2-0.8-0.7-1.5-1.4-2.1
		c-0.9-0.7-1.9-1.2-3-1.6c-0.4-0.1-0.8-0.3-1.2-0.3c-0.6-0.1-1.3-0.2-1.9-0.4c0.9-2.3,2.1-4.3,2.7-6.7c0.3,0.2,0.6,0.4,0.8,0.6
		c0.7,0.4,1.3,0.8,2,1.2c1.1,0.5,2.2,0.8,3.4,1.2c1.1,0.3,2.2,0.2,3.2-0.2c1.7-0.6,3.1-1.7,4.4-2.8c0.9-0.8,1.8-1.7,2.5-2.8
		c0.5-0.7,0.8-1.4,0.7-2.3c-0.1-0.8-0.3-1.6-1.1-2c-0.8-0.4-1.5-0.3-2.2,0c-0.8,0.3-1.4,0.8-1.9,1.4c-0.8,0.8-1.6,1.7-2.6,2.3
		c-0.7,0.5-1.2,0.5-2,0c-0.5-0.4-1-0.8-1.4-1.3c-0.6-0.7-1.2-1.4-1.8-2.1c0.1-0.1,0.2-0.2,0.3-0.4c0.3-0.4,0.1-0.8,0.1-1.2
		c-0.1-0.7-0.3-1.3-0.7-1.9c-0.1-0.2-0.1-0.3,0.1-0.4c0.8-0.6,1.6-1.3,2.4-1.9c1.1-0.9,2.3-1.8,3.5-2.8c1-0.7,2-1.5,3-2.2
		c0.6-0.4,1.2-0.8,1.7-1.3c0.7-0.6,1.4-1.3,2.1-1.9c0.7-0.7,1.5-1.3,2.1-2.1c0.6-0.7,1.2-1.4,1.7-2.2c0.4-0.6,0.7-1.4,1.1-2
		c0.1-0.2,0.1-0.5,0.1-0.7V5.7C62,5.7,62,5.7,62,5.7L62,5.7z M22,43.9c0,1-0.4,1.3-1,1.8c-0.5,0.4-1,0.6-1.5,0.9
		c-0.7,0.4-1.4,0.7-2.1,1.1c-0.9,0.5-1.9,0.7-2.9,1c-0.8,0.2-1.7,0.4-2.6,0.6c-0.5,0.1-1,0.1-1.5,0c-1.3,0-2.5-0.2-3.8-0.6
		c-1-0.3-1.9-0.8-2.7-1.5c-0.6-0.5-1.1-1.1-1.6-1.8c-0.4-0.6-0.6-1.3-0.9-2c-0.3-0.8-0.3-1.7-0.3-2.6c0-0.6-0.1-1.2-0.1-1.8
		c0-0.3,0.1-0.6,0.2-0.9c0.1-0.4,0.4-0.6,0.5-0.9c0.2-0.3,0.5-0.3,0.8-0.1c0.4,0.3,0.7,0.6,1,1c0.1,0.2,0.1,0.4,0.1,0.6
		c0,0.6,0,1.2-0.1,1.7c0,0.6,0.2,1.2,0.4,1.8c0.2,0.5,0.4,1,0.7,1.5c0.5,0.7,0.9,1.5,1.8,1.9c0.6,0.3,1.1,0.5,1.7,0.6
		c0.7,0.1,1.4,0.1,2.1,0c0.9-0.1,1.9-0.2,2.8-0.4c0.7-0.2,1.3-0.5,2-0.7c0.6-0.2,1-0.5,1.5-0.7c0.8-0.4,1.5-0.9,2.1-1.5
		c0.1-0.1,0.3-0.1,0.4-0.1c0.5,0.2,1,0.5,1.6,0.7c0.2,0.1,0.5,0.1,0.7-0.1c0.1-0.1,0.3-0.2,0.6-0.3C22,43.5,22,43.7,22,43.9L22,43.9
		z M20.9,42.5c-0.1,0-0.2,0-0.3,0c-1.2-0.5-2.3-1.2-3.2-2.2c-0.6-0.6-1.2-1.2-1.7-1.8l-1.2-1.3c-0.4-0.4-0.8-0.7-1.3-1.1
		c-0.4-0.4-0.8-0.8-1.2-1.1c-0.4-0.4-0.9-0.7-1.4-1c-0.6-0.4-1.1-0.8-1.7-1.1c-0.2-0.1-0.4-0.2-0.6-0.4c-0.2-0.1-0.4-0.3-0.6-0.4
		c-0.4-0.4-0.8-0.8-1.1-1.2c-0.4-0.5-0.6-0.9-0.9-1.5c-0.4-0.7-0.7-1.4-1-2.1c-0.2-0.8-0.3-1.6-0.3-2.4c0-0.1,0.2-0.3,0.3-0.4
		c0.3-0.1,0.7-0.2,1-0.3c0.9-0.2,1.8-0.4,2.7-0.7c1.3-0.5,2.6-1.1,3.8-1.7c1.3-0.6,2.5-1.3,3.8-1.9c1.1-0.6,2.2-1.2,3.4-1.8
		c1.2-0.6,2.4-1.1,3.7-1.5c0.7-0.2,1.3-0.5,2-0.8c0.5-0.2,1-0.2,1.4-0.3c0.3-0.1,0.6-0.2,1-0.2c0.3-0.1,0.6-0.1,1-0.1
		c0.6,0,0.5,0,0.6,0.6c0.1,0.5,0.2,1,0.3,1.6c0.1,0.3,0.2,0.5,0.2,0.7c0.1,0.2,0,0.3-0.2,0.3c-0.7-0.1-1.4,0.2-2,0.3
		c-0.3,0-0.5,0.2-0.8,0.3c0.3,0.4,0.6,0.4,0.9,0.4c1.2,0,2.4,0,3.5,0.1c1.1,0.1,2.3,0.3,3.4,0.5c1.1,0.2,2.2,0.5,3.3,0.8
		c1.4,0.4,2.7,0.9,3.8,1.8c0.6,0.5,1.2,1.1,1.6,1.8c0.3,0.5,0.7,1.1,0.6,1.8c-0.4-0.3-0.8-0.6-1.2-0.8c-0.8-0.5-1.6-0.7-2.5-0.8
		c-1.2-0.1-2.4-0.1-3.6,0c-0.7,0.1-1.5,0.4-2.1,0.6c-0.6,0.2-1.2,0.5-1.8,0.8c-0.7,0.4-1.3,0.8-1.9,1.4c-0.4,0.4-0.7,0.8-1.1,1.3
		c-0.2,0.2-0.2,0.5-0.3,0.8c0,0.1-0.1,0.1-0.2,0.2c0.1,0,0.2,0.1,0.3,0.1c0,0.1,0,0.1-0.1,0.2c1.5-0.9,2.9-2,4.4-2.9l0.1,0.1
		c-0.5,0.5-1,1-1.5,1.6c-0.7,0.8-1.5,1.6-2.1,2.5c-0.7,0.9-1.3,1.8-2,2.8c-0.4,0.6-0.8,1.2-1.3,1.8c-0.4,0.6-0.8,1.1-1.3,1.6
		c-0.4,0.5-0.8,0.9-1.2,1.3c-0.4,0.4-0.8,0.8-1.2,1.3c-0.4,0.4-0.6,0.8-1,1.1C21.7,41.8,21.3,42.1,20.9,42.5z M22.6,60.5
		c-0.7,0.8-1.3,1.6-2,2.4c-0.2,0.3-0.5,0.5-0.7,0.7s-0.3,0.5-0.3,0.8c0.1,0.4,0.1,0.8,0.1,1.2c0,0.6,0,1.1,0.1,1.7
		c0,0.6-0.3,1.1-0.7,1.5c-0.3,0.3-0.7,0.2-1.1,0c-0.3-0.1-0.5-0.2-0.8-0.3c-0.3-0.1-0.5-0.1-0.6-0.4c-0.2-0.4-0.5-0.6-0.7-0.9
		c-0.2-0.3-0.4-0.7-0.5-1c-0.2-0.5-0.5-1-0.6-1.6c-0.2-0.5-0.3-1.1-0.5-1.6c-0.1-0.3-0.2-0.6,0-0.8l0.6-0.8c0.4-0.5,0.8-0.9,1.2-1.4
		c0.6-0.6,1.2-1.2,1.7-1.8c0.3-0.4,0.6-0.8,0.9-1.1c0.3-0.4,0.6-0.8,1-1.3c1.6,0.9,3.1,1.7,4.6,2.6C23.7,59.2,23.1,59.9,22.6,60.5
		L22.6,60.5z M28.1,50.7c-0.2,0.6-0.3,1.2-0.5,1.7c-0.2,0.4-0.2,0.8-0.6,1.2c-0.1,0.2-0.2,0.4-0.3,0.6c0,0.1-0.1,0.2-0.1,0.3
		c-0.5,1-1.1,1.9-1.9,2.7c-0.2,0.2-0.4,0.2-0.6,0c-0.4-0.3-0.8-0.5-1.2-0.8c-0.5-0.4-1.1-0.6-1.7-1c-0.1,0-0.1-0.2-0.1-0.2
		c0.1-0.2,0.3-0.4,0.4-0.5c0.4-0.5,0.7-0.9,1.1-1.4c0.3-0.3,0.4-0.8,0.7-1.1c0-0.1,0.1-0.2,0.1-0.3c0-0.2,0.1-0.4,0.1-0.6
		c0-0.2,0-0.3,0.1-0.5c0-0.5,0-1,0.1-1.5c0-0.2,0-0.3-0.1-0.5c0.1,0,0.2,0,0.4,0c0.2,0.2,0.5,0.3,0.8,0.3c0.5,0,1,0.1,1.5,0.2
		c0.2,0,0.3,0.1,0.5,0.1l1.6-0.1c0.1,0,0.2,0.1,0.2,0.2C28.4,49.7,28.3,50.2,28.1,50.7L28.1,50.7z M30.5,47
		c-0.8,0.4-1.7,0.7-2.6,0.8c-0.6,0-1.2,0.1-1.8,0c-0.9-0.1-1.9-0.3-2.8-0.6c-0.4-0.1-0.8-0.4-1.1-0.7c0,0,0-0.2,0-0.3
		c0.2-0.4,0.4-0.6,0.6-1c0.2-0.5,0.2-1,0.2-1.6c0-0.3-0.1-0.6-0.2-0.9c0-0.1,0.1-0.2,0.1-0.3c0.8-0.9,1.8-1.7,2.6-2.6
		c0.5-0.6,1-1.2,1.5-1.7c0.4-0.5,0.8-0.9,1.3-1.5c1.1,0.4,2.2,0.7,3.4,1.1c0.8,0.3,1.7,0.6,2.5,0.9c0.5,0.2,1,0.4,1.5,0.6
		c0.2,0.1,0.3,0.2,0.5,0.3c0.2,0.1,0.4,0.3,0.6,0.1c-0.1,0.2-0.2,0.4-0.3,0.6c0,0.1-0.2,0.1-0.2,0.1c-0.6-0.1-1.2-0.1-1.8-0.3
		c-0.6-0.2-1.2,0-1.7,0.3c-0.3,0.2-0.5,0.5-0.7,0.8c-0.2,0.3-0.4,0.6-0.6,1c-0.4,0.6-0.2,1.4-0.2,2c0,0.3,0.1,0.6,0.2,0.8
		c0.2,0.3,0.4,0.4,0.6,0.6c0.1,0.1,0.3,0.2,0.5,0.4C32,46.3,31.2,46.6,30.5,47z M40.4,54.4c-0.4,0.6-0.8,1.1-1.2,1.7l-1.6,2.1
		c-0.1,0.1,0,0.3,0,0.5c0.1,0.8,0.2,1.7,0.3,2.6c0,0.5,0.1,0.9,0.1,1.4c0,0.5-0.4,1.3-0.9,1.4c-0.5,0.1-1.1,0-1.5-0.4
		c-0.6-0.6-1.1-1.4-1.7-2c-0.1-0.2-0.2-0.4-0.2-0.6c-0.4-1-0.8-2-1.2-3c-0.2-0.3,0-0.6,0.1-0.8c0.3-0.6,0.6-1.3,1-1.9
		c0.4-0.6,0.7-1.3,1-1.9l0.6-1c0.3-0.6,0.6-1.2,0.9-1.8c0.2-0.3,0.4-0.6,0.5-0.9c1.7,0.9,3.4,1.7,5,2.7C41,53,40.9,53.8,40.4,54.4z
		 M39.2,42c1,0.2,1.9,0.5,2.7,1.1c0.6,0.4,1.3,0.9,1.8,1.5c0.4,0.4,0.5,1,0.4,1.6c-0.1,0.9-0.4,1.7-0.7,2.5c-0.4,0.7-0.6,1.4-1.1,2
		c-0.2,0.2-0.3,0.4-0.4,0.6c-1.3-0.7-2.5-1.3-3.8-2c0.3-0.6,0.6-1.3,1-1.9c0,0,0.1-0.1,0.2-0.1c0.3,0,0.5,0,0.7,0.1
		c0.3,0.1,0.4,0,0.5-0.1c0.3-0.2,0.3-0.4,0-0.5c-0.5-0.3-1.1-0.6-1.6-0.7c-0.8-0.3-1.6-0.5-2.4-0.7c-0.7-0.2-1.4-0.3-2-0.5
		c-0.5-0.1-0.9-0.2-1.4-0.3c-0.1,0-0.2,0-0.3,0c-0.4,0.1-0.4-0.1-0.4-0.4c0-0.9,0.4-1.8,0.8-2.5c0.2-0.4,0.6-0.7,1.3-0.5
		c0.4,0.1,0.8,0,1.2,0.1C36.9,41.4,38,41.7,39.2,42L39.2,42z M46.1,30.9c0.6,0.7,1.5,1.1,2.4,1c0.9,0,1.8-0.3,2.4-1
		c0.6-0.5,1.2-1.1,1.8-1.6c0.6-0.5,1.1-1.1,1.9-1.5l0.1-0.1c0,0,0,0,0.1,0v0.1c0,0-0.1,0-0.1,0.1c-0.2,0.3-0.4,0.5-0.4,0.7
		c-0.1,0.2,0.2,0.4,0.4,0.3c0.2-0.1,0.4-0.3,0.6-0.5c0.2-0.2,0.4-0.4,0.6-0.6c0.4-0.4,0.5-0.4,0.9,0.1c-0.8,0.4-1.3,1.1-1.8,1.8
		c0.4,0.3,0.5,0.3,0.9-0.1c0.3-0.3,0.6-0.4,0.9-0.6c0,0.6-0.3,1-0.6,1.4c-0.2,0.3-0.5,0.6-0.7,0.9c-0.6,0.8-1.4,1.4-2.1,2
		c-1,0.8-2.2,1.4-3.3,2c-0.7,0.4-1.5,0.4-2.3,0.5c-1.1,0.1-2-0.4-2.9-0.8c-1.4-0.6-2.7-1.4-3.9-2.3c-0.5-0.4-1-0.8-1.5-1.1
		c-0.4-0.2-0.8-0.4-1.2-0.6c-0.2,0.4,0,1.3,0.4,1.5c0.3,0.2,0.6,0.4,0.8,0.6c0.1,0.1,0.1,0.2,0.1,0.3c-0.3,0.8-0.6,1.6-0.9,2.4
		c-0.4,0.9-0.8,1.8-1.2,2.6c0,0.1-0.1,0.2-0.2,0.3c-1.1-0.8-2.3-1.2-3.5-1.6c-1.2-0.4-2.4-0.7-3.5-1.1c-0.4-0.1-0.7-0.3-1.1-0.4
		c0.5-0.8,1.1-1.6,1.7-2.4c0.5-0.7,0.9-1.5,1.5-2.2c0.6-0.7,1.2-1.5,1.8-2.2c0.6-0.6,1.2-1.3,1.8-1.9c0.2-0.2,0.5-0.2,0.7-0.3
		c0.4-0.2,0.7-0.3,1.1-0.5c0.4-0.2,0.7-0.3,1.1-0.3c0.7,0,1.4,0,2.1,0c0.2,0,0.4,0.1,0.6,0.3c0.5,0.3,0.9,0.5,1.3,0.8
		c0.5,0.4,0.8,0.9,1.2,1.3C44.6,29.2,45.3,30,46.1,30.9L46.1,30.9z M46.2,19.7c-0.4,0.5-0.7,0.9-1.1,1.3c-0.5,0.5-1.1,0.8-1.6,1.2
		c-0.1,0.1-0.3,0-0.4,0c-0.6-0.5-1.3-1-2-1.4c-0.8-0.4-1.6-0.7-2.5-0.9c-0.7-0.2-1.4-0.4-2.1-0.6c-0.9-0.2-1.9-0.4-2.8-0.5l-2.3-0.4
		c-0.1,0-0.3,0-0.4,0c-0.5,0-0.7-0.2-0.7-0.7c-0.1-0.8-0.2-1.7-0.1-2.6c0.2-1.2,0.3-2.4,0.5-3.6c0.3-1.6,0.9-3,1.5-4.5
		c0.3-0.9,0.6-1.9,1-2.9c0.4-0.9,0.7-1.9,1.3-2.7c0.1-0.2,0.2-0.3,0.4-0.4c0.3-0.2,0.5-0.2,0.7,0.2c0.2,0.4,0.4,0.8,0.5,1.2
		c0.1,0.2,0.1,0.4,0.2,0.6c0.1,0.3,0.2,0.6,0.2,1c0.1,0.7,0.1,1.4,0.2,2.1c1,0,1.9,0,2.8,0c0.9,0,1.7,0.1,2.6,0.2
		c0.6,0.1,1.3,0.3,1.9,0.5l1.8,0.5c0.1,0,0.2,0,0.2,0c0.4-0.5,0.8-1,1.3-1.5c0.5-0.6,0.9-1.1,1.4-1.7c0.1-0.1,0.3-0.2,0.4-0.3
		c-0.1,2.9-0.1,5.7-0.6,8.6c-0.3-0.1-0.6-0.3-1-0.4c-0.8-0.3-1.6-0.3-2.4-0.2c-0.6,0.1-1,0.4-1.5,0.8c-0.4,0.4-0.4,1.3-0.2,1.7
		c0.4,0.9,1.1,1.3,2.1,1.5c0.5,0.1,0.9,0.1,1.4,0.1c0.3,0,0.6-0.1,1-0.2c-0.1,0.4-0.1,0.8-0.3,1.2C47.2,17.7,46.9,18.8,46.2,19.7
		L46.2,19.7z M47.4,13.3c-0.1-0.7-0.4-1.2-1.2-1.3c0.7-0.1,1.3,0.2,1.8,0.6c0.6,0.5,0.4,1.6-0.3,2c-0.3,0.2-0.6,0.4-1,0.6
		c-0.2,0.1-0.4,0.1-0.5,0.1c0,0,0-0.1-0.1-0.1C47.2,15,47.5,14.3,47.4,13.3z M60.4,7.4c-0.5,0.7-0.9,1.4-1.4,2
		c-0.7,0.8-1.4,1.6-2.1,2.3c-0.6,0.6-1.2,1.2-1.8,1.8c-0.4,0.4-0.8,0.7-1.2,1c-0.6,0.4-1.1,0.8-1.6,1.2l-3.4,2.6
		c-0.3,0.2-0.5,0.4-0.7,0.6l-0.4,0.3c0,0-0.1,0-0.1,0.1c0,0,0-0.1,0.1-0.1c0.4-0.9,0.8-1.8,1.1-2.8c0.3-0.9,0.5-1.8,0.7-2.7
		c0-0.1,0-0.2,0-0.4c0-0.5,0.3-0.6,0.6-0.8c0.8-0.6,1.7-1.3,2.5-1.9c0.9-0.6,1.7-1.2,2.5-1.9c0.5-0.5,1-1,1.5-1.6
		c0.6-0.6,1.2-1,1.8-1.6l0.1,0.1c-0.1,0.2-0.3,0.4-0.4,0.6c0.1,0.1,0.3,0.2,0.4,0.2c0.1,0,0.3,0,0.3-0.1c0.4-0.5,0.8-1,1.3-1.4
		c0.3-0.2,0.4-0.1,0.6,0.2c0.2,0.3-0.2,0.3-0.3,0.4C60,6,59.6,6.4,59.2,6.8c-0.2,0.2,0.1,0.3,0.3,0.4c0.1,0.1,0.3,0.1,0.4-0.1
		c0.3-0.4,0.6-0.6,0.9-1c0.1,0,0.1,0.1,0.2,0.1C60.8,6.7,60.6,7.1,60.4,7.4z"/>
	<path class="st4" d="M34.1,27.3C34,27.3,34,27.3,34.1,27.3c-0.1,0-0.1,0-0.2,0l0,0C34,27.4,34,27.4,34.1,27.3z M36.1,10.5
		c1.2,0,2.2,0.2,3,0.8c0.5,0.3,0.7,0.8,0.7,1.4c0.1,0.7-0.2,1.2-0.7,1.5c-0.5,0.2-1,0.4-1.6,0.5c-1.1,0.2-2-0.2-3-0.7
		c-0.8-0.5-1.1-1.6-0.6-2.4C34.5,10.8,35.2,10.4,36.1,10.5L36.1,10.5z M37.9,11.5c0.6,1.2,0.1,2-1,2.7c0.3,0,0.5,0,0.7-0.1
		c0.6-0.2,1.4-0.6,1.3-1.2C38.9,12.3,38.6,11.6,37.9,11.5z M37.8,11.4C37.9,11.4,37.9,11.4,37.8,11.4c0.1,0,0.1,0,0.1,0
		C37.9,11.4,37.9,11.3,37.8,11.4C37.8,11.3,37.8,11.4,37.8,11.4z M41.2,13.4c0.3,0.1,0.8,0.2,1.4,0.3c0.4,0.1,0.6,0.6,0.4,0.9
		c-0.2,0.4-0.5,0.8-0.8,1.1c-0.3,0.4-0.9,0.5-1.3,0.2c-0.1-0.1-0.2-0.3-0.2-0.4c-0.1-0.5-0.2-1.1-0.3-1.6
		C40.3,13.5,40.4,13.4,41.2,13.4z M38.6,16.5c0.1-0.1,0.2-0.3,0.3-0.3c0.2,0.1,0.5,0.2,0.6,0.3c0.1,0.1,0.1,0.4,0.2,0.6
		c0,0.3,0.1,0.6,0.5,0.8c0.5,0.2,1,0.2,1.4-0.2c0.2-0.2,0.4-0.5,0.5-0.7c0.1-0.2,0.3-0.2,0.5-0.2c0.1,0.1,0.5,0.1,0.3,0.4
		c-0.1,0.1,0,0.3-0.1,0.4c-0.2,0.7-0.9,1.1-1.6,1c-0.3,0-0.7-0.1-1-0.2C39.1,18.2,38.6,17.7,38.6,16.5z"/>
</g>
<text transform="matrix(0.8386 0.6362 -0.6044 0.7967 15.3345 25.1479)" class="st0 st5 st6">PX</text>
</svg>
