<?xml version="1.0" encoding="utf-8"?>
<!-- Generator: Adobe Illustrator 23.0.0, SVG Export Plug-In . SVG Version: 6.00 Build 0)  -->
<svg version="1.1" id="Calque_1" xmlns="http://www.w3.org/2000/svg" xmlns:xlink="http://www.w3.org/1999/xlink" x="0px" y="0px"
	 viewBox="0 0 70 70" style="enable-background:new 0 0 70 70;" xml:space="preserve">
<style type="text/css">
	.st0{fill:#7B7089;}
	.st1{fill:#C5BCCF;}
	.st2{fill:#8AB0B7;}
	.st3{fill:#7B7088;}
	.st4{fill:#7C718A;}
	.st5{fill:#7D728A;}
	.st6{fill:#857A92;}
	.st7{fill:#41364F;}
</style>
<path class="st0" d="M64.6,47.2c-0.1,0.5-0.3,0.8-0.7,0.6c-0.2-0.1-0.4-0.5-0.4-0.8c-0.2-0.7-0.2-1.4-1.1-1.9
	c-0.3-0.2-0.5-0.9-0.6-1.4c-0.1-1.3-0.1-2.7-0.2-4.1c0-0.4-0.2-0.8-0.4-1.1c-0.5-1-0.6-2-0.6-3.1c-0.1-1.1-0.5-2-1.1-2.8
	c-0.9-1.2-1.1-2.7-0.6-4.1c0.3-0.7,0.8-1.3,1.2-2c0.2-0.3,0.2-0.7,0.4-1c0-0.1,0.2-0.1,0.3-0.2c0.4-0.4,0.8-1,1.3-1.3
	c0.6-0.5,1.2-0.8,1.8-1.2c0.4-0.2,0.5-0.6,0.3-1.1c-0.5-1.1-1.3-1.8-2.5-1.9c-1.4-0.1-2.7,0.4-4,0.9c-1.1,0.4-2.3,0.4-3.3-0.2
	c-0.6-0.4-1.1-1.1-1.6-1.7c-0.5-0.7-0.8-1.4-1.2-2.2c-0.6-1.1-1.1-2.3-1.8-3.4c-0.2-0.3-0.8-0.4-1.1-0.6c-0.8-0.4-1.6-0.8-2.2-1.3
	c-0.8-0.8-1.3-1.7-1.9-2.6c-0.4-0.7-0.6-1.5-0.9-2.1c-0.5-1-1.2-1.8-1.7-2.8c-0.3-0.6-0.1-0.9,0.6-1c0.1,0,0.2,0,0.3-0.1
	c-0.8-0.2-1.5-0.4-2.2-0.6c-1.9-0.5-3.8-1.1-5.8-1.1C34.5,1.1,34.3,1,34,1h-2.3c-0.4,0.1-0.9,0.1-1.3,0.2c-1.8,0.3-3.5,0.4-5.3,0.8
	c-1.3,0.3-2.5,0.8-3.8,1.1c-0.2,0-0.4-0.2-0.6-0.3c-0.1-0.1-0.4-0.2-0.4-0.1c-0.1,0.2-0.2,0.4-0.2,0.7c0,0.1,0,0.2-0.1,0.3
	c-0.1,0-0.1,0-0.1,0c-0.1-0.1-0.1-0.2-0.2-0.4l0,0c-0.2,0.3-0.4,0.5-0.6,0.8C19.1,4.2,19,4.6,19,5c-0.1,0.5-0.3,1-0.2,1.4
	c0.1,0.8,0.4,1.6,0.7,2.4c0.2,0.5,0.6,1.1,0.6,1.6c0.1,1,0,1.9-0.1,2.9c-0.1,0.6-0.3,1.2-0.6,1.8c-0.3,0.6-0.8,1.2-1.1,1.8
	c-0.4,0.6-0.7,1.2-1,1.9c-0.2,0.4-0.3,1-0.6,1.3c-0.4,0.5-1.1,0.8-1.5,1.2c-0.5,0.4-1,0.7-1.4,1.1c-0.4,0.4-0.9,0.8-1.2,1.2
	c-0.5,0.7-0.8,1.4-1.3,2.1c-0.5,0.8-0.9,1.7-2,2c-0.6,0.2-1.2,0.4-1.7,0.6c-0.4,0.1-0.8,0-1.1,0.2c-1.1,0.5-2.1,1.1-2.8,2
	c-0.6,0.8-1.3,1.4-1.9,2.1c-0.3,0.3-0.5,0.8-0.6,1.1c0.1,0.6,0.2,1.2,0.2,1.8c0,0,0,0,0.1,0c0.1,0.1,0,0.5,0,0.9c0,0.2,0,0.4,0,0.6
	c0.1,0.9,0.2,1.8,0.4,2.8c0.2,1,0.4,2,0.7,3.1c0.1,0.5,0.5,0.9,0.7,1.3c0.4,0.6,0.8,1.2,1.2,1.8C4.3,46,4.1,46.3,4,46.5
	c0.2,0.4,0.4,0.9,0.6,1.3c0.6,0,1.3,0.1,1.9,0.1c0.3,0,0.7-0.1,1-0.3c0.8-0.5,1.5-1.1,2.3-1.6c0.9-0.6,1.8-0.9,2.9-0.8
	c0.9,0.1,1.7,0,2.6-0.1c0,0,0.1,0,0.1,0c0.3,0,0.7,0.2,0.8,0.1c0.4-0.4,0.8-0.9,0.9-1.4c0.5-1.5,0.8-3,1.2-4.5
	c0.1-0.3,0.6-0.5,1-0.5c1.1-0.2,1.8,0.2,2.5,1.3c0.9,1.5,2.1,2.7,3.5,3.9c0.9,0.8,1.5,2.1,2.1,3.2c0.5,1,0.7,2,1,3
	c0.7,2.1,0.9,4.2,0.2,6.3c-0.2,0.7-0.1,1.4-0.1,2.2c0,0.5,0,0.9-0.5,1.2c-0.2,0.1-0.3,0.4-0.5,0.6c-0.8,0.8-1.1,0.8-2.1,0.4
	c-0.5-0.2-1.1-0.1-1.6-0.2c-0.3,0-0.5-0.2-0.8-0.3c-1.1-0.6-2.3-0.1-3.4,0c-0.1,0-0.3,0-0.4,0c-0.8-0.5-1.5-0.2-2.3,0.1
	c-0.3,0.1-0.6,0.1-0.9,0.2c-0.4,0.2-0.8,0.4-1.2,0.6c0,0,0,0,0,0c0.9,0.5,1.9,1,2.8,1.6c0.3-0.1,0.6-0.2,0.9-0.1c0.1,0,0.1,0,0.2,0
	c-0.2,0.5,0.2,0.5,0.5,0.6c0.4,0.2,0.9,0.3,1.3,0.4h0.1l-0.1,0.1c0.3,0.1,0.6,0.2,1,0.2c1,0.3,2,0.6,3.1,0.9c0.1,0,0.2,0.1,0.2,0.2
	c0.4,0.1,0.8,0.2,1.2,0.2c0-0.1,0.1-0.1,0.1-0.2c0,0,0.2,0,0.3,0.1c0.1-0.6,0-1.3,0.2-1.8c0.1-0.3,0.4-0.6,0.7-0.7
	c0.5-0.2,1.1-0.4,1.7-0.5c0.2,0,0.7,0.3,0.7,0.5c0.2,0.9,0.3,1.8,0.5,2.7c0,0.1-0.3,0.2-0.4,0.3c-0.2,0.2-0.5,0.3-0.7,0.5
	c0.1,0,0.2,0.1,0.3,0.1c1.2,0.1,2.4,0.3,3.5,0.4c0.1,0,0.2,0.1,0.3,0.2c0.2,0,0.5,0,0.7,0h0.1c0.4,0,0.7,0,1.1,0
	c0.1,0,0.2,0,0.2,0.1c0.2,0,0.4-0.1,0.7-0.1c0.1,0,0.2-0.1,0.2,0c0.3,0.1,0.8,0.4,0.9,0.3c0.4-0.4,1,0.3,1.3-0.2s0.6-0.3,0.9-0.1
	c0.3-0.1,0.6-0.2,1-0.3c-0.4-0.3-0.8-0.5-1.2-0.8c0,0,0,0-0.1-0.1c-0.9-0.4-0.7-1.3-1.1-1.9c-0.5-0.5-1.1-0.9-1.6-1.3
	c-0.3-0.3-0.7-0.4-1.1-0.6c-0.2-0.1-0.4-0.4-0.4-0.5c0.2-0.7-0.6-0.6-0.7-0.9c-0.1-0.2-0.2-0.4-0.2-0.5c0.1-1.6,0.1-3.2,0.3-4.8
	c0.1-0.9,0.5-1.8,0.5-2.8c-0.1-2.4-0.2-4.9-0.3-7.3c0-0.4,0-0.9,0.1-1.3c0.1-0.2,0.3-0.5,0.5-0.6c0.6-0.2,1.1-0.4,1.7-0.6
	c0.7-0.1,1.3-0.2,2-0.3c1.4-0.2,2.7-0.4,4.1-0.6c-0.1-0.1-0.2-0.3-0.3-0.4c0.2,0,0.5-0.1,0.6,0c0.6,0.4,1.1,0.2,1.6-0.2l0,0
	c-0.2-0.2-0.4-0.4-0.5-0.7c0-0.1,0-0.1,0-0.1c-0.4-0.4-0.6-0.7-0.9-1c-0.5-0.7-0.6-1.3-0.9-2.1c-0.3-0.9-0.4-1.8-0.4-2.8
	c0-0.6,0.2-1.3,0.4-1.9c0.5-1.1,2.1-1.9,3.6-1.5c1.9,0.5,2.6,1.9,3,3.6c0.2,0.7,0.2,1.5,0.3,2.2c0.1,0.6,0.4,1.2,0.5,1.7
	c0.2-0.8,0.4-1.8,0.7-2.7c0.5-1.3,1.1-2.8,2.3-3.6c0.6-0.4,1.4-0.6,2.1-0.4c0.9,0.2,1.8,0.5,2.2,1.5s0.5,2,0.2,3
	c-0.5,1.8-1.3,3.5-2.4,5.1c0,0,0,0.1,0,0.1c0.6,0.3,1.2,0.5,1.7,0.8c1-0.2,1.7,0.4,2.4,0.7c0.2,0.1,0.3,0.5,0.5,0.7
	c0.7,0.4,1.4,0.7,2.1,1.1c0.2,0.1,0.3,0.5,0.5,0.7c0.1,0.2,0.4,0.2,0.5,0.4c0.6,0.8,1,1.7,0.8,2.7c0,0.1,0,0.2-0.1,0.2
	c-0.8,0.8-0.6,1.9-0.7,2.8c0.4-0.3,0.5-0.7,0.5-1.2c0-0.3,0.3-0.7,0.5-1c0.4-0.7,0.8-1.3,1.2-2c0.2-0.4,0.3-0.8,0.5-1.2
	C64.2,46,64.7,47,64.6,47.2z M17.7,28.2c-0.3,1.1-0.8,2-1.5,2.8c-0.3,0.4-0.7,0.9-1.1,1.2c-0.6,0.5-1.3,1-1.8,1.5
	c-0.5,0.5-1,1-1.5,1.4c-0.5,0.3-1,0.5-1.5,0.7c-0.5,0.2-1,0.4-1.5,0.6c-0.4,0.2-2,0.3-2.2-0.1c-0.2-0.3-0.2-1.1,0-1.3
	c1.1-0.9,2.2-1.8,3.4-2.6c0.5-0.3,1.2-0.4,1.8-0.7c0.3-0.1,0.5-0.3,0.7-0.5c0.6-0.7,1.2-1.4,1.6-2.2c0.8-1.4,1.5-2.8,2.3-4.2
	c0.2-0.4,0.6-0.8,1-1c0.1-0.1,0.7,0.2,0.8,0.5c0.2,0.4,0.2,0.9,0.4,1.4C18.2,26.6,17.9,27.4,17.7,28.2z"/>
<path class="st0" d="M37.1,66.9C37.1,66.9,37.1,66.9,37.1,66.9c-0.1,0-0.1,0-0.1,0S37,67,37.1,66.9C37.1,67,37.1,67,37.1,66.9z"/>
<path class="st1" d="M28.3,50.3c-0.3-1-0.6-2.1-1-3c-0.6-1.2-1.2-2.4-2.1-3.2c-1.3-1.2-2.5-2.4-3.5-3.9c-0.7-1.1-1.3-1.5-2.5-1.3
	c-0.4,0.1-0.9,0.3-1,0.5c-0.5,1.5-0.8,3-1.2,4.5c-0.2,0.5-0.5,1-0.9,1.4c-0.1,0.1-0.5-0.1-0.8-0.1c0,0-0.1,0-0.1,0
	c-0.9,0-1.7,0.1-2.6,0.1c-1.1-0.1-2,0.2-2.9,0.8c-0.7,0.6-1.5,1.1-2.3,1.6c-0.3,0.2-0.6,0.3-1,0.3c-0.6,0-1.3,0-1.9-0.1
	c0.3,0.6,0.5,1.2,0.8,1.7c0,0.1,0.1,0.1,0.1,0.2c0,0.1,0.1,0.2,0.1,0.2c1,1.4,1.9,2.9,2.8,4.4c0.1,0,0.1,0.1,0.2,0.1
	c0.5,0.3,1,0.8,1.3,1.2c1.1,1.3,2,2.7,3.1,4c0.5,0.6,1.3,1.1,1.9,1.6c0.4-0.2,0.8-0.5,1.2-0.6c0.3-0.1,0.6-0.1,0.9-0.2
	c0.8-0.3,1.5-0.6,2.3-0.1c0.1,0.1,0.3,0,0.4,0c1.1-0.2,2.3-0.6,3.4,0c0.2,0.1,0.5,0.2,0.8,0.3c0.5,0.1,1.1,0,1.6,0.2
	c1.1,0.4,1.3,0.4,2.1-0.4c0.2-0.2,0.3-0.5,0.5-0.6c0.5-0.3,0.5-0.7,0.5-1.2c0-0.7-0.1-1.5,0.1-2.2C29.1,54.6,29,52.5,28.3,50.3
	L28.3,50.3z M51.8,6.3c0.1,0,0.2,0,0.3,0c0.9-0.1,1.2,0.1,1.2,1.1c0,0.2-0.1,0.8,0.5,0.3c0.1-0.1,0.2,0,0.4,0c0.3,0.2,0.7,0.5,1,0.7
	c0.5,0.4,1,0.8,1.4,1.3c0.9,1,1.8,1.9,2.6,2.9c0.6,0.7,0.9,1.6,1.4,2.4c0.2,0.4,0.6,0.7,0.9,1.1c1.1,1,2,2.1,2.6,3.5
	c0.4,0.9,0.4,1.8,0.6,2.7c0.1,0.4-0.1,1-0.2,1.5c0,0.1,0,0.2,0,0.2c0.6,0.3,0.6,0.8,0.7,1.4c0.1,0.7,0.3,1.4,0.5,2.1
	c0.7,2.2,1.1,4.4,1.1,6.6c0,1.1-0.3,2.1-0.2,3.2c0.1,1.2,0.6,2.2,0.8,3.4c0.1,0.5,0.3,1.3,0,1.6c-1,1.1-0.3,2.1-0.2,3.1
	c0.1,0.9-0.6,1.6-1.3,1.3c-0.1,0-0.1-0.1-0.3-0.3l-0.3,0.1c-1-0.4-0.6,0.5-0.6,0.8c-0.1,0.5-0.3,0.8-0.7,0.6
	c-0.2-0.1-0.4-0.5-0.4-0.8c-0.2-0.7-0.2-1.4-1.1-1.9c-0.3-0.2-0.5-0.9-0.6-1.4c-0.1-1.3-0.1-2.7-0.2-4.1c0-0.4-0.2-0.8-0.4-1.1
	c-0.5-1-0.6-2-0.6-3.1c-0.1-1.1-0.5-2-1.1-2.8c-0.9-1.2-1.1-2.7-0.6-4.1c0.3-0.7,0.8-1.3,1.2-2c0.2-0.3,0.2-0.7,0.4-1
	c0-0.1,0.2-0.1,0.3-0.2c0.4-0.4,0.8-1,1.3-1.3c0.6-0.5,1.2-0.8,1.8-1.2c0.4-0.2,0.5-0.6,0.3-1.1c-0.5-1.1-1.3-1.8-2.5-1.9
	c-1.4-0.1-2.7,0.4-4,0.9c-1.1,0.4-2.3,0.4-3.3-0.2c-0.6-0.4-1.1-1.1-1.6-1.7c-0.5-0.7-0.8-1.4-1.2-2.2c-0.6-1.1-1.1-2.3-1.8-3.4
	C49.6,13,49,13,48.7,12.8c-0.8-0.4-1.6-0.8-2.2-1.3c-0.8-0.8-1.3-1.7-1.9-2.6c-0.4-0.7-0.6-1.5-0.9-2.1c-0.5-1-1.2-1.8-1.7-2.8
	c-0.3-0.6-0.1-0.9,0.6-1c0.1,0,0.2,0,0.3-0.1c0.8,0.2,1.6,0.4,2.5,0.6c0.4,0.1,0.8,0,1.2,0.1c0.5,0.1,1,0.4,1.5,0.5
	c0.6,0.2,1.2,0.4,1.8,0.7c0.2,0.1,0.4,0.3,0.5,0.5c0.3,0.3,0.6,0.6,1,0.8C51.4,6.1,51.5,6.6,51.8,6.3L51.8,6.3z M47.3,4.3
	c-0.1,0-0.1-0.1-0.2-0.1c-0.3-0.1-0.7-0.3-1-0.4c-0.2-0.1-0.5,0-0.8,0c0.2,0.2,0.5,0.4,0.8,0.6c0.2,0.1,0.4,0.1,0.6,0.2
	c0.1,0,0.2,0.1,0.3,0.1C47.1,4.6,47.2,4.5,47.3,4.3z M19.9,10.4c0-0.6-0.4-1.1-0.6-1.6c-0.3-0.8-0.5-1.6-0.7-2.4
	c-0.1-0.5,0.2-1,0.2-1.4C19,4.6,19,4.2,19.1,3.8l-0.5-0.5c0,0-0.1,0-0.1,0C18,3.7,17.5,4,16.9,4.3c-0.6,0.3-1.1,0.7-1.7,1
	c-0.2,0.1-0.4,0-0.4-0.1c-0.1,0.1-0.3,0.2-0.4,0.4c-0.1,0.1-0.2,0.1-0.3,0.1c-0.1,0-0.3,0-0.4,0.1C13.1,6.1,12.6,6.7,12,7
	c-0.8,0.4-1.5,0.7-1.9,1.7C9.7,9.8,9,10.9,8.4,12C8.1,12.5,7.8,13,7,13c-0.5,0-0.9,0.3-1.1,0.9c-0.1,0.5-0.3,1.1-0.6,1.6
	c-0.5,1.2-1.1,2.3-1.6,3.5c-0.5,1.2-0.9,2.4-1.5,3.5c-0.9,1.9-1.4,3.8-1.3,5.9c0,0.6,0.1,1.2,0,1.7c-0.1,0.9-0.2,1.7-0.4,2.6
	c0,0.1,0,0.3,0,0.4c0.1,0,0.1,0.1,0.1,0.2c0,0.1,0,0.2,0,0.3c0.2-0.4,0.4-0.8,0.6-1.1c0.6-0.8,1.3-1.4,1.9-2.1c0.8-1,1.7-1.6,2.8-2
	c0.3-0.1,0.7-0.1,1.1-0.2c0.6-0.2,1.1-0.4,1.7-0.6c1.1-0.3,1.4-1.2,2-2c0.5-0.7,0.8-1.5,1.3-2.1c0.3-0.5,0.8-0.8,1.2-1.2
	c0.5-0.4,0.9-0.8,1.4-1.1c0.5-0.4,1.1-0.7,1.5-1.2c0.3-0.3,0.4-0.9,0.6-1.3c0.3-0.6,0.6-1.3,1-1.9c0.4-0.6,0.8-1.2,1.1-1.8
	c0.3-0.6,0.5-1.2,0.6-1.8C19.9,12.3,20,11.3,19.9,10.4L19.9,10.4z"/>
<path class="st2" d="M62.5,51.8c-0.2,1.7-0.5,3.4-0.8,5c-0.2,1.1-0.5,2.2-0.8,3.4c-0.3,1.2-0.6,2.5-1,3.7c-0.2,0.7-0.4,1.3-0.2,2
	c0,0.1-0.2,0.5-0.3,0.5c-1.2,0.4-2.5,0.7-3.7,1c-0.1,0-0.3-0.2-0.3-0.2c0.3-2.2,0.7-4.4,0.9-6.5c0.2-1.8,0.4-3.7,0.5-5.6
	c0.1-1.3,0.2-2.6,0.3-3.9c0.1-0.7,0.3-1.3,0.4-2c0-0.3-0.1-0.6,0-0.9c0-0.1,0.1-0.3,0.1-0.4c0-0.1,0-0.3,0-0.3L55.5,46
	c-0.5-0.3-1-0.6-1.4-0.8c1.7-0.5,3.6-0.9,5.4-1.4c0.7,0.4,1.4,0.7,2.1,1.1c0.2,0.1,0.3,0.5,0.5,0.7c0.1,0.2,0.4,0.2,0.5,0.4
	c0.6,0.8,1,1.7,0.8,2.7c0,0.1,0,0.2-0.1,0.2C62.5,49.8,62.7,50.8,62.5,51.8L62.5,51.8z M42.8,41.8c0.9,0.7,1.9,1.3,2.8,2
	c0.1,0,0.1,0.2,0.1,0.2c0,0.1-0.2,0.1-0.2,0.1c-1.7,0.3-3.4,0.6-5.1,1c-0.4,0.1-0.9,0.9-0.9,1.5c-0.4,2.5-0.7,5-1,7.5
	c-0.2,1.9-0.2,3.8-0.3,5.7c-0.1,1.3-0.2,2.6-0.2,3.9c-0.5-0.5-1.1-0.9-1.6-1.3c-0.3-0.3-0.7-0.4-1.1-0.6c-0.2-0.1-0.4-0.4-0.4-0.5
	c0.2-0.7-0.6-0.6-0.7-0.9c-0.1-0.2-0.2-0.4-0.2-0.5c0.1-1.6,0.1-3.2,0.3-4.8c0.1-0.9,0.5-1.8,0.5-2.8c-0.1-2.4-0.2-4.9-0.3-7.3
	c0-0.4,0-0.9,0.1-1.3c0.1-0.2,0.3-0.5,0.5-0.6c0.6-0.2,1.1-0.4,1.7-0.6c0.7-0.1,1.3-0.2,2-0.3C40,42.3,41.4,42.1,42.8,41.8z"/>
<path class="st1" d="M18.4,25.9c-0.3,0.8-0.5,1.5-0.7,2.3c-0.3,1.1-0.8,2-1.5,2.8c-0.3,0.4-0.7,0.9-1.1,1.2c-0.6,0.5-1.3,1-1.8,1.5
	c-0.5,0.5-1,1-1.5,1.4c-0.5,0.3-1,0.5-1.5,0.7c-0.5,0.2-1,0.4-1.5,0.6c-0.4,0.2-2,0.3-2.2-0.1c-0.2-0.3-0.2-1.1,0-1.3
	c1.1-0.9,2.2-1.8,3.4-2.6c0.5-0.3,1.2-0.4,1.8-0.7c0.3-0.1,0.5-0.3,0.7-0.5c0.6-0.7,1.2-1.4,1.6-2.2c0.8-1.4,1.5-2.8,2.3-4.2
	c0.2-0.4,0.6-0.8,1-1c0.1-0.1,0.7,0.2,0.8,0.5C18.2,24.8,18.3,25.3,18.4,25.9L18.4,25.9z M29.1,66.4c0.2-0.2,0.5-0.3,0.7-0.5
	c0.1-0.1,0.4-0.2,0.4-0.3c-0.1-0.9-0.2-1.8-0.5-2.7c-0.1-0.2-0.5-0.5-0.7-0.5c-0.6,0.1-1.2,0.2-1.7,0.5c-0.3,0.1-0.6,0.4-0.7,0.7
	c-0.2,0.6-0.1,1.2-0.2,1.8c0,0.1,0.1,0.2,0.1,0.3C27.3,66,28.2,66.2,29.1,66.4z"/>
<path class="st2" d="M56.6,42.4c-0.9,0.2-1.8,0.4-2.9,0.7c0.4-0.5,0.8-1,1.2-1.4C55.5,41.9,56.1,42.1,56.6,42.4z M40.9,66.4
	c0-0.9-0.1-1.8-0.1-2.8c0-1.5,0.1-3.1,0.2-4.6c0.2-3,0.5-5.9,0.8-8.9c0.1-0.7,0-1.3,0.1-1.9c0-0.2,0.3-0.4,0.4-0.6
	c0.3-0.9,1.2-0.5,1.7-0.6c0.7-0.2,1.4-0.1,2.1-0.3c1.2-0.2,2.3-0.6,3.5-0.8c0.4-0.1,0.9,0.1,1.2,0.4c1,0.7,1.9,1.3,2.8,2.1
	c0.5,0.4,0.5,1.1,0.5,1.7c-0.2,1.8-0.2,3.6-0.4,5.5c-0.2,2.2-0.5,4.5-0.7,6.7c-0.2,1.8-0.4,3.7-0.6,5.6c0,0.3-0.1,0.4-0.5,0.4
	c-1.1,0-2.1,0.2-3.2,0.3c-0.9,0.1-2.2,0.7-3.2,0.7c-0.8,0-1.1-0.4-1.9-0.4c-1,0-1.3-1.4-2.1-1.8C41.4,66.7,41.2,66.5,40.9,66.4z"/>
<path class="st3" d="M47,40.6c-0.5-0.6-1.1-1.1-1.6-1.7c-0.4-0.5-0.6-1.1-0.8-1.7c-0.2-0.9-0.4-1.7-0.4-2.6c0-0.3,0.5-0.9,0.9-1
	c0.7-0.2,1.2,0.3,1.4,0.9c0.2,0.7,0.4,1.5,0.6,2.2c0.1,0.5,0.9,3.1,0.9,3.6C47.6,40.5,47.3,40.6,47,40.6z M54.9,34.2
	c-0.3-0.1-1,0-1.1,0.2c-0.6,1-1,2.1-1.4,3.3c-0.3,0.8-0.4,1.6-0.6,2.4c0,0,0,0,0.1,0c0.1,0.1,0.2,0.1,0.3,0.2c0.1-0.1,0.3,0,0.4,0.1
	c0.1,0.1,0.2,0.1,0.2,0.2c0.3-0.5,0.5-0.9,0.8-1.3c0.9-1.3,1.5-2.7,1.8-4.3C55.3,34.8,55.1,34.3,54.9,34.2z"/>
<path class="st2" d="M47,40.6c0.3-0.1,0.6-0.1,1-0.2l0.4,1.4c-0.1,0-0.2,0.1-0.2,0.1C47.8,41.4,47.4,41,47,40.6L47,40.6z"/>
<path class="st4" d="M51.8,6.3c-0.4,0.4-0.5-0.2-0.6-0.3c-0.4-0.2-0.7-0.5-1-0.8C51.4,5,51.7,5.2,51.8,6.3z"/>
<path class="st2" d="M51.9,39.9c0.3,0,0.5,0.8,0.9,0.8c-0.3,0.4-0.6,0.8-0.9,1.2c0,0.1-0.1,0.1-0.2,0.1c0-0.1-0.1-0.1,0-0.2
	C51.6,41.5,51.8,40.3,51.9,39.9L51.9,39.9z"/>
<path class="st5" d="M40.9,66.4c0.2,0.2,0.5,0.4,0.7,0.6c-0.1,0.1-0.3,0.2-0.4,0.1c-0.1,0-0.4-0.1-0.4-0.2
	C40.8,66.7,40.9,66.5,40.9,66.4z"/>
<path class="st1" d="M54.2,7.7L54.2,7.7C54.2,7.7,54.2,7.7,54.2,7.7z"/>
<path class="st0" d="M19.7,3.1h0.1C19.8,3.1,19.8,3.1,19.7,3.1L19.7,3.1z"/>
<path class="st6" d="M47.3,4.3c-0.1,0.1-0.2,0.3-0.3,0.4c0,0-0.2-0.1-0.3-0.1c-0.2-0.1-0.5-0.1-0.6-0.2c-0.3-0.2-0.5-0.4-0.8-0.6
	c0.3,0,0.5-0.1,0.8,0c0.4,0.1,0.7,0.3,1,0.4C47.2,4.2,47.2,4.3,47.3,4.3z M46.7,4.2C46.7,4.2,46.6,4.2,46.7,4.2
	C46.6,4.3,46.6,4.3,46.7,4.2L46.7,4.2L46.7,4.2L46.7,4.2z"/>
<path class="st0" d="M7.3,28.3C7.3,28.3,7.3,28.3,7.3,28.3C7.3,28.3,7.3,28.3,7.3,28.3z"/>
<path class="st1" d="M46.7,4.2L46.7,4.2L46.7,4.2C46.6,4.3,46.6,4.3,46.7,4.2C46.6,4.2,46.7,4.2,46.7,4.2z"/>
<g>
	<path class="st7" d="M36.5,67.4c-0.4,0-0.8,0.1-1.2,0.1c-1,0-1.9-0.1-2.8-0.2c-0.5,0-0.9,0-1.3,0c-1.1-0.2-2.2-0.4-3.4-0.5
		c-0.6-0.1-1.3-0.2-1.9-0.3c-0.6-0.1-1.2-0.3-1.8-0.5c-0.5-0.1-2.8-0.7-3.5-0.9c-0.5-0.2-1.1-0.3-1.6-0.5c-0.8-0.3-1.6-0.7-2.4-1.1
		c-0.9-0.5-1.6-1-2.4-1.5c-0.5-0.3-0.9-0.7-1.2-1.1c-0.8-0.7-1.5-1.3-2.2-2.1c-0.7-0.8-1.3-1.6-1.9-2.4C8,55.2,7.2,54,6.5,52.8
		c-1.2-1.9-2.4-3.9-3.1-6.1c-0.7-2-1.4-4-2-6c-0.5-1.6-0.8-3.2-1.1-4.9c-0.2-0.9-0.2-1.8-0.2-2.7c-0.1-1.5-0.1-3.1,0.2-4.6
		c0.2-1,0.2-2,0.4-2.9c0.2-1.2,0.5-2.5,0.9-3.7c0.5-1.5,1-3.1,1.6-4.5c0.4-1.1,1-2,1.6-3c0.5-0.8,1-1.6,1.6-2.4
		c0.5-0.6,1-1.1,1.5-1.7C8.3,9.8,8.7,9.4,9,9.1c0.6-0.6,1.1-1.1,1.7-1.6c0.6-0.5,1.1-1,1.7-1.3c0.7-0.5,1.5-1,2.3-1.4
		c0.7-0.4,1.4-0.8,2.1-1.1c0.4-0.2,0.9-0.3,1.4-0.5c0.8-0.3,1.5-0.6,2.3-0.8C21.4,2.1,22.2,2,23,1.8c0.4-0.1,0.8-0.3,1.1-0.4
		C25.1,1.2,26,1,26.9,0.9c0.7-0.1,1.4-0.2,2-0.3c0.8-0.1,1.5-0.2,2.3-0.2c0.1,0,0.1-0.1,0.2-0.1h2c0.1,0,0.3,0.1,0.4,0.1
		c0.7,0,1.4,0,2.1,0.1c0.9,0.1,1.7,0.2,2.6,0.3c1.2,0.1,2.3,0.3,3.4,0.6c0.8,0.2,1.6,0.6,2.4,0.7c0.8,0.1,1.4,0.5,2.2,0.7
		c0.7,0.1,1.4,0.5,2,0.8C49.8,4,51,4.6,52.3,5.3c1.2,0.7,2.4,1.6,3.6,2.4c1.1,0.7,2.1,1.6,3,2.6c0.8,0.9,1.5,1.8,2.2,2.8
		c0.9,1.3,1.7,2.7,2.5,4.1c0.7,1.2,1.3,2.4,1.8,3.7c0.6,1.7,1.2,3.4,1.6,5.1c0.3,1.4,0.5,2.8,0.7,4.2c0.1,0.5,0,1,0.2,1.4
		c0.1,0.4-0.2,0.8,0.1,1.2C68,33,68,33.4,68,33.7c0,0.9,0.1,1.7,0.1,2.6c0,0.9-0.1,1.8-0.1,2.7c0,0.3-0.1,0.5,0,0.8
		c0.1,0.5,0.3,0.9,0.5,1.3c0.2,0.8,0.5,1.5,0.6,2.2c0.2,1.2,0.3,2.3,0.4,3.5c0,0.1,0.1,0.3,0.1,0.4v0.3c-0.1,0.3-0.1,0.7-0.2,1
		c-0.1,0.6-0.1,1.2-0.3,1.8c-0.2,0.9-0.5,1.8-1,2.7c-0.6,1-1.1,2-1.6,2.9c-0.4,0.7-1,1.2-1.5,1.8c-0.5,0.5-1,0.9-1.4,1.3
		c-0.2,0.2-0.4,0.3-0.6,0.4c-0.7,0.5-0.9,1.2-1.1,1.9c-0.4,1.4-0.8,2.9-1.1,4.4c-0.1,0.3-0.2,0.7-0.3,1c-0.2,0.6-0.8,0.6-1.2,0.8
		c-0.6,0.2-1.1,0.3-1.7,0.4c-1,0.2-1.9,0.4-2.8,0.6c-0.6,0.1-1.2,0.3-1.8,0.4c-1.1,0.2-2.1,0.3-3.2,0.5c-1.2,0.2-2.4,0.3-3.6,0.4
		c-0.3,0-0.5,0-0.8,0.1c-0.3,0.1-0.6,0.1-1-0.2c-0.4-0.3-0.9-0.4-1.3-0.7c-0.5-0.3-1-0.7-1.5-1c-0.4-0.3-0.8-0.5-1.2-0.8
		C40,67,40,67,39.8,67.1c-0.3,0.1-0.7,0.1-1,0.1c-0.4,0-0.8,0.1-1.2,0.1C37.3,67.3,36.9,67.4,36.5,67.4c0.1,0,0-0.1,0-0.1
		C36.5,67.3,36.5,67.4,36.5,67.4L36.5,67.4z M60.1,58.9c-0.1,0-0.2,0-0.3,0c-0.3,0.1-0.5,0-0.7-0.2c-0.2-0.2-0.2-0.5,0.1-0.6
		c0.5-0.3,1-0.6,1.4-0.9c0-0.1,0-0.1-0.1-0.2c-0.1,0-0.2,0-0.4-0.1c-0.2-0.1-0.5-0.1-0.7-0.2c-0.3-0.2-0.1-0.9,0.3-1.1
		c0.3-0.2,0.7-0.3,1-0.5c0.3-0.2,0.8-0.4,0.8-0.7c0.3-0.9,0.5-1.7,0.6-2.6c0.1-0.6,0.2-1.3,0.3-1.9c0.1-0.8,0.2-1.6,0.4-2.4
		c-0.5,0.1-1,0.3-1.4,0.4c-0.1,0-0.2,0-0.3,0c-0.3,0-0.6,0-0.9,0c-0.4,0.1-0.7,0.3-1.1,0.3l-2.5,0.5c-0.3,0.1-0.6,0.2-0.8,0.1
		c-0.5-0.2-1,0.1-1.4,0.2c-0.2,0-0.4,0.1-0.7,0.2c-0.5,0.1-1,0.3-1.5,0.4c-0.6,0.1-1.2,0.2-1.8,0.3c-0.2,0-0.3,0-0.5,0.1
		c-0.6,0.1-1.2,0.3-1.7,0.5c-1,0.2-1.1,0.2-1.1,1c-0.1,1.1-0.3,2.2-0.4,3.3c0.4,0,0.7,0,1.1,0.1c0.1,0,0.3,0.3,0.3,0.4
		c-0.3,0.5-0.8,0.8-1.3,1c-0.3,0.1-0.4,0.1-0.3,0.4h0.7c0.8,0,1.5-0.1,2.2,0c0.2,0,0.5,0.3,0.5,0.4c0,0.2-0.1,0.5-0.3,0.6
		c-0.5,0.3-1.1,0.6-1.8,0.5c-0.1,0-0.2,0.1-0.4,0.2c0.1,0,0.3,0.2,0.4,0.1c0.9-0.3,1.8-0.1,2.7,0c0.3,0,0.4,0.4,0.2,0.7
		c-0.2,0.4-0.7,0.5-1.1,0.5c-0.6,0.1-1.2,0.1-1.8,0.1c-0.2,0-0.7-0.1-0.6,0.4c0.6,0.1,1.2,0.1,1.9,0.2c0.2,0,0.6,0.2,0.7,0.4
		c0.1,0.1-0.1,0.5-0.3,0.6c-0.4,0.2-0.7,0.3-1.2,0.3c-0.8,0.1-1.4,0-2.2-0.2c-0.1,0-0.3,0.1-0.4,0.2c-0.1,0.2-0.1,0.5-0.1,0.8
		c0,0.5,0,1-0.1,1.5c-0.1,0.6-0.2,1.2-0.2,1.9c-0.1,0.9-0.1,1.8-0.2,2.7c0.3,0,0.6-0.1,0.9-0.1c1.1-0.2,2.2-0.4,3.3-0.6
		c0.3-0.1,0.6,0,1-0.1c1.3-0.2,2.6-0.4,3.9-0.6c0.4-0.1,0.8-0.1,1.2-0.2c0.9-0.3,1.8-0.6,2.8-0.9c0.4-0.1,0.8-0.3,0.9-0.8
		c0.1-0.4,0.2-0.9,0.2-1.3c0.2-0.8,0.3-1.6,0.5-2.4c0.1-0.5,0.2-1,0.3-1.4c-0.4,0-0.7-0.1-1-0.1c-0.1,0-0.3-0.2-0.2-0.2
		c0.1-0.3,0.3-0.5,0.5-0.7c0.1-0.1,0.4-0.1,0.6-0.1C60.2,59.2,60.2,58.8,60.1,58.9C60.2,58.8,60.2,58.8,60.1,58.9L60.1,58.9z
		 M42.5,3.1c-0.1,0-0.1,0-0.2,0c-1-0.3-2-0.6-3.1-0.8c-0.8-0.2-1.5-0.3-2.3-0.4c-0.6-0.1-1.2-0.1-1.7-0.1c-1.2-0.1-2.4-0.1-3.6-0.1
		c-0.3,0-0.6,0.1-0.8,0.2c-0.3,0.1-0.7,0.1-1,0.1c-0.1,0-0.2-0.1-0.3-0.1c0,0,0.1,0,0.1,0v0c0,0-0.1,0-0.1,0C29.4,1.9,29.3,2,29.3,2
		c-0.5,0-0.9,0.2-1.3,0.3c-0.6,0.1-1.1,0.2-1.7,0.3c-0.7,0.2-1.3,0.3-2,0.5c-0.6,0.2-1.2,0.3-1.8,0.4c-0.3,0.1-0.6,0.1-0.8,0.2
		c-0.2,0.1-0.3,0.1-0.5,0.2c-0.3,0.1-0.7,0.2-1,0.3c-0.7,0.3-1.4,0.6-2.1,0.8c-0.6,0.2-1.1,0.4-1.6,0.7C15.8,6,15.4,6.3,15,6.6
		c-1.1,0.7-2.2,1.4-3.2,2.3c-0.7,0.7-1.3,1.3-2,2c-0.8,0.8-1.5,1.6-2.2,2.5c-0.7,0.9-1.3,1.9-1.9,2.9c-0.5,0.8-0.9,1.7-1.2,2.5
		c-0.3,0.7-0.5,1.3-0.7,2c-0.2,0.8-0.4,1.5-0.6,2.3c-0.2,0.9-0.4,1.8-0.6,2.8c-0.2,0.8-0.3,1.5-0.4,2.3c-0.1,1.1-0.3,2.1-0.4,3.1
		c-0.1,0.7-0.1,1.3-0.1,2c0,0.5,0.1,1,0.1,1.5c0.1,0.8,0.1,1.7,0.2,2.5C2.5,39,2.9,40.5,3.4,42c0.6,1.7,1.2,3.3,1.9,4.9
		c0.8,2,1.9,3.8,3.2,5.6c0.7,1,1.4,1.9,2.2,2.9c0.5,0.7,1,1.3,1.6,1.9c0.7,0.8,1.5,1.4,2.3,2.1c0.5,0.4,1,0.9,1.5,1.2
		c0.8,0.6,1.6,1.1,2.4,1.6c0.5,0.3,1,0.7,1.5,0.9c0.5,0.3,1.1,0.5,1.7,0.7c0.5,0.2,1.1,0.4,1.6,0.6s1.1,0.3,1.7,0.5l3,0.7
		c0.5,0.1,1,0.2,1.5,0.2c0.7,0.1,1.5,0.2,2.2,0.3c0.6,0.1,1.2,0.1,1.8,0.2c0.6,0,1.2,0,1.8,0h3.6c-0.8-0.8-1.6-1.5-2.5-2.3
		c-0.7-0.6-1.3-1.1-2-1.6c-0.4-0.3-0.7-0.7-0.6-1.3c0,0,0-0.1,0-0.2c-0.6-0.1-1.2-0.2-1.8-0.2c-0.4-0.1-0.9-0.1-1.3-0.2
		c-0.6-0.1-1.1-0.3-1.7-0.5c-0.8-0.3-1.7-0.6-2.5-0.9c-1.1-0.5-2.2-1.1-3.3-1.7c-1.4-0.8-2.8-1.6-3.9-2.8c-0.8-0.9-1.5-1.9-2.2-2.9
		c-0.2-0.3-0.2-0.3,0.1-0.6c0,0,0-0.1,0.1-0.1c0.1-0.9,0.9-1.4,1.4-2c0.2-0.2,0.5-0.1,0.6,0.2c0.2,0.3,0.3,0.5,0.6,0.7
		c0.5,0.5,1.1,0.9,1.6,1.4c0.8,0.7,1.5,1.5,2.3,2.1c1.4,1,3,1.8,4.6,2.5c0.5,0.2,1,0.5,1.5,0.6c0.8,0.2,1.5,0.5,2.3,0.6
		c0.5,0.1,0.9,0.1,1.4,0.2v-1.5c0-1.1,0-2.2,0.1-3.4c0-0.9,0.2-1.8,0.2-2.7c0.1-0.9,0-1.7,0.1-2.6c0-1,0.1-2,0.1-3.1
		c0-0.7,0.1-1.4,0.1-2.1c3.3-0.6,6.5-1.3,9.5-1.8c0.7,0.6,1.2,1.1,1.8,1.6c-3.1,0.5-6.1,0.9-9.1,1.4c0.2,0.1,0.4,0.2,0.7,0.3
		c0.1,0,0.2,0.1,0.3,0.1c0.2,0.2,0.4,0.4,0.7,0.6c1,0.6,1.9,1.1,2.9,1.6c0.6,0.3,1.2,0.7,1.8,1c0.7,0.4,1.3,0.9,1.9,1.3
		c0.2,0.2,0.5,0.3,0.7,0.5c0.1,0.1,0.2,0.1,0.3,0.2c0.4,0.2,0.8,0.6,1.3,0.5c0.7-0.1,1.4-0.4,2.1-0.5c0.3-0.1,0.6-0.2,0.9-0.2
		c1,0,2-0.3,3-0.5c0.8-0.2,1.6-0.3,2.4-0.5c0.9-0.1,1.7-0.2,2.6-0.4c1.2-0.3,2.5-0.5,3.7-0.6c0.2,0,0.5-0.1,0.7-0.2
		c-2.5-1.6-4.9-3.2-7.6-4.4c0.3-0.4,0.6-0.8,0.8-1.1c0.5,0.3,1,0.5,1.4,0.8s1,0.5,1.4,0.8c1.2,0.7,2.4,1.4,3.5,2.2
		c0.7,0.5,1.5,0.9,1.9,1.7c0.1,0.3,0.4,0.4,0.6,0.7c0,0,0.1,0,0.1-0.1c0-0.3,0-0.5,0.1-0.8c0.3-1.3,0.7-2.5,1-3.7c0.2-1,0.3-2,0.4-3
		c0-0.4,0.1-0.8,0.1-1.2c0-0.4,0.1-0.9,0.1-1.3c0-0.7,0-1.4-0.1-2.1c0-0.8-0.1-1.6-0.1-2.3c-0.1-0.8-0.2-1.5-0.3-2.3
		c-0.1-0.6-0.1-1.3-0.2-1.9c-0.2-1-0.4-1.9-0.7-2.9c-0.5-1.5-1-3-1.6-4.5c-0.3-0.8-0.7-1.6-1.1-2.3c-0.7-1.2-1.4-2.4-2.1-3.6
		c-0.5-0.7-1-1.4-1.5-2.1c-0.7-0.8-1.3-1.6-2-2.3c-0.8-0.8-1.7-1.4-2.6-2c-0.9-0.7-1.8-1.3-2.8-1.9c-1.2-0.7-2.4-1.3-3.6-1.8
		c-1.6-0.6-3.2-1.1-4.8-1.6C42.4,3.2,42.5,3.2,42.5,3.1C42.5,3.1,42.5,3.1,42.5,3.1L42.5,3.1z M35.2,57.4c0.3,0.1,0.7,0.2,1,0.2
		c1.2,0.1,2.4,0.1,3.5,0.1c0.7,0,3.2-0.5,3.5-0.9c0.6-0.5,1.2-1,1.8-1.4c0.2-0.2,0.5-0.2,0.6-0.6c0.1-1.3,0.3-2.6,0.4-3.9
		c0-0.1,0-0.2-0.1-0.3c-0.2-0.3-0.5-0.5-0.7-0.7c-0.3-0.2-0.7-0.4-1-0.7c-0.2-0.2-0.4-0.4-0.6-0.5c-0.7-0.4-1.3-0.8-2-1.2
		c-0.8-0.5-1.5-1-2.3-1.4c-1-0.6-2.1-1.2-3.1-1.7c-0.3-0.2-0.6-0.3-1-0.5C34.9,48.4,35.4,52.9,35.2,57.4z M44.1,68.3
		c0-0.3,0.1-0.7,0.1-1c0.1-1.3,0.3-2.7,0.4-4c0.1-0.6,0.1-1.1,0.1-1.6c0-0.1-0.1-0.3-0.3-0.3c-0.4-0.1-0.9-0.2-1.3-0.2l-4.3-0.1
		c-1.2,0-2.4,0-3.6-0.1v0.5c0.2,0,0.4,0.1,0.4,0.2c0.1,0.1,0.3,0.1,0.4,0.2c0.5,0.4,1.1,0.7,1.5,1.1c0.7,0.6,1.4,1.3,2.1,1.9
		c0.3,0.3,0.6,0.6,0.9,0.8c0.3,0.2,0.6,0.4,0.9,0.7c0.4,0.3,0.8,0.7,1.2,1c0.3,0.3,0.7,0.5,1.1,0.7C43.7,68.2,43.9,68.3,44.1,68.3z
		 M63.7,52.9c0,0,0.1,0,0.1,0c0.2-0.3,0.4-0.7,0.6-1c0.2-0.4,0.4-0.7,0.6-1.1c0.1-0.3,0.2-0.7,0.3-1c0,0-0.1,0-0.1,0
		c-0.1,0.1-0.1,0.2-0.2,0.3c-0.4,0.7-0.8,1.5-1.2,2.2C63.8,52.5,63.8,52.7,63.7,52.9z M36.6,67.4L36.6,67.4L36.6,67.4z"/>
	<path class="st7" d="M31.5,27.4c0.2-0.5,0.4-0.9,0.5-1.2c0.1-0.4,0.3-0.3,0.6-0.2c0.5,0.2,0.9,0.5,1.4,0.7c0.6,0.2,1.2,0.4,1.7,0.5
		c0.6,0.1,1.2,0,1.8-0.1c0.1,0,0.2,0,0.3,0c1.4-0.1,2.7-0.6,3.7-1.6c0.3-0.4,0.6-0.8,0.9-1.2c0.1-0.2,0.2-0.4,0.4-0.6
		c0.1-0.1,0.4-0.1,0.6,0c0.3,0.1,0.5,0.3,0.7,0.5c0.1,0.1,0.1,0.3,0.1,0.3c-0.3,0.6-0.5,1.1-1,1.6c-0.6,0.7-1.2,1.3-2,1.8
		c-1,0.6-2,0.9-3.1,1c-0.6,0-1.1,0.1-1.7,0.1c-0.5,0-1-0.1-1.4-0.2c-0.6-0.2-1.2-0.4-1.9-0.6C32.5,27.9,32,27.6,31.5,27.4L31.5,27.4
		z M26.6,24.8c-0.9,0-1.6-0.3-2.1-1c-0.1-0.2-0.2-0.6-0.2-0.9c0.1-0.7,0.1-1.4,0.8-1.9c0.3-0.2,0.6-0.3,0.9-0.4
		c0.8-0.1,1.6-0.3,2.2,0.3c0.4,0.4,0.7,0.8,0.7,1.4c0,0.4,0.1,0.9-0.2,1.3c-0.3,0.5-0.7,0.8-1.2,1C27.2,24.7,26.9,24.8,26.6,24.8z
		 M43.4,19.5c0-1.2,0.9-1.8,1.9-1.8c1-0.1,2.1,1.1,2.1,2c0,1.1-0.9,1.9-1.9,1.9C44.5,21.5,43.3,20.7,43.4,19.5z M47.7,39.5
		c0.2,0.5,0.3,1,0.5,1.5c-0.1,0-0.2,0-0.2,0.1c-0.2,0.2-0.4,0.1-0.6-0.1c-0.4-0.4-0.8-0.9-1.2-1.3C46.7,39.7,47.2,39.6,47.7,39.5z
		 M52.6,40.9c-0.2-0.2-0.6-0.4-0.8-0.6c-0.1-0.2,0.1-0.6,0.1-0.8c0-0.4,0.4-0.2,0.6-0.4l0.8,0.7C53,40.2,52.8,40.6,52.6,40.9
		L52.6,40.9z M60.2,58.8L60.2,58.8C60.2,58.9,60.2,58.9,60.2,58.8L60.2,58.8z"/>
</g>
</svg>
