<?xml version="1.0" encoding="utf-8"?>
<!-- Generator: Adobe Illustrator 23.0.0, SVG Export Plug-In . SVG Version: 6.00 Build 0)  -->
<svg version="1.1" id="Calque_1" xmlns="http://www.w3.org/2000/svg" xmlns:xlink="http://www.w3.org/1999/xlink" x="0px" y="0px"
	 viewBox="0 0 59 70" style="enable-background:new 0 0 59 70;" xml:space="preserve">
<style type="text/css">
	.st0{fill:#8AB0B7;}
	.st1{fill:#7B7089;}
	.st2{fill:#C5BCCF;}
	.st3{fill:#41364F;}
</style>
<path class="st0" d="M14,19.9h0.3c0.1,0.1,0,0.1,0,0.2c-0.1,0-0.2,0-0.3,0c0,0-0.1,0.1-0.1,0.2l0.5,0.1v-0.2h0.3
	c-0.1,0.1-0.1,0.3-0.1,0.4l0.3-0.1c0,0.1,0,0.2,0.1,0.2c0.1,0,0.2,0,0.3-0.1c0.3-0.2,0.3-0.2,0.5,0c0.4,0.2,0.7,0.3,1.1,0.1
	c0,0,0.1,0,0.2,0c0.4,0.1,0.9,0.2,1.3,0.4c0.3,0.1,0.4,0.1,0.6-0.2c0,0,0.1-0.1,0.2-0.1c0.2-0.1,0.4-0.1,0.5-0.1
	c0.6,0,1.2,0,1.8,0.1c0.1,0,0.2,0,0.3,0c0.3,0.1,0.5,0,0.8,0c0.3,0,0.5,0,0.7,0.1c0,0,0,0,0,0c0.2,0,0.3-0.1,0.4-0.1
	c0.3,0,0.6,0,0.9,0c0.3,0,0.5,0.1,0.8,0c0.2,0,0.4,0,0.6,0c0.2,0.1,0.4,0,0.5,0c0.3,0,0.5-0.1,0.8,0c0.2,0.1,0.4,0.1,0.5,0.1
	c0.3,0,0.6,0.1,0.8-0.1h0.1c0.1,0,0.2,0,0.3,0c0.4,0,0.7-0.1,1.1,0c0.1,0,0.3,0,0.4,0.1c0.2,0.1,0.4,0.1,0.5,0c0.1,0,0.2-0.1,0.2,0
	c0.1,0.2,0.3,0,0.3,0c0.2,0.1,0.3,0,0.4-0.1s0.2-0.2,0.4-0.1c0.3,0.1,0.6,0.2,1,0.3c0.1,0,0.3,0.1,0.4,0.1c0.1,0,0.2,0,0.2,0.2
	c0,0.1,0.2,0.1,0.3,0.2c0.1,0.2,0.3,0.2,0.4,0.1c0.3-0.2,0.7-0.2,1.1-0.2c0,0,0.1,0,0.1,0c0,0.1,0,0.2,0,0.2c0.1,0,0.2,0,0.3,0
	c0.1,0.1,0,0.2,0.1,0.3c0.1,0,0.1,0,0.2,0c0,0.1,0,0.3,0.1,0.4c0.1,0.2,0.3,0.4,0.1,0.6c-0.1,0.1-0.1,0.2-0.1,0.3c0,0,0.1,0,0.1,0.1
	c0,0,0,0.1,0,0.1c-0.4-0.2-0.5,0.3-0.9,0.3c-0.2,0-0.3,0.2-0.5,0.1c0,0-0.1,0.1-0.1,0.1c0.2,0.2-0.1,0.2-0.1,0.2
	c-0.1,0-0.2,0.1-0.3,0.1c0,0,0.1,0.1,0.1,0.1c-0.2,0.1-0.4,0.2-0.5,0.2c-0.2,0-0.2,0.1-0.2,0.2c-0.1,0.2-0.3,0.3-0.4,0.4
	c0,0,0.1,0.1,0.1,0.2c-0.3,0-0.4,0.1-0.6,0.2c0.1,0,0.1,0,0.3,0.1c-0.1,0.1-0.2,0.1-0.3,0.1c0.1,0.2-0.1,0.1-0.1,0.2
	c-0.1,0.1-0.2,0.1-0.3,0.2l-0.3,0.1l0.1,0.1c-0.1,0.1-0.2,0.1-0.2,0.2c0.1,0.3-0.2,0.2-0.3,0.2c-0.1,0.3-0.1,0.3-0.4,0.3
	c0,0.1,0,0.3-0.1,0.4c-0.3,0.2-0.2,0.5-0.4,0.6c0.1,0.3-0.4,0.3-0.3,0.5c-0.2,0.1-0.1,0.4-0.3,0.4v0c-0.1,0.3-0.2,0.4-0.4,0.5
	c0,0.1,0.2,0.1,0,0.2c-0.2,0.1-0.1,0.4-0.3,0.5c0,0,0,0.1,0,0.1c0.1,0.1,0,0.2-0.1,0.3s-0.1,0.2-0.1,0.3c0,0.1-0.1,0.2,0,0.3
	c0,0.1-0.2,0-0.1,0.2c0,0-0.1,0.1-0.2,0.2c0,0,0,0.1,0,0.1c0,0.1,0,0.2-0.1,0.3c0,0.1-0.1,0.1-0.1,0.1c0,0.3,0,0.2-0.1,0.4
	c-0.1,0.1-0.1,0.2-0.1,0.3c0,0.1,0,0.2,0,0.3c-0.2,0.3-0.1,0.6-0.4,0.8c0.1,0.1,0.3,0.2,0.3,0.3c0.2,0.3,0.3,0.5,0.4,0.8
	c0,0.1,0.1,0.1,0.1,0.2c0.1,0.1,0.2,0.3,0.3,0.4c0,0.1,0.1,0.1,0.1,0.2c0.1,0.1,0.3,0.3,0.4,0.4c0.1,0.1,0.2,0.3,0.4,0.4
	c0.3,0.1,0.5,0.2,0.8,0.1c0.2-0.1,0.4-0.2,0.6-0.3c0.2-0.1,0.4-0.1,0.6-0.1c0,0,0.1,0,0.1,0c0.1,0.1,0.1,0.2,0.2,0
	c0.3,0,0.5-0.1,0.8,0c0.2,0,0.3,0,0.3-0.2c0.2-0.3,0.3-0.5,0.3-0.9c0-0.2,0-0.4,0.2-0.4c0.3-0.1,0.5-0.3,0.7-0.4
	c0.6-0.4,0.5-0.4,1.2-0.2c0.3,0.1,0.6,0.3,1,0.4c0.4,0.1,0.8,0.1,1.2,0.1c0.4,0,0.9-0.3,1.2-0.5c0.2-0.2,0.5-0.3,0.7-0.4
	c0.1,0,0.2-0.1,0.3-0.1v-0.1c-0.1-0.4-0.1-0.4,0.3-0.6c0.2-0.1,0.3-0.1,0.5-0.2c0.3-0.2,0.5-0.3,0.9-0.3c0.1,0,0.2,0,0.3-0.1
	c0.3-0.2,0.7-0.3,1-0.5c0.2,0.1,0.3,0.2,0.5,0.3c0.1,0,0.2-0.1,0.3-0.1c0.2-0.1,0.3-0.1,0.4,0c0.1,0.1,0.3,0.4,0.2,0.5
	c-0.2,0.2-0.1,0.4-0.1,0.6c0,0.2,0.1,0.3,0.1,0.4c0,0.1,0.1,0.3,0.1,0.4c0,0.2,0.2,0.4-0.1,0.4c0,0.1,0,0.2,0,0.3c0,0.2,0,0.3,0,0.5
	c0,0-0.1,0-0.1,0c-0.4,0-0.4,0.1-0.5,0.4c0,0.1,0,0.3,0,0.4c0,0.3-0.1,0.5-0.4,0.6c0.2,0.2,0.1,0.4,0.1,0.6
	c-0.1,0.6-0.3,1.3-0.4,1.9c-0.1,0.5-0.2,1.1-0.2,1.6c-0.1,0.4-0.1,0.9-0.1,1.3c-0.1,0.4,0,0.9-0.2,1.3c0,0.1-0.1,0.1-0.1,0.2
	c-0.1,0.1,0,0.2,0,0.3s-0.1,0.2-0.1,0.3c0,0.1-0.1,0.2-0.1,0.4c0,0.3-0.1,0.6-0.1,0.8c0,0.5,0,1.1-0.1,1.6c0,0.4-0.1,0.8-0.2,1.2
	c0,0.3,0,0.5-0.1,0.7c-0.2,0.4-0.1,0.9-0.2,1.3c0,0.4,0,0.7-0.1,1.1c0,0.1,0,0.3-0.1,0.4c-0.1,0.2-0.2,0.4-0.3,0.6
	c-0.1,0.2-0.2,0.2-0.3,0.1h-0.1l0,0l-0.2,0.2l-0.2-0.2c0,0.1,0,0.2,0,0.3c-0.2-0.2-0.3-0.1-0.4,0c-0.1,0.1-0.3,0.2-0.4,0.1
	c0,0,0,0-0.1,0c0,0,0,0.1,0,0.2c-0.2-0.1-0.3,0-0.4,0.1c-0.1,0-0.3,0.2-0.4,0c0,0-0.1-0.1-0.1-0.1c0,0,0,0,0,0l0.1,0.1
	c-0.2,0.1-0.4,0.1-0.6,0c0,0,0,0.1-0.1,0.1c-0.2-0.1-0.4-0.1-0.6-0.2c0,0.1,0,0.1,0,0.2c-0.1,0-0.1-0.1-0.2-0.1
	c-0.2,0-0.3,0-0.4-0.2c0-0.1-0.2-0.1-0.3-0.1v0.2c-0.1,0-0.3-0.1-0.4,0c-0.1,0.1-0.2,0.1-0.3,0.1s-0.2-0.2-0.3-0.3
	c-0.1,0.1-0.2,0.1-0.3,0.2c-0.1-0.1-0.2-0.2-0.3-0.3c-0.1,0-0.1,0-0.2,0.1c-0.1,0.2-0.2,0.1-0.4,0.1c-0.3-0.1-0.5-0.2-0.8-0.2
	c0,0.1,0,0.1-0.1,0.2c-0.2-0.1-0.3-0.2-0.4-0.4c-0.1,0.1-0.2,0.2-0.4,0.3c0-0.1-0.1-0.1-0.2-0.2c0,0-0.1,0.1-0.2,0.1
	c-0.1-0.1-0.2-0.1-0.2-0.1c0,0,0,0,0,0H33c0,0-0.1,0.1-0.1,0.1c-0.3,0-0.5,0.1-0.7,0c-0.1,0-0.3,0-0.4-0.2c-0.1,0.1-0.2,0.2-0.4,0.1
	c-0.3,0-0.6,0.1-1-0.1c0,0-0.1,0-0.2,0c0,0.2-0.2,0-0.3,0.2c0-0.3-0.2-0.4-0.4-0.4c0,0.1-0.1,0.1-0.1,0.2c-0.1-0.2-0.2-0.3-0.2-0.4
	c-0.4-0.1-0.7,0.2-1.1,0c-0.1,0.2-0.2,0-0.3,0c0,0.1,0,0.1-0.1,0.1c-0.1-0.1-0.2-0.1-0.2-0.2c0,0.1,0,0.1,0,0.1
	c-0.2,0.1-0.4,0-0.6-0.1c0,0.1,0,0.1,0,0.2c-0.1-0.1-0.2-0.2-0.2-0.3c-0.2,0.1-0.4-0.1-0.5,0.1c-0.3-0.1-0.6,0.1-0.8-0.2
	c0,0-0.1,0-0.2,0c-0.1,0-0.2,0-0.3,0c-0.3-0.1-0.5-0.2-0.8-0.3c0,0-0.1,0-0.1,0c-0.2,0.1-0.3,0.1-0.4,0c-0.1,0.1-0.2,0.1-0.4,0.2
	c0-0.3-0.3,0-0.4-0.2c-0.1,0.3-0.3,0.4-0.4,0.6c-0.2,0.2-0.4,0.3-0.6,0.2c-0.3-0.1-0.6-0.3-0.9-0.4c0,0-0.1-0.1-0.1-0.1
	c0.1-0.3-0.2-0.3-0.3-0.4c-0.3-0.2-0.5-0.3-0.7-0.6c0-0.1-0.1-0.1-0.2-0.1c-0.3-0.1-0.5-0.3-0.8-0.4c-0.5-0.2-0.7-0.5-1.1-0.8
	c-0.2-0.2-0.4-0.4-0.6-0.6c0-0.1-0.1-0.1-0.1-0.2c0.1,0,0.2-0.1,0.3-0.1c0,0,0-0.1-0.1-0.1c0,0,0.1-0.1,0.1-0.1
	c-0.2-0.2,0-0.2,0.1-0.2c0.1-0.1,0.2-0.2,0.3-0.2c0,0,0-0.1,0-0.2c0.1-0.1,0.2-0.1,0.4-0.2c0-0.1,0-0.1,0-0.2
	c-0.1-0.1,0.2-0.2,0-0.4c-0.2-0.2-0.2-0.4-0.4-0.5c-0.1,0-0.2-0.1-0.2-0.2c-0.1-0.1-0.3-0.1-0.4-0.1c-0.3,0.1-0.5,0.3-0.8,0.3
	c0,0,0,0-0.1,0c-0.1,0.1-0.2,0.2-0.3,0.2c-0.2,0.1-0.3,0.2-0.5,0.1c0-0.4-0.2-0.6-0.4-0.9c-0.1,0.1-0.2,0.1-0.3,0.1
	c-0.3-0.4-0.6-0.7-0.9-1.1c-0.4-0.5-0.8-0.9-1.1-1.4c-0.1-0.2-0.3-0.3-0.4-0.5c0.1-0.2,0.2-0.4,0.4-0.5c0.1-0.1,0.2-0.2,0.2-0.4
	c0-0.1-0.1-0.2-0.1-0.3c-0.2-0.1-0.4-0.1-0.4-0.4c-0.3,0.1-0.2-0.2-0.2-0.3C12,41.5,12,41.3,12,41.3c0-0.5,0-1.1,0-1.6v-3.8
	c0-0.5-0.1-1-0.1-1.5c0-0.4,0-0.9,0-1.4c0-0.2,0-0.3,0-0.5c0.1-0.4,0.1-0.8,0.2-1.2c0.1-0.5,0.2-1,0.2-1.5c0.1-0.4,0.1-0.7,0.1-1.1
	c0-0.4,0.1-0.7,0.1-1.1c0.1-0.6,0.1-1.1,0.2-1.7c0-0.4,0.1-0.7,0.1-1.1c0-0.1,0-0.3,0-0.4c0-0.4,0.1-0.7,0.1-1c0-0.2-0.1-0.5,0-0.7
	c0.1-0.4,0.1-0.8,0.1-1.1c0.1-0.4,0-0.8,0-1.2c0-0.2,0-0.4,0.1-0.6C13.6,20.1,13.7,19.9,14,19.9L14,19.9z"/>
<path class="st1" d="M45,34.6c0.3-0.1,0.6-0.2,0.9-0.3c0.4,0.3,0.3,0.7,0.3,1.1c0.1,0,0.3-0.1,0.4-0.1c0.2,0.3,0.4,0.5,0.7,0.8
	c0,0,0.1,0.1,0.1,0.1c0.3,0.2,0.6,0.4,0.9,0.5c0.3,0.2,0.5,0.4,0.7,0.6c0.4,0.4,0.7,0.9,1,1.3c0.2,0.3,0.3,0.5,0.4,0.8
	c0.4,0.5,0.4,1.1,0.7,1.6c0.1,0.3,0.3,0.5,0.4,0.7c0.3,0.6,0.4,1.3,0.5,2c0,0,0,0,0.1,0.1v2c-0.1,0.3-0.1,0.5-0.2,0.7
	c-0.1,0.4-0.2,0.7-0.3,1.1c-0.2,0.5-0.3,0.9-0.5,1.4c-0.2,0.4-0.4,0.7-0.5,1c-0.1,0.2-0.3,0.3-0.4,0.4c0,0-0.1,0.1-0.1,0.2
	c-0.2,0.1-0.4,0.2-0.5,0.3c-0.2,0.4-0.7,0.3-0.9,0.4c0,0-0.1,0-0.2,0h-0.2c-0.2,0.1-0.4,0.3-0.6,0.4c0,0-0.1,0.1-0.1,0.1
	c-0.2,0-0.2,0.1-0.3,0.2c0,0.1-0.1,0.2-0.2,0.3l0,0C47,52.4,47,52.4,47,52.3c-0.1,0-0.1,0.1-0.2,0.1h-0.1h0
	c-0.2,0.1-0.5,0.2-0.5,0.5C46,53,46,53.1,45.9,53.2c-0.1,0.1-0.2,0.2-0.3,0.2c-0.2,0-0.3,0-0.5-0.1c-0.1-0.1-0.2-0.2-0.2-0.3
	c0-0.5,0-1,0-1.5c0-0.2,0-0.3,0.1-0.5c0.1-0.5,0-1.1,0-1.6c0-0.3-0.1-0.5-0.1-0.7c-0.1-0.4-0.1-0.8-0.2-1.3c0-0.2-0.1-0.5-0.2-0.7
	c-0.1-0.4-0.1-0.7-0.2-1.1h-0.4c-0.2,0-0.3-0.1-0.3-0.2c0-0.2,0-0.4,0-0.6h-0.4c-0.2,0-0.3-0.1-0.3-0.2c0-0.3-0.1-0.6,0-0.9
	c0.1-0.3,0-0.5,0-0.8c0.2-0.4,0.1-0.9,0.2-1.3c0.1-0.4,0.1-0.9,0.1-1.3c0.1-0.5,0.1-1.1,0.2-1.6c0.1-0.6,0.3-1.3,0.4-1.9
	c0-0.2,0.1-0.4-0.1-0.6c0.3-0.1,0.4-0.3,0.4-0.6c0-0.1,0-0.3,0-0.4c0-0.3,0.2-0.4,0.5-0.4C44.9,34.6,45,34.6,45,34.6z"/>
<path class="st2" d="M46.7,52.3c0.1,0,0.1-0.1,0.2-0.1c0,0,0.1,0.1,0.1,0.2c0,0,0,0,0,0c0.1-0.1,0.1-0.2,0.2-0.3
	c0-0.1,0.1-0.2,0.3-0.2c0,0,0.1-0.1,0.1-0.1c0.2-0.2,0.4-0.3,0.6-0.4c0,0,0.1,0,0.2,0s0.1,0,0.2,0c0.3-0.2,0.7-0.1,0.9-0.4
	c0.1-0.2,0.4-0.2,0.5-0.3c0.1,0.2,0.2,0.2,0.5,0.2c0,0.2,0,0.3,0,0.5v0c0.1,0.4,0,0.5-0.3,0.8c-0.1,0.1-0.2,0.2-0.2,0.3
	c0,0-0.1,0.1-0.1,0.1c-0.3,0-0.3,0.3-0.4,0.5s-0.4,0.4-0.4,0.5c-0.1,0.2-0.2,0.4-0.3,0.7c0,0,0,0.1,0,0.1c0.2,0.3,0.1,0.6,0,0.9
	c-0.1,0.5-0.3,1-0.4,1.5c-0.2,0.5-0.3,1.1-0.5,1.6c-0.1,0.3-0.2,0.5-0.3,0.7c-0.3,0.6-0.5,1.3-1,2c-0.1,0.2-0.2,0.4-0.3,0.7
	c0,0.1,0,0.1-0.1,0.2c-0.2,0.3-0.4,0.5-0.5,0.8c-0.2,0.3-0.5,0.6-0.9,0.8c-0.1-0.1-0.3-0.1-0.4-0.2c-0.8,0.5-1.6,0.9-2.4,1.3
	c-0.9,0.5-1.8,0.9-2.8,1.1c-0.5,0.1-1,0.3-1.5,0.4c-0.8,0.2-1.6,0.3-2.4,0.4c-0.4,0.1-0.9,0.2-1.4,0.2c-0.5,0-1,0-1.4,0
	c-0.6,0-1.1,0-1.7,0h-0.1c-0.2-0.1-0.4,0-0.7-0.1c-0.4-0.1-0.8-0.1-1.2-0.2c-0.1,0-0.3,0-0.4,0c-0.5,0.1-1,0.1-1.4,0.2
	c-1.1,0.2-2.3,0.1-3.4,0.1c-0.8,0-1.6-0.1-2.4-0.2l-1.7-0.3c-0.5-0.1-1.1-0.3-1.6-0.4c-0.2-0.1-0.4-0.1-0.6-0.2
	c-0.5-0.1-1.1-0.3-1.6-0.4c-0.4-0.1-0.7-0.2-1.1-0.3c-0.2-0.1-0.4-0.2-0.6-0.2c-0.5-0.2-1-0.4-1.5-0.5c-0.2-0.1-0.4-0.2-0.5-0.4
	c-0.5,0.4-1,0.1-1.4-0.3c-0.1,0.2-0.3,0.3-0.2,0.5c0,0.2,0,0.4-0.2,0.5c-0.2,0.2-0.3,0.5-0.4,0.8c-0.2,0.3-0.4,0.7-0.5,1
	c-0.3,0.5-0.7,1-1,1.5c-0.2,0.3-0.4,0.4-0.7,0.4H7.5c-0.3,0-0.4-0.1-0.4-0.4c0,0,0-0.1,0-0.1c0.1-0.4-0.1-0.7-0.3-1
	c-0.1-0.2-0.2-0.4-0.4-0.6c-0.3-0.5-0.5-1.1-0.7-1.7c-0.1-0.3-0.3-0.6-0.4-1c0,0,0-0.1,0-0.1c0-0.4-0.3-0.8-0.4-1.1
	c-0.1-0.1-0.1-0.3-0.1-0.4c0-0.2-0.3-0.2-0.1-0.4l-0.3-0.4c-0.1-0.1-0.1-0.2-0.1-0.3c-0.1-0.2-0.2-0.5-0.3-0.7
	c0-0.1-0.1-0.2-0.2-0.2c0,0-0.1-0.1-0.1-0.1c-0.1-0.3-0.2-0.6-0.4-0.8c-0.1-0.1,0-0.2-0.1-0.3s-0.1-0.2-0.1-0.3
	C2.9,58,3,57.8,3.3,57.6c0.1-0.1,0.4-0.2,0.2-0.4v0c0.3-0.3,0-0.4-0.1-0.5c-0.3-0.3-0.5-0.5-0.8-0.7c-0.1-0.1,0-0.2-0.2-0.2
	c-0.1,0-0.3-0.2-0.4-0.3c-0.1-0.1-0.1-0.2-0.1-0.3c-0.3-0.1-0.5-0.3-0.6-0.7c-0.2-0.5-0.4-1-0.6-1.5c-0.1-0.2,0-0.3,0-0.5
	c0-0.1,0.1-0.1,0.1-0.1c0.4-0.1,0.4-0.4,0.7-0.5c0.1,0,0.1-0.1,0.2-0.1c0,0,0.1,0,0.1-0.1c0.2-0.3,0.6-0.6,1-0.5
	c0.1,0,0.2,0,0.3,0.1c0.3,0.1,0.4,0,0.6-0.2c0.2-0.2,0.4-0.3,0.7-0.4c0.2,0,0.4-0.2,0.7-0.3c0.2-0.1,0.3-0.2,0.6-0.2
	c0.2,0,0.4-0.1,0.7-0.1c0.1,0,0.3,0,0.4,0l0.1-0.1c0.2,0.1,0.4-0.1,0.6-0.1c0.1,0,0.2,0,0.3-0.1c0.2-0.1,0.3-0.2,0.5-0.1h0.1
	c0.3-0.1,0.6-0.3,0.9-0.4c0.3-0.1,0.7-0.2,1-0.2h0.2c0.4-0.3,1-0.2,1.4-0.4c0.2-0.1,0.4-0.2,0.6-0.2c0.2-0.1,0.5-0.1,0.7-0.2
	c0.4-0.1,0.7-0.3,1.1-0.5c0.1,0,0.1,0,0.2-0.1c0.4-0.1,0.7-0.3,1.1-0.4c0-0.1,0-0.2,0-0.3c0.2,0.1,0.4,0,0.5-0.1
	c0.1-0.1,0.2-0.2,0.3-0.2c0,0,0,0,0.1,0c0.3,0,0.5-0.3,0.8-0.3c0.2,0,0.3,0,0.4,0.1c0.1,0.1,0.2,0.1,0.2,0.2
	c0.2,0.1,0.3,0.4,0.4,0.5c0.1,0.1-0.1,0.2,0,0.4c0,0.1,0,0.1,0,0.2c-0.1,0.1-0.2,0.1-0.4,0.2c0,0.1,0.1,0.2,0,0.2
	c-0.1,0.1-0.2,0.2-0.3,0.2c-0.1,0.1-0.3,0-0.1,0.2c0,0-0.1,0.1-0.1,0.1c0,0,0,0.1,0.1,0.1c-0.1,0-0.2,0.1-0.3,0.1
	c0,0.1,0.1,0.1,0.1,0.2c-0.1,0.1-0.2,0.2-0.3,0.2l0.1,0.1c-0.2,0.1-0.3,0.2-0.2,0.4c0,0.2-0.2,0.3-0.3,0.4s-0.1,0.4-0.2,0.6
	c0,0.1-0.1,0.1-0.2,0.2c0,0.1,0,0.3,0,0.4c0,0.2-0.2,0.4-0.2,0.6c0,0.4-0.3,0.6-0.3,1c-0.1,0.4-0.2,0.8-0.4,1.1c0,0,0,0,0,0
	c0.6,0,1.1,0,1.6,0.1c0.6,0.1,1.2,0.2,1.8,0.3c0.7,0.1,1.4,0.2,2.1,0.3c0.2,0,0.4,0.1,0.6,0.1c0.4,0.1,0.7,0.2,1.1,0.3l1.2,0.3
	c0.4,0.1,0.7,0.2,1.1,0.2c0.6,0,1.2,0.2,1.9,0.3c0.1,0,0.1,0,0.2,0c0.2,0,0.4,0,0.7,0c0.2,0,0.4,0.1,0.6,0.1c0.5,0,1,0.1,1.4,0
	c0.5-0.1,1,0,1.5,0c0.4-0.1,0.9,0,1.3,0c0.9,0,1.7,0.1,2.6,0.2c0.3,0,0.5-0.1,0.8-0.1c0.3,0,0.6-0.1,0.9-0.2s0.6-0.2,0.9-0.2
	c0.4,0,0.7-0.1,1-0.2c0.3-0.1,0.6-0.2,0.9-0.2c0.4-0.1,0.8-0.2,1.2-0.3c0.3-0.1,0.6-0.2,1-0.3c0.3-0.1,0.5-0.2,0.8-0.3
	c0.4-0.1,0.7-0.3,1.1-0.4c0.3-0.1,0.5-0.2,0.8-0.3c0.2,0,0.4-0.2,0.6-0.3c0.2,0,0.4,0.1,0.5,0.1c0.1,0,0.2-0.1,0.3-0.2l0.2-0.2
	L46.7,52.3L46.7,52.3C46.7,52.3,46.7,52.3,46.7,52.3L46.7,52.3z"/>
<path class="st2" d="M15.5,47.1c-0.1,0-0.1,0-0.2,0c-0.3-0.2-0.5-0.3-0.7-0.5c0-0.1,0.1-0.2,0.2-0.3c0.1,0,0.2-0.1,0.3-0.1
	C15.3,46.4,15.5,46.7,15.5,47.1z"/>
<g>
	<path class="st3" d="M34.1,0.3c0.8,0.2,1.5,0.4,2.1,0.9c0.5,0.4,1.1,0.8,1.2,1.4c0.1,0.4,0,1-0.1,1.4c-0.4,1.1-1,2-1.8,2.9
		c-0.4,0.4-0.7,0.9-1.1,1.3c0.5,0.3,1,0.5,1.5,0.8c0.6,0.4,0.9,1.1,0.8,1.9c-0.2,1.4-0.9,2.5-2.2,3.3c-0.4,0.2-0.7,0.4-1.1,0.7
		c-0.2,0.1-0.2,0.2-0.1,0.4c0.2,0.2,0.2,0.4,0.3,0.7c0.2,0.7,0,1.3-0.4,1.8c-0.8,0.8-1.8,1.4-2.9,1.6c-0.1,0-0.2,0.1-0.3,0.2
		c-0.2,0.2-0.3,0.4-0.5,0.7c0.2,0,0.4,0.1,0.6,0.1l3.6,0.2c1,0.1,2,0.2,2.9,0.2c0.2,0,0.4,0,0.5-0.1c1.1-0.9,2.1-1.9,3.2-2.8
		c0.9-0.8,1.9-1.6,2.8-2.4c0.7-0.6,1.5-1.1,2.3-1.7c0.4-0.3,0.9-0.7,1.4-1c0.8-0.5,1.6-0.9,2.3-1.3c0.4-0.2,0.7-0.5,1.1-0.8
		c0.5-0.3,1.1-0.6,1.6-0.9c0.3-0.2,0.6-0.3,0.9-0.4C53.2,9.1,53.8,9,54.3,9c0.7,0,1.3-0.1,2,0.1c0.8,0.3,1.4,0.7,1.7,1.4
		c0.3,0.7,0.4,1.4,0.2,2.1c-0.1,0.5-0.5,0.9-0.7,1.4c-0.1,0.2-0.2,0.4-0.3,0.6c-0.7,0.8-1.5,1.5-2.3,2.2l-0.7,0.7
		c0.4,0.1,0.6,0.1,0.9,0.2c0.5,0.1,0.8,0.5,1,0.8c0.3,0.5,0.5,1.1,0.5,1.7c0,1.4-0.9,2.4-2,3.2c-0.5,0.4-1.2,0.6-1.7,0.9
		c-0.1,0-0.2,0.1-0.2,0.2c0.8,0.9,0.8,1.5,0.2,2.5c-0.8,1.3-2.1,1.9-3.5,2.4c-0.9,0.3-1.7,0.5-2.7,0.5c0,0-0.1,0.1-0.1,0.1
		c0.1,0.6-0.4,0.9-0.8,1.1c-0.5,0.3-0.8,0.6-0.7,1.2c0.1,0.2,0,0.4-0.1,0.6c-0.1,0.4,0.2,0.5,0.4,0.6c0.3,0.2,0.6,0.4,0.9,0.7
		c0.6,0.5,1.3,1.1,1.9,1.6c0.6,0.6,1.3,1.2,1.8,1.8c0.5,0.6,1,1.2,1.3,1.9c0.5,1.1,1.1,2,1.1,3.2c0,0.7,0.2,1.4,0.1,2.1
		c-0.1,0.7-0.3,1.3-0.5,2c-0.5,1.5-0.9,3.1-1.4,4.6c-0.4,1.1-0.8,2.1-1.2,3.2c-0.4,1.2-0.9,2.3-1.3,3.5c-0.3,0.8-0.7,1.7-1,2.5
		c-0.4,0.8-0.7,1.6-1.2,2.3c-0.3,0.4-0.8,0.7-1.3,1c-1.4,0.7-2.7,1.3-4.2,2c-0.6,0.3-1.2,0.4-1.9,0.5c-0.6,0.2-1.3,0.3-1.9,0.4
		c-0.9,0.2-1.8,0.4-2.7,0.5c-0.8,0.1-1.5,0.2-2.3,0.3c-0.6,0-1.2,0-1.8,0c-0.8,0-1.6,0-2.5-0.1l-2.6-0.1c-0.4,0-0.7,0-1-0.1
		c-0.6-0.1-1.1-0.1-1.7-0.2c-0.4-0.1-0.9-0.1-1.3-0.2c-1-0.2-1.9-0.3-2.8-0.5c-0.8-0.2-1.5-0.4-2.3-0.7c-0.8-0.3-1.5-0.6-2.2-0.9
		c-0.3-0.1-0.7-0.2-1-0.3c-0.4-0.1-0.8-0.3-1.1-0.4c-0.3-0.1-0.4-0.1-0.5,0.2c-0.1,0.3-0.3,0.6-0.4,1c-0.2,0.3-0.4,0.6-0.6,0.9
		c-0.4,0.7-0.7,1.5-1.1,2.2c-0.2,0.5-0.5,0.9-0.7,1.4C8.2,70,7.8,70,7.7,69.8c-0.3-0.4-0.5-0.8-0.7-1.3c-0.8-1.9-1.5-3.7-2.3-5.6
		c-0.6-1.5-1.2-3-1.9-4.5c-0.3-0.7-0.6-1.4-0.9-2.1L0.6,53c-0.1-0.2-0.2-0.4-0.3-0.7c0-0.1,0-0.3,0.1-0.3c1.1-0.5,2.1-1,3.2-1.4
		c1.3-0.5,2.7-1,4-1.5c1-0.4,2-0.8,3-1.1c0.8-0.3,1.5-0.5,2.3-0.8c0.5-0.2,1.1-0.4,1.6-0.6c-0.3-0.3-0.5-0.6-0.8-0.9
		c-0.4-0.5-1.1-1-1.3-1.7c-0.1-0.3-0.3-0.6-0.5-0.8c-0.4-0.5-0.3-1-0.3-1.5c0-1.3,0.1-2.7,0.1-4.1c0-0.4,0-0.9,0-1.3
		c0-0.6,0.1-1.2,0.1-1.9c0-0.6,0.1-1.3,0.1-2c0.1-0.8,0.1-1.7,0.2-2.5c0-0.8,0.1-1.5,0.2-2.3c0.1-1.2,0.3-2.4,0.4-3.6
		c0.1-0.9,0.3-1.7,0.4-2.6c0-0.3,0-0.6,0-0.9c0-0.4,0.2-0.5,0.5-0.5c0.5,0,1.1-0.1,1.6,0c0.6,0.2,0.6-0.3,0.8-0.5
		c0.5-0.6,0.9-1.3,1.4-2c0.3-0.4,0.5-0.8,0.8-1.2c0.7-1,1.4-2,2.2-3c0.5-0.7,1.1-1.5,1.7-2.2c0.7-0.8,1.4-1.6,2-2.5
		c0.8-0.9,1.6-1.9,2.4-2.8c0.7-0.8,1.5-1.6,2.3-2.3c0.6-0.6,1.3-1.2,2-1.8c0.7-0.6,1.6-1.1,2.6-1.3C33.6,0.3,33.8,0.3,34.1,0.3
		L34.1,0.3z M38.7,30.9c0.2,0,0.4-0.1,0.6,0c0.8,0.1,1.6,0.2,2.4,0.2c1.5-0.1,2.8-0.4,4-1.3c-0.6-0.1-1.2-0.2-2-0.3
		c0.2-0.2,0.3-0.3,0.4-0.3c0.5-0.1,1-0.3,1.5-0.3c1.2-0.1,2.5,0.1,3.6-0.5c0.5-0.3,1.1-0.5,1.6-0.7c0.5-0.3,0.9-0.7,1.1-1.2
		c0.2-0.5,0.4-1,0.5-1.5c0-0.1-0.3-0.3-0.3-0.2c-0.9,0.4-1.8,0.6-2.8,0.4c0-0.1,0-0.3,0.1-0.4c0.3-0.2,0.5-0.4,0.8-0.5
		c1.2-0.5,2.4-1,3.5-1.6c0.7-0.4,1.3-1,1.7-1.7c0.3-0.5,0.1-1.1,0-1.6c-0.1-0.7-0.6-1-1.3-0.9c-0.2,0-0.3,0-0.5,0
		c-0.5,0-1.1,0-1.6,0.1c-0.4,0-0.8,0.1-1.2,0.1c0.2-0.2,0.3-0.5,0.4-0.6c0.4-0.3,0.8-0.5,1.2-0.8c0.7-0.4,1.4-0.8,2-1.3
		c1-0.8,1.8-1.7,2.2-2.8c0.3-0.7,0.3-1.6,0.1-2.3c-0.3-0.7-1.7-1.2-2.5-0.8c-0.7,0.3-1.5,0.7-2.2,1.1c-0.8,0.4-1.5,1-2.3,1.4
		c-0.5,0.3-1,0.6-1.5,0.9c-0.5,0.3-1,0.6-1.4,1c-0.9,0.7-1.8,1.3-2.7,2c-0.6,0.4-1.2,0.9-1.8,1.4l-1.5,1.1c-0.4,0.3-0.8,0.7-1.2,1
		c-1.1,0.7-1.8,1.7-2.7,2.5c-0.4,0.4-0.8,0.9-1.2,1.3c-0.6,0.6-1.3,1.2-1.9,1.8c-1.2,1.2-2.5,2.5-3.7,3.8c-0.6,0.6-0.9,1.3-1.1,2.1
		c-0.1,0.6-0.2,1.2-0.1,1.9c0.1,0.6,0.3,1.2,0.6,1.6c0.6,0.7,1.4,0.8,2.3,0.7c0.8-0.1,1.3-0.6,1.7-1.2c0.1-0.2,0.3-0.4,0.3-0.7
		c0-0.4-0.1-0.8-0.2-1.2c0-0.1-0.1-0.2-0.2-0.2c-0.2-0.1-0.3-0.1-0.5-0.2c-0.7-0.3-1.4-0.4-2,0.2c-0.3-0.3-0.3-0.5,0-0.7
		c0.2-0.1,0.3-0.3,0.4-0.4c0.1-0.1,0.2-0.2,0.4-0.2c0.5-0.2,1,0.1,1.4,0.2c0.8,0.2,1.4,0.6,1.7,1.3c0.3,0.6,0.7,0.8,1.3,0.8
		c0.5,0,1,0,1.5,0c1.2-0.1,2.1-0.7,3-1.4c-0.3-0.1-0.6-0.1-0.9-0.2c-0.4,0-1-0.4-1.2-0.8C38.7,30.9,38.7,30.9,38.7,30.9L38.7,30.9z
		 M37,56.2L37,56.2C37,56.2,37,56.2,37,56.2L37,56.2c-0.5,0.1-1.1,0.2-1.6,0.2c-0.4,0.1-0.9,0.2-1.3,0.2c-0.6-0.1-1.2,0.1-1.9,0.1
		c-1.1,0-2.1,0.1-3.2,0c-1.1,0-2.2-0.2-3.3-0.3c-1-0.1-2-0.3-3-0.4c-1-0.2-2-0.4-3-0.6c-0.8-0.2-1.5-0.3-2.3-0.5
		c-0.9-0.2-1.8-0.3-2.6-0.7c-0.1-0.1-0.2-0.3-0.2-0.4c0.2-0.5,0.4-1.1,0.6-1.7c0.3-0.7,0.5-1.4,0.7-2.2c0.2-0.6,0.4-1.2,0.6-1.8
		c0.1-0.3,0.2-0.6,0.3-0.9c-0.2,0-0.4-0.1-0.4-0.1c-0.2,0.3-1.5,0.4-1.8,0.5c-0.6,0.2-1.2,0.5-1.8,0.7c-0.3,0.1-1.8,0.7-1.9,0.7
		c-0.1,0.1-0.9,0.4-1.1,0.4c-0.6,0.2-2.2,0.6-2.4,0.7c-0.5,0.2-2.1,0.7-2.4,0.8c-0.7,0.3-1.3,0.5-2,0.8c-0.4,0.2-0.9,0.3-1.3,0.4
		c0.3,0.7,0.6,1.3,0.9,1.9c0.6,1.3,1.2,2.6,1.8,3.9c0.4,0.9,0.7,1.8,1,2.6c0.6,1.6,1.2,3.1,1.7,4.7c0.3,0.7,0.5,1.5,0.8,2.2
		c0.1-0.1,0.2-0.2,0.2-0.3c0.4-1,0.9-2,1.3-3c0.2-0.5,0.5-1,0.7-1.4c0,0,0.1,0,0.2-0.1c0.4-0.1,0.7,0.1,1,0.2c0.2,0,0.3,0.1,0.4,0.2
		c0.2,0.1,0.4,0.2,0.6,0.3c0.2,0.1,0.4,0.1,0.6,0.2c0.2,0.1,0.3,0.2,0.5,0.2c0.2,0.1,0.4,0.1,0.6,0.2c0.2,0.1,0.4,0.2,0.5,0.2
		c0.4,0.1,0.8,0.2,1.1,0.3c0.3,0.1,0.6,0.3,1,0.3c0.3,0.1,0.5,0.1,0.8,0.2c0.7,0.2,1.3,0.4,2,0.5c0.9,0.2,1.8,0.4,2.7,0.5
		c0.8,0.1,1.7,0.3,2.5,0.3s1.7,0,2.5,0c1,0,2,0,3,0c0.8,0,1.7-0.2,2.5-0.3c0.9-0.1,1.9-0.3,2.8-0.4c0.4-0.1,0.8,0,1.1-0.1
		c0.8-0.2,1.6-0.4,2.5-0.6c1.2-0.2,2.2-0.8,3.3-1.3c0.6-0.2,1.1-0.5,1.6-0.8c0.6-0.4,1.2-0.7,1.4-1.4c0.3-1,0.8-2,1.2-3
		c0.3-0.8,0.7-1.5,1-2.3c0.5-1.3,1.1-2.6,1.6-3.9c0.2-0.5,0.4-1.1,0.6-1.6c-0.3,0.2-0.4,0.4-0.7,0.6c-0.7,0.5-1.4,1-2.1,1.4
		c-0.8,0.4-1.7,0.8-2.6,1.2c-0.6,0.3-1.2,0.5-1.8,0.7c-0.5,0.2-1.1,0.4-1.7,0.5c-0.4,0.1-0.9,0.4-1.4,0.3c-0.2,0-0.4,0.2-0.6,0.3
		C38.4,56,37.7,56.1,37,56.2L37,56.2z M31.3,9.6c0.3-0.2,0.5-0.4,0.8-0.7c0.7-0.6,1.3-1.3,2-2C34.8,6,35.6,5.1,36,3.8
		c0.1-0.5,0.3-1,0-1.5c-0.2-0.5-0.7-0.9-1.3-1.1C33.9,1,33.1,1,32.4,1.5c-0.6,0.5-1.2,1-1.8,1.6c-1,1-2.1,2.1-3.1,3.2
		c-1,1-2,2-2.9,3c-0.6,0.6-1.1,1.2-1.6,1.8c-0.4,0.5-0.9,1.2-1.3,1.7c-0.8,1-1.5,2.1-2.2,3.2c-0.4,0.5-0.6,1.1-0.9,1.6
		c-0.5,0.8-1,1.5-1.5,2.3c0.7,0,1.4,0.1,2.1,0.1c1.1,0.1,2.1,0.1,3.1,0.1c0.9,0,1.8,0,2.7,0c0.9,0,1.8,0.2,2.7-0.3
		c0.2-0.1,0.4-0.2,0.5-0.3c-0.9-0.1-1.9-0.3-2.7-0.7c0.3,0,0.6,0,0.8-0.1c0.7-0.1,1.4-0.1,2.1-0.2c0.7-0.1,1.3-0.2,2-0.4
		c0.7-0.3,1.4-0.7,1.8-1.4c0.2-0.3,0.4-0.6,0.3-0.8c-0.2-0.3-0.6-0.4-0.9-0.5c-0.6-0.2-1.2,0-1.8,0c-0.4,0-0.8-0.1-1.2-0.1
		c0.1-0.5,0.5-0.4,0.8-0.4c1.7-0.4,3.4-0.9,4.8-2c0.6-0.5,1.2-0.9,1.4-1.7c0.2-0.8-0.1-1.4-0.9-1.5c-0.5-0.1-1-0.2-1.5-0.2
		C32.5,9.4,31.9,9.5,31.3,9.6z M20.5,50.9v-1.3c0-1.5,0.1-3,0.1-4.5l0.1-3.1c0-0.7,0.1-1.4,0.2-2.1l0.2-2.2c0.1-1.2,0.2-2.3,0.3-3.5
		c0.1-0.9,0.2-1.8,0.3-2.7c0-0.3,0.2-0.6-0.1-0.9c-1-1.1-1.9-2.2-2.9-3.3c-0.6-0.7-1.2-1.3-1.9-2c-0.5-0.6-1.1-1.1-1.7-1.7
		c-0.4-0.4-0.7-0.8-1.1-1.2c-0.1,0.6-0.2,1.2-0.3,1.9c-0.1,0.7,0,1.4-0.1,2c-0.1,1.2-0.2,2.5-0.3,3.8c-0.1,0.8-0.1,1.6-0.1,2.3
		c-0.1,0.7-0.2,1.3-0.2,2c0,1-0.1,2-0.1,3c0,1.3,0,2.6,0,3.8c0,0.4,0,0.9,0,1.3c0,0.1,0,0.3,0.1,0.4c0.5,0.7,1.1,1.4,1.6,2.1
		c0.3,0.3,1,1.1,1.2,1.1c0.1,0,0.3-0.1,0.4-0.1c0.4-0.2,1.9,0,2.3,0.3c0.2,0.1-0.5,1.8-0.8,2.5C18.8,49.4,19.5,50.2,20.5,50.9
		L20.5,50.9z M25.2,42.3c-0.9,3-1.8,5.9-2.7,9c0.6,0,1.2,0,1.8,0c1,0,2,0.1,3,0.2l2.6,0.2c0.4,0,0.7,0,1,0c1.1,0,2.2,0,3.3,0.1
		c0.9,0,1.9,0.2,2.8,0.2c0.7,0,1.5-0.1,2.2-0.2c0.5,0,1.1,0,1.6,0c0.1,0,0.2-0.1,0.2-0.2c0-0.2-0.1-0.4-0.1-0.6c-0.2-1-0.3-2-0.5-3
		c-0.1-1-0.2-2-0.3-3c-0.1-0.6-0.1-1.2-0.2-1.7c-0.2,0.1-0.4,0.4-0.7,0.4c-0.4,0-0.9-0.1-1.3-0.1c-0.7,0-1.4,0-2-0.1
		c-0.6,0-1.2-0.1-1.8-0.1c-0.7,0-1.5,0-2.2,0c-0.9,0-1.8-0.1-2.7-0.2L27.6,43c-0.3,0-0.6-0.1-1-0.1c-0.3,0-0.6-0.1-1-0.1
		c-0.2,0-0.3-0.2-0.1-0.4C25.4,42.3,25.3,42.3,25.2,42.3z M41.6,32.3c-0.3,0.5-0.8,0.9-1.4,1.1c-0.8,0.3-1.6,0.5-2.4,0.6
		c-0.9,0.1-1.9,0.1-2.7-0.3c-0.2,1-0.7,1.8-1.8,2.2c-0.3,0.1-0.7,0.1-1,0.3c-0.7,0.3-1.4,0.3-2,0c-0.7-0.4-1.5-0.9-2-1.5
		c-0.4-0.4-0.4-1.2-0.6-1.8c-0.2-0.7-0.1-1.4,0.2-2.1c-1.7-0.1-3.3-0.2-5-0.3c0.1,0.1,0.2,0.3,0.2,0.4c0.3,0.8,0.5,1.6,0.8,2.5
		c0.4,1.6,0.8,3.1,1.2,4.7l1,3.7c0,0.1,0.2,0.2,0.3,0.2c0.5,0,1-0.1,1.5-0.1c1.2,0,2.4,0,3.6,0.1c0.5,0,1.1,0,1.6,0c1,0,2,0.1,3,0.2
		c0.5,0,1,0,1.5,0c0.4,0,0.7,0,1.1-0.1c0.1,0,0.2-0.1,0.2-0.1c0.3-0.5,0.6-1.1,0.9-1.6c0.2-0.4,0.4-0.8,0.6-1.2
		c0.4-0.9,0.9-1.7,1.3-2.6c0.4-0.7,0.6-1.4,1-2.1c0.2-0.4,0.3-0.7,0.5-1.1c0.3-0.5,0.5-1,0.7-1.5C43.2,32.1,42.4,32.2,41.6,32.3
		L41.6,32.3z M14.5,21l0.9,0.9l2.2,2.3c0.6,0.6,1.3,1.2,1.9,1.9c0.8,0.8,1.4,1.8,2.2,2.6c0.2,0.3,0.3,0.7,0.9,0.6
		c1.1,0,2.3,0.1,3.5,0.1c0.7,0,1.5,0.1,2.2,0.1c0.2,0,0.5,0,0.6-0.1c0.6-0.7,1.1-1.4,1.7-2.1c0.7-0.9,1.5-1.7,2.2-2.6
		c0.4-0.5,0.9-1,1.4-1.4c0.5-0.5,1.1-1,1.6-1.5c-1-0.1-1.9-0.2-2.8-0.2c-0.9-0.1-1.9-0.1-2.8-0.2c-1.2-0.1-2.4-0.2-3.6-0.2
		c-1.3,0-2.7,0-4.1-0.1c-1,0-2-0.1-2.9-0.2c-0.8,0-1.5-0.1-2.3-0.1C16.4,20.9,15.4,21,14.5,21L14.5,21z M45.9,52.3
		c0.1,0,0.2-0.1,0.2-0.1c0.8-0.5,1.5-1,2.3-1.5c0.5-0.3,1-0.6,1.2-1.2c0.4-0.7,0.9-1.4,1.2-2.2c0.3-0.7,0.5-1.5,0.6-2.3
		c0.1-0.7,0.2-1.4,0.1-2.1c-0.1-0.7-0.4-1.4-0.6-2.1c-0.3-0.7-0.6-1.5-1.1-2.1c-0.7-0.8-1.5-1.5-2.3-2.3c-0.4-0.4-0.9-0.8-1.4-1.1
		c-0.3-0.2-0.7-0.4-1.1-0.6c-0.1,1.1-0.2,2-0.4,3c-0.2,1.4-0.4,2.7-0.6,4.1c-0.1,0.8-0.2,1.5-0.3,2.3c0,0.1,0,0.2,0.1,0.3
		c0.3,0.3,0.6,0.6,0.8,0.9c0.4,0.6,0.6,1.3,0.9,2c0.4,1,0.5,2.1,0.5,3.1C46.1,51.1,46,51.7,45.9,52.3L45.9,52.3z M43.8,45.5
		c0,0-0.1,0-0.1,0c-0.1,0.3-0.1,0.5-0.2,0.8c-0.1,0.8-0.2,1.6-0.3,2.4c-0.2,1.3-0.4,2.6-0.5,3.8c0,0.3-0.2,0.5-0.5,0.5
		c-0.7,0-1.4,0-2.1,0.1c-0.5,0-1.1-0.1-1.6,0c-1,0.2-2,0-3.1,0c-0.6,0-1.2-0.1-1.7-0.1c-1,0-2-0.1-3-0.1c-0.9,0-1.8-0.1-2.7-0.2
		l-4-0.2c-0.5,0-1.1-0.1-1.6-0.1c-0.4,0-0.8,0.1-1.2,0c-0.3,0-0.6-0.1-0.8-0.3c-0.5-0.4-0.8-0.8-1.3-1.2c-0.1-0.1-0.2-0.3-0.5-0.4
		c-0.4-0.1-0.6-0.5-0.9-0.7l-0.4,1.2c-0.3,0.8-0.5,1.5-0.8,2.3c-0.2,0.4-0.1,0.5,0.4,0.5c0.1,0,0.2,0,0.3,0c0.6,0.2,1.2,0.4,1.9,0.5
		c0.6,0.2,1.3,0.3,1.9,0.4c1.3,0.2,2.6,0.5,3.9,0.7c1.3,0.2,2.7,0.3,4,0.4c1.2,0.1,2.4,0.2,3.6,0.1c0.8-0.1,1.6-0.1,2.4-0.3
		c1.1-0.2,2.1-0.4,3.2-0.6c0.5-0.1,1.1-0.3,1.6-0.4c0.7-0.2,1.4-0.4,2-0.6c0.8-0.3,1.6-0.6,2.4-0.9c0.2-0.1,0.6-0.2,0.6-0.4
		c0.1-0.5,0.1-1,0.2-1.6c0-0.9,0.1-1.8-0.2-2.7C44.4,47.6,44,46.5,43.8,45.5L43.8,45.5z M21.8,49.9C21.8,49.9,21.8,49.9,21.8,49.9
		c0.3-0.9,0.6-1.8,0.9-2.7c0.3-1.1,0.6-2.2,1-3.3c0.3-0.8,0.5-1.6,0.8-2.4c0.2-0.5,0.4-1.1,0.1-1.6c0,0,0-0.1,0-0.1
		c-0.2-0.8-0.4-1.7-0.6-2.5l-0.6-2.5c-0.1-0.5-0.2-1-0.3-1.5c-0.1,0.4-0.2,0.8-0.2,1.2c-0.1,1-0.1,2-0.2,3c-0.1,1.2-0.3,2.3-0.4,3.4
		c-0.1,1.3-0.1,2.6-0.2,3.9c0,0.6,0,1.2-0.1,1.8C21.9,47.7,21.8,48.8,21.8,49.9z M41.6,48.1L41.6,48.1c0.7-4.4,1.4-8.8,2.1-13.2
		c-0.1,0.1-0.1,0.2-0.1,0.2c-0.4,0.9-0.7,1.8-1.2,2.7c-0.5,1-1,2-1.5,3.1c-0.1,0.3-0.3,0.5-0.3,0.8c0.1,0.6,0.2,1.3,0.3,1.9
		C41.2,45.1,41.4,46.6,41.6,48.1z M9,49.9L9,49.9L9,49.9L9,49.9C9,49.9,9,49.9,9,49.9z"/>
	<path class="st3" d="M38.7,31c-0.1,0-0.2,0-0.2-0.1c0,0,0,0,0-0.1l0.3,0.1C38.8,31,38.7,31,38.7,31z"/>
</g>
</svg>
