<?xml version="1.0" encoding="utf-8"?>
<!-- Generator: Adobe Illustrator 23.0.0, SVG Export Plug-In . SVG Version: 6.00 Build 0)  -->
<svg version="1.1" id="Calque_1" xmlns="http://www.w3.org/2000/svg" xmlns:xlink="http://www.w3.org/1999/xlink" x="0px" y="0px"
	 viewBox="0 0 62 70" style="enable-background:new 0 0 62 70;" xml:space="preserve">
<style type="text/css">
	.st0{fill:#7B7089;}
	.st1{fill:#C5BCCF;}
	.st2{fill:#9B93A6;}
	.st3{fill:#8AB0B7;}
	.st4{fill:#40354E;}
	.st5{fill:#FFFFFF;}
	.st6{font-family:'BlowBrush';}
	.st7{font-size:12px;}
</style>
<g>
	<path class="st0" d="M30.1,3.7c-0.1-0.4-0.2-0.8-0.3-1.2c0-0.1,0.1-0.3,0.1-0.4c0,0.1,0,0.1,0,0.2C30,2.2,30,2.1,30.1,2
		c0.1,0.1,0.1,0.2,0.1,0.3h0.1c0-0.1,0.1-0.3,0.1-0.4c0.1-0.1,0.1-0.2,0.2-0.3h0.1c0.2,0.1,0.4,0.2,0.7,0.4c0,0,0,0.1,0.1,0.2
		C32.2,3,33,3.6,33.9,4.3c0.6,0.5,1.2,1.1,1.9,1.6c0.8,0.7,1.6,1.3,2.5,1.8c0.8,0.5,1.6,1.1,2.4,1.5c0.5,0.3,1,0.5,1.6,0.7
		c1.1,0.4,2.3,0.9,3.4,1.3c0.7,0.3,1.3,0.5,2,0.7c0.7,0.2,1.4,0.3,2.1,0.5c0.4,0.1,0.9,0.1,1.2,0.3c0.3,0.3,0.8,0.1,1.1,0.3
		c0.2,0.1,0.4,0,0.6,0.1c0.4,0.1,0.8,0.2,1.3,0.2c0.3,0,0.5,0,0.8,0c0.4,0,0.8,0,1.2,0c0.9,0,1.7,0,2.6,0c0.3,0,0.6,0,0.9,0
		c0,0.4,0,0.8,0,1.3c0,0.5,0.1,1.1,0.2,1.7c0,0.4,0,0.7,0,1c0,0.6,0.1,1.2,0.1,1.8c0,0.5,0,1,0,1.6c0,0.4,0,0.7,0,1
		c0,0.6-0.1,1.1-0.1,1.7c0,0.6,0,1.2,0,1.8c0,0.2-0.1,0.4-0.1,0.6v0.9l-0.1,1.4c0,0.4,0,0.7-0.1,1l-0.2,2.1c0,0.5-0.1,1-0.1,1.5
		c0,0.7-0.1,1.4-0.2,2.1c0,0.4,0,0.7,0,1.1c0,0.1-0.1,0.2-0.1,0.3c-0.1,0.5-0.1,1.1-0.1,1.7c-0.1,0.6-0.2,1.2-0.3,1.8
		c-0.1,0.5-0.2,1.1-0.3,1.7c-0.1,0.5-0.2,1-0.3,1.4c-0.1,0.4-0.2,0.9-0.3,1.3c0,0.2-0.1,0.5-0.2,0.7c-0.1,0.6-0.3,1.1-0.4,1.7
		c-0.6,0-0.9,0.4-1,0.9c-0.1,0.6-0.3,1.1-0.5,1.7c0,0.1,0,0.2-0.1,0.3c-0.4,0.7-0.7,1.3-1.1,1.9c-0.3,0.4-0.7,0.8-1,1.2
		c-0.5,0.6-1,1.2-1.5,1.9c-0.4,0.6-0.9,1.1-1.3,1.7c-0.6,0.6-1.2,1.2-1.8,1.8c-0.3,0.3-0.6,0.7-0.9,1c-0.3,0.3-0.6,0.5-0.8,0.8
		c-0.4,0.4-0.9,0.8-1.3,1.3c-0.3,0.3-0.5,0.6-0.7,0.8c-0.2,0.2-0.4,0.3-0.6,0.5c-0.3,0.3-0.6,0.6-1,0.9c-0.6,0.5-1.2,1.2-2,1.6
		c-0.4,0.2-0.9,0.4-1.2,0.6c-0.6,0.3-1.2,0.5-1.8,0.8c-0.9,0.3-1.8,0.7-2.7,1.1c-0.7,0.3-1.3,0.6-1.9,0.9c-0.6,0.3-1.1,0.4-1.7,0.7
		l-0.6,0.3c-0.2,0-0.3,0-0.5,0c-0.5-0.1-0.8,0.2-1.2,0.4c-0.1,0.1-0.4-0.1-0.4-0.2c-0.2-0.2-0.3-0.4-0.4-0.7
		c0.4-0.4,0.8-0.8,1.2-1.2c0.1-0.1,0.3-0.1,0.4-0.2c0.9-0.5,1.8-1.1,2.7-1.6c0.8-0.5,1.7-0.9,2.5-1.3c0.5-0.3,1-0.6,1.6-1
		c0.5-0.3,1-0.7,1.6-1c0.5-0.3,1-0.6,1.4-0.9c0.8-0.6,1.6-1.3,2.4-1.9c0.4-0.3,0.8-0.8,1.2-1.2c0.6-0.7,1.2-1.4,1.8-2.1
		c0.6-0.6,1.1-1.2,1.7-1.9c0.5-0.5,1-1.1,1.4-1.7c0.3-0.4,0.6-0.9,0.9-1.3c0.3-0.4,0.5-0.9,0.8-1.3c0.3-0.4,0.5-0.8,0.7-1.2
		c0.2-0.4,0.4-0.9,0.6-1.3c0.2-0.5,0.4-0.9,0.7-1.4c0.2-0.6,0.4-1.2,0.7-1.8c0.3-0.7,0.6-1.3,0.9-1.9v-0.1c0-0.1,0-0.3,0.1-0.4
		c0.1-0.3,0.2-0.5,0.3-0.7c0.2-0.7,0.3-1.5,0.5-2.3c0.1-0.5,0.3-1,0.3-1.6c0-0.3,0.1-0.7,0.2-1c0-0.2,0-0.5,0-0.8
		c0.2-0.1,0.2-0.3,0.2-0.5c0-0.1,0-0.3,0-0.4c0.1-0.7,0.1-1.4,0.2-2.1c0-0.4,0.1-0.9,0.1-1.3c0-0.4,0.1-0.7,0.1-1c0-0.1,0-0.2,0-0.3
		l0.1-1.2v-1.3c0-0.3,0-0.5,0-0.8c0.1-0.4,0-0.8,0-1.2c0-0.4,0-0.7,0-1c0-0.4,0.1-0.9,0.1-1.3c0-0.8,0-1.5,0-2.3
		c0-0.5,0.1-1,0.1-1.4c0-0.7-0.1-1.4,0-2.1c0-0.3-0.1-0.3-0.3-0.3c-0.6,0-1.3-0.1-1.9-0.2l-1.8-0.2c-0.4,0-0.7-0.1-1.1-0.2
		c-0.3-0.1-0.7-0.2-1.1-0.2c-0.5-0.1-1.1-0.2-1.6-0.3c-0.6-0.2-1.2-0.4-1.9-0.5c-0.5-0.2-1.1-0.3-1.6-0.4c-0.4-0.1-0.8-0.3-1.1-0.5
		c-0.3-0.1-0.5-0.2-0.7-0.3c-0.7-0.4-1.3-0.7-2-1.1c-0.5-0.3-1-0.5-1.4-0.8c-0.1,0-0.1-0.1-0.1-0.2c-0.1-0.1-0.1-0.1-0.2-0.2
		c-0.3-0.2-0.7-0.4-1-0.6c-0.3-0.3-0.6-0.6-1-0.8c-0.6-0.3-1-0.7-1.6-1.1c-0.5-0.4-1-0.8-1.4-1.3c-0.7-0.6-1.4-1.2-2-1.8
		c-0.5-0.5-1-1.1-1.2-1.8C30.7,4.4,30.4,4,30.1,3.7L30.1,3.7z"/>
	<path class="st1" d="M30.1,3.7c0.2,0.3,0.5,0.7,0.7,1C31,5.5,31.5,6.1,32,6.6c0.6,0.6,1.3,1.2,2,1.8c0.5,0.4,0.9,0.9,1.4,1.3
		c0.5,0.4,1,0.8,1.6,1.1c0.4,0.2,0.7,0.5,1,0.8c0.3,0.2,0.6,0.4,1,0.6c0.1,0,0.1,0.1,0.2,0.2c0.1,0.1,0.1,0.1,0.1,0.2
		c0.5,0.3,1,0.5,1.4,0.8c0.6,0.4,1.3,0.7,2,1.1c0.2,0.1,0.5,0.2,0.7,0.3c0.4,0.2,0.8,0.4,1.1,0.5c0.5,0.2,1,0.3,1.6,0.4
		c0.6,0.2,1.2,0.4,1.9,0.5c0.5,0.1,1.1,0.2,1.6,0.3c0.3,0.1,0.7,0.2,1.1,0.2c0.4,0.1,0.7,0.1,1.1,0.2c0.6,0.1,1.2,0.1,1.8,0.2
		c0.6,0.1,1.3,0.1,1.9,0.2c0.2,0,0.3,0,0.3,0.3c0,0.7,0,1.4,0,2.1c0,0.5-0.1,1-0.1,1.4c0,0.8,0,1.5,0,2.3c0,0.4-0.1,0.9-0.1,1.3
		c0,0.4,0,0.7,0,1c0,0.4,0.1,0.8,0,1.2c-0.1,0.3,0,0.5,0,0.8v1.3c0,0.4-0.1,0.8-0.1,1.2c0,0.1,0,0.2,0,0.3c0,0.4-0.1,0.7-0.1,1
		l-0.1,1.3c-0.1,0.7-0.1,1.4-0.2,2.1c0,0.2,0,0.3,0,0.4c0.1,0.3,0,0.4-0.2,0.5c0,0.3,0,0.5,0,0.8c-0.1,0.3-0.1,0.7-0.2,1
		c0,0.5-0.2,1-0.3,1.6c-0.2,0.8-0.3,1.5-0.5,2.3c-0.1,0.3-0.2,0.5-0.3,0.7c0,0.1,0,0.3-0.1,0.4c0,0,0,0.1,0,0.1
		c-0.3,0.6-0.6,1.3-0.9,1.9c-0.3,0.6-0.4,1.2-0.7,1.8c-0.2,0.5-0.4,1-0.7,1.4c-0.2,0.4-0.4,0.9-0.6,1.3s-0.5,0.8-0.7,1.2
		c-0.3,0.4-0.5,0.9-0.8,1.3c-0.3,0.4-0.6,0.9-0.9,1.3c-0.4,0.6-0.9,1.1-1.4,1.7l-1.7,1.9c-0.6,0.7-1.2,1.4-1.8,2.1
		c-0.4,0.4-0.8,0.8-1.2,1.2c-0.8,0.7-1.6,1.3-2.4,1.9c-0.4,0.3-1,0.6-1.4,0.9c-0.5,0.3-1,0.7-1.6,1c-0.5,0.3-1,0.7-1.6,1
		c-0.9,0.4-1.7,0.9-2.5,1.3c-0.9,0.5-1.8,1.1-2.7,1.6c-0.1,0.1-0.3,0.1-0.4,0.2c-1-0.7-2.1-1.4-3.1-2.1c-1.2-0.8-2.5-1.6-3.7-2.5
		c-0.5-0.3-1.1-0.6-1.6-0.9c-0.4-0.3-0.8-0.6-1.1-0.9c-0.5-0.4-1-0.9-1.5-1.3c-1.2-0.8-2.3-1.7-3.2-2.8c-1.1-1.3-2.1-2.5-3.2-3.8
		c-1.2-1.5-2.4-3-3.2-4.7c-0.5-1.1-0.9-2.2-1.2-3.3C7.7,44,7.3,42.8,7,41.5c-0.3-1-0.4-2-0.7-3c-0.2-1-0.4-1.9-0.6-2.9
		c-0.2-1-0.3-1.9-0.3-2.9c-0.1-1-0.2-2.1-0.2-3.1c0-0.6-0.1-1.2-0.1-1.8c-0.1-1-0.1-2.1-0.2-3.1L4.8,23c0-0.5-0.1-1.1-0.2-1.6
		c0-0.9,0-1.8-0.1-2.8v-1.2h0.6c0.7,0,1.3,0,2-0.1c0.8-0.1,1.5-0.1,2.3-0.2c0.5-0.1,1-0.2,1.4-0.3c0.3-0.1,0.7,0,1-0.1
		c0.7-0.2,1.5-0.3,2.2-0.5c0.4-0.1,0.9-0.3,1.3-0.4c0.4-0.2,0.8-0.4,1.1-0.5c0.4-0.2,0.9-0.3,1.2-0.5c0.6-0.3,1.1-0.5,1.7-0.8
		l0.9-0.5c0.5-0.3,1-0.5,1.5-0.9c0.5-0.4,1-0.7,1.5-1.1c0.7-0.5,1.4-1.1,2-1.6c0.4-0.4,0.8-0.8,1.2-1.2c0.6-0.7,1.3-1.3,1.9-2.1
		c0.5-0.6,0.8-1.2,1.2-1.8C29.8,4.5,29.9,4.1,30.1,3.7L30.1,3.7z M42.9,49c0.1-0.2,0.3-0.4,0.2-0.7c0.4-1.2,0.7-2.5,0.7-3.9
		c0-0.1,0-0.1,0.1-0.2c0-0.1,0-0.3,0.1-0.4c0-0.5,0-1,0.1-1.4c0-0.3,0.1-0.6,0.1-0.9c0-0.2,0-0.4-0.3-0.4c-0.3-0.6-0.6-1.2-0.9-1.8
		c-0.3-0.5-0.4-1.1-0.6-1.7c-0.1-0.2-0.2-0.4-0.3-0.4c-0.3,0-0.3-0.2-0.3-0.3c-0.1-0.1-0.2-0.3-0.3-0.4c-0.2-0.2-0.3-0.4-0.4-0.6
		c-0.2-0.1-0.3-0.2-0.3-0.4c0,0-0.1-0.1-0.2-0.1c-0.2-0.1-0.4-0.3-0.5-0.4c-0.1-0.2-0.2-0.3-0.3-0.4c-0.1-0.1-0.2-0.1-0.3-0.2
		c-0.2-0.4-0.3-0.5-0.7-0.5c-0.1-0.1-0.2-0.2-0.3-0.3c0-0.1-0.1-0.3-0.1-0.4c0.4,0.1,0.7,0.1,1,0.2c0.3,0.1,0.3,0,0.3-0.3
		c0-0.8,0.1-1.5,0.2-2.3c0.1-1.1,0-2.3-0.1-3.4c-0.1-0.9-0.2-1.8-0.3-2.7c0-0.2,0-0.5,0.1-0.7c0.2-0.4,0.4-0.7,0.6-1
		c0-0.1,0-0.2,0-0.2c-0.2-0.5-0.3-1.1-0.5-1.7c-0.3-0.8-0.7-1.5-1.3-2.1c-0.9-0.8-1.9-1.4-3-1.8c-0.7-0.3-1.5-0.4-2.2-0.5
		c-0.8-0.2-1.6-0.1-2.3-0.1c-0.6,0-1.2-0.1-1.9,0c-0.8,0.1-1.5,0.3-2.1,0.6c-0.4,0.2-0.8,0.5-1.2,0.6c-0.8,0.2-1.6,0.4-2.2,0.9
		c-0.4,0.3-0.7,0.6-1,1c-0.4,0.4-0.7,0.8-0.9,1.2c-0.2,0.3-0.3,0.6-0.4,0.9c-0.1,0.2-0.1,0.4-0.2,0.6l-0.2,0.9
		c-0.1,0.3-0.2,0.6-0.2,0.9c-0.1,0.5-0.1,1.1-0.1,1.6c0,0.4-0.1,0.8-0.1,1.3c0,0.7,0,1.4,0.1,2.1c0.1,0.8,0.2,1.6,0.4,2.4
		c0.2,0.6-0.1,1.1-0.1,1.6c0,0.3-0.2,0.5-0.3,0.8c-0.1,0.2-0.1,0.4-0.2,0.7c0,0.2-0.1,0.3-0.2,0.5c-0.1,0.2-0.3,0.3-0.3,0.4
		c0.1,0.4-0.4,0-0.4,0.2c-0.1,0.9-0.3,1.9-0.4,2.8c-0.1,0.3-0.2,0.5-0.4,0.8c-0.1,0.2-0.4,0.4-0.5,0.6c0,0-0.1,0.1-0.1,0.1
		c-0.1,0-0.3,0-0.4,0c-0.4-0.1-0.8,0-0.8,0.4c0,0.3-0.1,0.7-0.1,1c-0.1,0.6-0.2,1.1-0.3,1.7c-0.1,0.3,0.4,0.5,0.4,0.9
		c0,1.2-0.1,2.5,0.3,3.6c0,0.1,0.2,0.1,0.2,0.2c0,0.1,0,0.2,0.1,0.3c0.1,0.1,0.1,0.2,0.2,0.2c0.4,0.6,0.7,1.1,1.1,1.7
		c0.1,0.2,0.3,0.3,0.4,0.5c0.4,0.4,0.8,0.8,1.2,1.2c0.5,0.4,1.1,0.7,1.6,1.1c0.4,0.3,0.7,0.5,1.1,0.8c0.4,0.3,0.8,0.5,1.2,0.8
		c0.2,0.2,0.4,0.3,0.7,0.5c0.2,0.2,0.4,0.5,0.6,0.5c0.3,0,0.6,0.1,0.9,0.2c0.1,0,0.3-0.1,0.4-0.2c0.1,0,0.3,0.1,0.4,0.1
		c0.3,0,0.6,0.3,1,0c0,0,0.1,0,0.2,0c0.1,0,0.2,0,0.2,0c0.2-0.3,0.4-0.1,0.6,0h0.1c0-0.1,0-0.2,0-0.3c0.1,0,0.3,0.1,0.3,0
		c0.2-0.3,0.4,0,0.5,0c0.4,0.1,0.7,0.2,1,0.2c0.6,0,1.1,0,1.7,0c0.3,0,0.6-0.1,0.9-0.2c0.2-0.1,0.4,0,0.7-0.1
		c0.4-0.1,0.8-0.2,1.2-0.3c0.1-0.1,0.3-0.2,0.4-0.3c0.1,0,0.2,0.1,0.3,0c0.2-0.1,0.4-0.3,0.7-0.4c0.5-0.3,1.1-0.6,1.6-1
		c0.4-0.3,0.8-0.7,1.3-1.1c0.5-0.4,1-0.9,1.5-1.3c0,0,0.1,0,0.3,0.1c0.1,0.1,0.3,0.2,0.4,0.3c0.3-0.2,0.3-0.7,0.8-0.7
		c0,0,0-0.1,0.1-0.1c0.1-0.2,0.2-0.5,0.3-0.7C43,49.6,42.9,49.3,42.9,49L42.9,49z"/>
	<path class="st2" d="M30.4,1.9c0,0.1-0.1,0.3-0.1,0.4h-0.1c0-0.1-0.1-0.2-0.1-0.3C30,2.1,30,2.2,29.9,2.3c0-0.1,0-0.2,0-0.2
		C30,1.6,30.2,1.8,30.4,1.9L30.4,1.9z"/>
	<path class="st3" d="M41.1,51c-0.1,0-0.2-0.1-0.3-0.1c-0.5,0.4-1,0.9-1.5,1.3c-0.4,0.4-0.8,0.8-1.3,1.1c-0.5,0.4-1,0.7-1.6,1
		c-0.2,0.2-0.4,0.3-0.7,0.4c-0.1,0-0.2,0-0.3,0c-0.1,0.1-0.3,0.2-0.4,0.3c0,0,0,0-0.1,0l0,0c-0.4,0.1-0.8,0.3-1.2,0.3
		c-0.2,0-0.4,0-0.7,0.1c-0.3,0.1-0.6,0.2-0.9,0.2c-0.5,0-1.1,0-1.7,0c-0.4,0-0.8,0.5-1.1,0.5c-0.2,0-0.3-0.3-0.5,0c0,0-0.3,0-0.4,0
		c0,0.1,0.1-0.5,0.1-0.5h-0.1c-0.2-0.1-0.4-0.3-0.6,0c0,0-0.1,0-0.2,0c-0.1,0-0.1,0-0.2,0c-0.3,0.3-0.6,0-1,0c-0.1,0-0.3,0-0.4-0.1
		c-0.3-0.1-0.6-0.2-1-0.3s-0.6-0.2-0.9-0.2c-0.2-0.2-0.4-0.4-0.7-0.5c-0.4-0.3-0.8-0.5-1.2-0.8c-0.4-0.3-0.7-0.5-1.1-0.8
		c-0.5-0.4-1.1-0.7-1.6-1.1c-0.4-0.3-0.8-0.8-1.2-1.2c-0.1-0.2-0.3-0.3-0.4-0.5c-0.4-0.6-0.7-1.1-1.1-1.7c-0.1-0.1-0.1-0.2-0.2-0.2
		c0-0.1,0-0.2-0.1-0.3c-0.1-0.5-0.1-1.1-0.2-1.6c-0.1,0-0.1,0,0.1-0.8c-0.1,0-0.2-0.1-0.3-0.1c-0.1-1.9,0.4-3.6,1-5.3
		c0,0,0.1-0.1,0.1-0.1c0.2-0.2,0.4-0.3,0.5-0.6c0.2-0.3,0.3-0.5,0.4-0.8c0.2-0.2,0.4-0.4,0.6-0.7c0.2-0.3,0.4-0.7,0.5-1
		c0.2-0.3,0.4-0.7,0.6-1.1s0.4-0.7,0.7-1c0,0,0.1,0,0.1-0.1c0.1-0.1,0.2-0.2,0.3-0.3c0.1-0.2,0.2-0.4,0.3-0.5c0.4-0.3,0.8-0.5,1-0.8
		c0.4-0.4,0.8-0.7,1.4-0.4c0.2,0.1,0.4,0,0.4-0.3c0-0.2,0.1-0.5,0.4-0.5c0.3,0,0.5-0.2,0.7-0.3l1.7-0.3c0.6-0.1,1.1-0.1,1.7-0.2
		c0.3,0,0.6,0,0.9-0.1c0.1,0,0.2,0,0.3,0.1h0.6c0.6,0.1,1.2,0.2,1.8,0.3c0.4,0.1,0.8,0.1,1.1,0.2c0.3,0.1,0.6,0.3,0.9,0.4
		c0.5,0.2,1,0.3,1.5,0.5c0.2,0.1,0.4,0.3,0.6,0.4c0.3,0.2,0.7,0.4,1,0.7c0.1,0,0.2,0,0.3,0c0.1,0.1,0.2,0.2,0.3,0.3
		c0.2,0.2,0.5,0.3,0.7,0.5c0.1,0.1,0.2,0.1,0.3,0.2c0.1,0.1,0.3,0.2,0.3,0.4c0,0.2,0.3,0.3,0.5,0.4c0.1,0,0.2,0.1,0.2,0.1
		c0,0.3,0.2,0.3,0.3,0.4c0.1,0.2,0.3,0.4,0.4,0.6c0.1,0.1,0.2,0.2,0.3,0.4c0.1,0.2,0.1,0.3,0.3,0.3c0.1,0,0.2,0.2,0.3,0.4
		c0.2,0.6,0.4,1.1,0.6,1.7c0.3,0.6,0.6,1.2,0.9,1.8c0,0.3,0.1,0.7,0.1,1c0,0,0,0,0,0c0.1,0.1,0.1,0.2,0.2,0.3c0,0.5,0,1-0.1,1.4
		c-0.1,0-0.2,0.1-0.3,0.1c0.1,0.1,0.2,0.2,0.3,0.3c0,0.1,0,0.1-0.1,0.2c-0.1,0.2-0.3,0.5-0.3,0.7c0.1,0.3-0.1,0.3-0.2,0.4
		c-0.2,0.1-0.3,0.2-0.2,0.5c0.1,0.3,0.2,0.6,0,0.9c0,0,0,0.1,0,0.2c0.1,0.2,0.1,0.4,0.1,0.6c-0.1,0.2-0.1,0.4-0.1,0.6
		c-0.2,0.4-0.2,0.4-0.2,0.7c-0.1,0.1-0.2,0.1-0.2,0.2c-0.1,0.3-0.2,0.6-0.4,0.6c-0.1,0.3-0.2,0.4-0.3,0.6c0,0.1-0.1,0.1-0.1,0.1
		C41.6,50.8,41.4,50.9,41.1,51L41.1,51z M31.7,38.4c0,0.3,0.1,0.6,0,1c0,0.9-0.1,1.7-0.1,2.6c0,0.8,0,1.5,0,2.3c0,0.7,0,1.4,0,2.1
		c0,0.4,0,0.9,0,1.3c0,0.1,0.1,0.3,0.2,0.3c0.4,0.1,0.6,0.1,1,0.2c0.2,0,0.9,0,1,0c0.5,0,1,0,1.5,0c0.3,0,1.9,0.2,2.5-1.7
		c0.1-0.5,0-1-0.2-1.4c-0.2-0.4-0.4-0.8-0.7-1.1c-0.3-0.4-0.4-0.4,0-0.7c0.5-0.4,0.8-0.9,0.9-1.5c0.1-0.4,0-0.9-0.1-1.3
		c-0.3-0.8-0.9-1.3-1.6-1.6c-0.5-0.2-1.1-0.4-1.7-0.4C33.4,38.3,32.5,38.4,31.7,38.4L31.7,38.4z M29.5,47.6
		c-0.7-0.9-1.5-2.2-2.3-3.1c0.4-0.2,0.6-0.3,0.9-0.4c0.4-0.2,0.9-0.4,1.1-0.8c0.4-0.8,0.6-1.7,0.4-2.6c-0.1-0.4-0.2-0.9-0.4-1.3
		c-0.2-0.3-0.7-0.6-1.1-0.8c-0.5-0.2-1-0.3-1.5-0.4c-0.4-0.1-0.9,0-1.4,0h-1.6v9.2c0.9,0.1,1.8,0.1,2.6,0.2c0.6,0,1.2,0.1,1.8,0.1
		C28.6,47.7,29.1,47.9,29.5,47.6z"/>
	<path class="st1" d="M25.8,31.7c-0.2,0-0.4,0-0.5,0c-0.2,0-0.4,0.1-0.5,0.1c-0.9-3.9,0.6-10.4,1.3-10.5c0.3,0,1.9-0.5,2.1-0.6
		c0.4-0.1,0.6-0.5,0.9-0.7c0.4-0.2,0.8-0.4,1.3-0.3c0.8,0.1,1.6,0.2,2.4,0.3c0.2,0,0.4,0.1,0.6,0.2c0.3,0.2,0.7,0.4,1.1,0.6
		c0.4,0.2,0.7,0.5,1,0.9c0.1,0.3,0.4,0.5,0.5,0.8c0.2,0.4,0.2,0.8,0.3,1.1c0.1,0.4,0.5,0.9,0.9,1c0.1,0,0.2,0.1,0.2,0.2
		c0.1,0.4,0.1,0.9,0.1,1.3c0,0.5,0.1,1,0.1,1.6c0,0.2-0.1,0.3-0.2,0.5c-0.1,0.5-0.2,1-0.2,1.4c-0.1,0.5,0,1.1-0.1,1.7
		c0,0.3,0,0.3,0.3,0.4c0.1,0,0.2,0.1,0.3,0.1c0.1,0.4,0.2,0.9,0.3,1.4c-0.3-0.3-0.4-0.4-0.6-0.6c-0.4-0.3-0.7-0.7-1.1-1
		c-0.1-0.1-0.4-0.1-0.6,0c0,0-0.1-0.1-0.1-0.1c-0.2-0.2-0.3-0.3-0.6-0.1c-0.3,0.2-0.5,0-0.8-0.2c-0.1,0.1-0.2,0.1-0.2,0.1
		c-0.3,0-0.5-0.1-0.8-0.1l-0.5-0.1c-0.2,0-0.4,0-0.6,0c-0.3,0-0.6,0-0.9,0l0,0l0,0h-0.4c0,0-0.1,0.1-0.1,0.2h-0.1
		c-0.1-0.2-0.1-0.3-0.3-0.1c-0.3,0-0.6,0-0.9,0.1c-0.6,0-1.1,0.1-1.7,0.2C26.9,31.5,26.4,31.6,25.8,31.7L25.8,31.7z M35.2,55
		L35.2,55L35.2,55z"/>
	<g>
		<path class="st4" d="M61.1,12.2c0,0.4,0,5.9,0,6.2c0,0.6,0,4.1,0,4.8c0,0.7-0.1,1.3-0.1,2c0,1.1-0.2,2.2-0.2,3.3
			c-0.1,1-0.2,1.9-0.3,2.8c-0.1,0.6-0.1,1.2-0.2,1.8c-0.1,0.9-0.3,1.8-0.4,2.6c0,1.2-0.4,2.3-0.6,3.4c-0.2,1.1-0.5,2.3-0.9,3.4
			c-0.2,0.8-0.5,1.6-0.8,2.4c-0.2,0.5-0.3,1-0.5,1.5c-0.3,0.7-0.5,1.4-0.8,2.1c-0.3,0.8-0.7,1.5-1,2.2c-0.3,0.5-0.5,0.9-0.8,1.4
			c-0.2,0.3-0.2,0.6-0.4,0.9c-0.3,0.4-0.5,0.8-0.8,1.2c-0.5,0.7-1.1,1.3-1.6,1.9c-0.5,0.6-1.1,1.2-1.7,1.8c-0.5,0.6-1.1,1.1-1.6,1.6
			c-0.5,0.4-1,0.9-1.5,1.3c-0.5,0.5-1.1,1-1.7,1.5c-0.2,0.2-0.5,0.3-0.7,0.5c-0.1,0.1-0.2,0.2-0.3,0.3c-0.6,0.4-1.2,0.9-1.8,1.3
			c-0.7,0.4-1.4,0.8-2,1.1c-0.2,0.1-0.4,0.4-0.7,0.4c-0.4,0-0.5,0.4-1,0.4c-0.3,0-0.5,0.3-0.8,0.5c-0.6,0.3-1.2,0.6-1.8,1
			c-0.4,0.2-0.9,0.4-1.3,0.6c-0.4,0.2-0.8,0.3-1.2,0.4c-0.6,0.2-1.3,0.4-1.9,0.6c-0.5,0.1-1,0.3-1.5,0.1c-1-0.5-2.2-0.8-3.3-1.2
			c-1.2-0.4-2.4-0.9-3.5-1.4c-1.3-0.6-2.5-1.4-3.8-2.1c-0.7-0.4-1.4-1-2.1-1.5c-1-0.7-2-1.5-3-2.3c-0.5-0.4-1.1-0.9-1.6-1.4
			c-0.8-0.7-1.6-1.4-2.3-2.2c-0.5-0.5-1-1.1-1.5-1.8c-0.7-1-1.5-2.1-2.1-3.1c-0.4-0.6-0.6-1.2-0.9-1.9c-0.4-0.8-0.8-1.5-1.1-2.3
			c-0.3-0.7-0.6-1.3-0.9-2c-0.3-0.8-0.5-1.7-0.7-2.5c-0.3-1-0.6-2-0.9-3c-0.2-0.9-0.4-1.9-0.6-2.8c-0.1-0.5-0.2-1-0.3-1.6
			c-0.1-1-0.2-2.1-0.3-3.2c0-0.4-0.1-0.8-0.1-1.1C1,32,0.9,31.4,0.9,30.8c0-0.5-0.1-1-0.1-1.5l-0.3-4.1c0-0.6-0.1-1.2-0.1-1.8
			c0-0.4,0-0.9,0-1.3c0-0.7,0-1.5,0-2.2c0-0.9-0.1-1.8-0.2-2.7c0-0.7,0-1.4,0-2.1c0-0.4,0.1-0.8,0.1-1.2l0.1-1.4
			c0,0,0.1,0.1,0.1,0.1c0.8,0.1,1.7,0.1,2.5,0.1c0.5,0,1.1-0.1,1.6-0.1c0.4,0,0.8,0,1.2,0s0.7-0.1,1.1-0.1c0.4,0,0.8-0.1,1.2-0.1
			c0.4,0,0.8-0.1,1.2-0.2c0.4-0.1,0.9-0.1,1.3-0.2c0.3-0.1,0.6-0.2,0.9-0.2c0.2,0,0.4-0.1,0.6-0.1c0.2,0,0.3-0.1,0.5-0.1
			c0.4-0.1,0.9-0.2,1.2-0.4c0.6-0.2,1.2-0.5,1.9-0.7c0.7-0.2,1.4-0.4,2-0.6c0.3-0.1,0.5-0.3,0.7-0.4c0.4-0.2,0.7-0.3,1-0.4
			C20,8.6,20.5,8.3,21,8.1c0.4-0.2,0.8-0.6,1.3-0.8c0.5-0.2,1-0.6,1.5-0.9c0.3-0.2,0.5-0.4,0.8-0.6c0.5-0.4,1-0.7,1.4-1.1
			c0.2-0.1,0.3-0.3,0.4-0.4c0.6-0.6,1.2-1.2,1.7-1.8c0.4-0.3,0.6-0.8,0.9-1.1c0.4-0.4,0.7-0.9,1-1.3c0.4,0.4,0.6,0.8,1,1.2
			c0.7,0.7,1.5,1.4,2.2,2.1c1,1,2.1,1.6,3.2,2.4c0.8,0.5,1.6,1.1,2.5,1.6c1.1,0.6,2.2,1.3,3.4,1.7c0.7,0.3,1.4,0.7,2.1,1
			c0.7,0.3,1.3,0.6,2,0.9c0.4,0.2,0.9,0.4,1.3,0.5c0.3,0.1,0.7,0.1,1,0.2c0.7,0.2,1.4,0.4,2.1,0.6c1.2,0.3,2.4,0.6,3.6,0.6
			c1.3,0,2.6,0,3.9-0.3C59.2,12.4,60.5,12.3,61.1,12.2L61.1,12.2z M41.2,63.4c0.4-0.3,0.8-0.5,1.1-0.8c0.6-0.4,1.2-0.9,1.8-1.3
			c0.5-0.4,1-0.9,1.6-1.3c0.4-0.3,0.9-0.7,1.3-1.1c0.5-0.4,1-0.9,1.4-1.4c0.5-0.6,1-1.2,1.6-1.8c0.3-0.4,0.6-0.8,1-1.2
			c0.4-0.6,0.9-1.2,1.3-1.8c0.2-0.2,0.3-0.5,0.4-0.7c0.2-0.3,0.4-0.5,0.6-0.8c0.4-0.9,0.9-1.7,1.3-2.6c0.2-0.4,0.4-0.9,0.6-1.3
			c0.2-0.4,0.3-0.9,0.5-1.3c0.2-0.5,0.4-1,0.6-1.6c0.2-0.7,0.3-1.5,0.5-2.2c0.1-0.6,0.3-1.1,0.4-1.7c0.2-0.7,0.3-1.4,0.5-2.2
			c0.1-0.6,0.3-1.1,0.3-1.8c0.1-0.6,0.2-1.1,0.2-1.7c0.1-0.6,0.2-1.2,0.3-1.8c0.1-0.7,0-1.4,0.1-2.1c0.1-0.8,0.2-1.6,0.3-2.3
			c0.1-0.7,0.1-1.4,0.1-2.1c0-0.8,0.1-1.7,0.1-2.5c0-0.9,0.1-1.7,0.1-2.6c0-1,0.1-1.9,0.1-2.9l0.1-4h-2.5c-0.5,0-1,0-1.5,0
			c-1,0-2.1,0-3.1-0.2c-0.8-0.2-1.7-0.2-2.5-0.4c-0.7-0.1-1.4-0.4-2.1-0.5c-0.5-0.2-1.1-0.3-1.7-0.5c-0.3-0.1-0.6-0.2-1-0.4
			c-0.6-0.2-1.1-0.4-1.7-0.7c-0.3-0.1-0.6-0.4-0.9-0.5c-0.7-0.4-1.5-0.7-2.3-1.1c-0.5-0.2-0.9-0.5-1.4-0.8c-0.4-0.3-0.8-0.5-1.1-0.8
			c-0.6-0.4-1.3-0.9-1.9-1.4c-0.5-0.4-0.9-0.9-1.4-1.2l-1.3-1.1c-0.3-0.2-0.6-0.4-0.9-0.7c-0.4-0.3-0.7-0.6-1-1
			c-0.3-0.3-0.5-0.6-0.7-0.9c-0.5,0.6-1,1.2-1.5,1.8c-0.4,0.4-0.8,0.9-1.2,1.3c-0.5,0.5-1,1-1.5,1.4c-0.4,0.3-0.9,0.6-1.3,0.9
			c-1.2,0.7-2.5,1.5-3.7,2.2c-0.6,0.4-1.3,0.6-2,0.9c-0.9,0.4-1.8,0.7-2.7,1.1c-1.1,0.4-2.2,0.8-3.4,1c-0.5,0.1-1.1,0.2-1.6,0.3
			c-1.1,0.2-2.3,0.4-3.5,0.4c-0.9,0.1-1.8,0.1-2.8,0c-0.7,0-1.4-0.2-2-0.2l-1-0.1c0,0.1,0,0.3,0,0.4c0,0.5,0,1.1,0,1.6
			c0,0.6,0.1,1.3,0.1,1.9c0,0.7,0,1.3,0,2c0,0.8,0.1,1.5,0.2,2.3c0,1.2,0,2.4,0,3.5c0,0.5,0.1,1,0.1,1.5c0.1,0.8,0.2,1.6,0.3,2.4
			c0.1,1.2,0.2,2.3,0.3,3.5c0.1,0.6,0.1,1.3,0.2,1.9c0,0.3,0.1,0.7,0.1,1c0.1,0.8,0.3,1.6,0.4,2.3l0.3,1.4l0.4,1.5
			c0.1,0.5,0.3,1.1,0.4,1.7c0.1,0.5,0.2,1,0.3,1.5c0.3,1,0.7,1.9,1.1,2.9c0.1,0.2,0,0.3,0.1,0.4c0.3,0.7,0.6,1.3,1,2
			c0.3,0.7,0.7,1.3,1.1,2c0.1,0.3,0.3,0.5,0.5,0.7c0.2,0.3,0.3,0.6,0.5,0.9c0.4,0.5,0.8,1.1,1.2,1.6c0.5,0.7,1.1,1.3,1.6,1.9
			c0.3,0.4,0.7,0.7,1,1.1c0.4,0.4,0.8,1,1.3,1.4c0.6,0.6,1.3,1.1,2,1.7c0.6,0.5,1.3,1,1.9,1.5c0.6,0.4,1.2,0.9,1.8,1.3l0,0
			c0.3,0.2,0.6,0.4,0.8,0.6c0.4,0.2,0.7,0.5,1.1,0.7c0.5,0.3,1,0.5,1.5,0.7c0.7,0.3,1.4,0.6,2,1c0.5,0.2,1,0.4,1.5,0.6
			c0.4,0.2,0.9,0.3,1.4,0.5c0.5,0.2,1,0.3,1.5,0.5c0.3,0.1,0.5,0.2,0.8,0.1c0.7-0.2,1.4-0.4,2.1-0.7c0.2-0.1,0.4-0.2,0.6-0.3
			c0.4-0.1,0.8-0.2,1.1-0.3c0.5-0.2,1-0.5,1.6-0.7c0.6-0.3,1.2-0.6,1.9-0.9c0.6-0.3,1.3-0.7,1.9-1C40.5,63.9,40.8,63.6,41.2,63.4
			C41.2,63.4,41.2,63.4,41.2,63.4L41.2,63.4z"/>
		<path class="st4" d="M40.1,21.5c0.2,0.5,0.3,1.4,0.4,1.9c0.1,0.5,0.1,1.1,0.2,1.6c0.1,0.8,0.1,1.6,0.2,2.4l0.2,2.8
			c0,0.6,0,1.2,0,1.8l0.1,1.8c0,0.1,0.1,0.3,0,0.4c-0.1,0.5,0.2,0.8,0.5,1.2c0.4,0.5,0.8,1.1,1.1,1.8c0.4,0.7,0.8,1.5,1,2.3
			c0.3,0.8,0.4,1.6,0.6,2.4c0.2,0.7,0.3,1.5,0.2,2.2c-0.1,1-0.1,1.9-0.5,2.9c-0.3,0.8-0.6,1.7-1,2.5c-0.3,0.5-0.6,1-0.9,1.5
			c-0.4,0.7-0.9,1.2-1.5,1.8c-0.4,0.5-0.9,0.9-1.5,1.2c-0.5,0.3-1,0.7-1.5,1c-0.2,0.1-0.5,0.2-0.8,0.3c-0.4,0.1-0.8,0.3-1.2,0.5
			c-0.8,0.3-1.6,0.6-2.4,0.7c-0.4,0.1-0.8,0.2-1.2,0.2c-0.3,0-0.5,0.1-0.7,0.1c-0.3,0-0.5,0.1-0.8,0c-0.4,0-0.7-0.1-1.1-0.1
			c-0.4,0-0.8,0-1.2,0c-0.3,0-0.5-0.1-0.7-0.1c-0.4,0-0.8-0.2-1.2-0.2c-0.4-0.1-0.8-0.3-1.2-0.4c-0.4-0.1-0.7-0.3-1.1-0.5
			c-0.3-0.1-0.5-0.3-0.8-0.4c-0.4-0.2-0.7-0.4-1.1-0.6c-0.2-0.1-0.4-0.1-0.6-0.2c-0.4-0.3-0.7-0.5-1.1-0.8c-0.1-0.1-0.3-0.2-0.4-0.3
			c-0.7-0.4-1.2-1.1-1.7-1.7c-0.4-0.5-0.6-1-0.9-1.6c-0.3-0.5-0.4-1-0.6-1.6c-0.3-0.4-0.3-0.9-0.4-1.4c-0.1-0.5-0.2-0.9-0.3-1.4
			c-0.1-0.6-0.1-1.1-0.1-1.7c0-0.3,0-0.7,0-1c0-0.3,0.2-0.6,0.2-0.9c0.1-0.3,0.1-0.7,0.1-1c0-0.3,0.1-0.5,0.2-0.8
			c0.2-0.6,0.4-1.3,0.7-1.9c0.3-0.5,0.6-1,0.9-1.6c0.3-0.4,0.5-0.9,0.8-1.2c0.2-0.3,0.4-0.4,0.7-0.7c0.1-0.1,0.2-0.2,0.1-0.3
			c-0.2-0.5,0-1.1,0-1.6c0-0.4,0-0.8,0-1.2c0-0.7,0-1.4,0-2.2c0-0.6,0.1-1.2,0.1-1.8c0-0.7,0-1.4,0.1-2.1c0-0.6,0.1-1.3,0.2-1.9
			c0.1-0.4,0.1-0.9,0.2-1.3c0.1-0.5,0.4-0.9,0.5-1.4c0.1-0.5,0.4-0.9,0.7-1.3c0.4-0.5,0.7-1,1.1-1.4c0.2-0.3,0.4-0.5,0.7-0.7
			c0.4-0.3,0.9-0.4,1.3-0.6c0.4-0.2,0.8-0.3,1.2-0.4c0.5-0.1,1.1-0.1,1.6-0.2c0.5-0.1,1.1-0.2,1.7-0.2c0.5,0,1,0.1,1.4,0.1
			c0.2,0,0.4-0.1,0.6,0c0.4,0,0.9,0.1,1.3,0.2c0.3,0.1,0.7,0.1,1,0.2c0.4,0.1,0.8,0.1,1.1,0.3c0.3,0.2,0.6,0.2,0.9,0.3
			c0.4,0.1,0.9,0.3,1.2,0.6c0.3,0.3,0.6,0.4,0.9,0.6c0.6,0.5,1.3,1,1.6,1.8C40,20.7,39.9,20.6,40.1,21.5L40.1,21.5z M24.9,33.7
			c-0.2,0.1-0.4,0.2-0.5,0.3c-0.4,0.3-0.8,0.5-1.3,0.7c-0.5,0.3-1,0.5-1.5,0.9c-0.1,0.1-0.2,0.3-0.4,0.4c-0.5,0.6-1.1,1.3-1.6,2
			c-0.5,0.8-1,1.6-1.2,2.5c-0.1,0.4-0.2,0.8-0.2,1.2c-0.1,0.4-0.1,0.8-0.1,1.2c0,0.6,0,1.2,0,1.8c0,0.4,0.1,0.9,0.2,1.3
			c0.1,0.5,0.2,1.1,0.4,1.6c0.4,0.8,0.8,1.6,1.2,2.4c0.5,0.8,1.1,1.5,1.7,2.3c0.1,0.2,0.3,0.3,0.5,0.3c0.4,0.3,0.7,0.6,1,0.8
			c0.2,0.2,0.5,0.2,0.7,0.3c0.6,0.3,1.1,0.7,1.8,0.9c0.5,0.2,1.1,0.3,1.7,0.4c0.8,0.1,1.5,0.1,2.3,0.2c0.4,0,0.7,0,1-0.1
			c0.7-0.1,1.5-0.2,2.2-0.3c0.3-0.1,0.6-0.2,0.9-0.2c0.7,0,1.3-0.3,1.9-0.5c0.7-0.3,1.3-0.7,1.9-1.1c0.3-0.2,0.7-0.4,0.9-0.7
			c0.5-0.5,1-1.1,1.5-1.6c0.4-0.4,0.7-0.9,1.1-1.4c0.4-0.5,0.5-1,0.7-1.6c0.3-0.8,0.5-1.6,0.7-2.5c0.2-0.9,0.1-1.7,0-2.6
			c-0.2-1.1-0.4-2.3-0.9-3.3c-0.2-0.4-0.4-0.8-0.6-1.2c-0.2-0.4-0.4-0.8-0.7-1.1c-0.3-0.4-0.5-0.7-0.8-1c-0.2-0.2-0.3-0.3-0.5-0.5
			c-0.3-0.3-0.7-0.5-1-0.8c-0.4-0.4-1-0.8-1.5-1c-0.6-0.3-1.3-0.5-1.9-0.7c-0.8-0.3-1.5-0.5-2.3-0.5c-0.5,0-1,0-1.5,0
			c-0.5,0-1,0-1.4,0c-0.6,0.1-1.2,0.2-1.8,0.3c-0.5,0.1-1,0.3-1.5,0.5C25.8,33.3,25.4,33.5,24.9,33.7C24.9,33.5,24.9,33.6,24.9,33.7
			L24.9,33.7z M36,31.4c0-0.5,0-1.1,0-1.6c0.1-0.8,0.2-1.7,0.2-2.5c0-0.8-0.1-1.6-0.3-2.4c-0.2-0.7-0.5-1.3-0.7-2
			c-0.2-0.6-0.7-1-1.3-1.3c-0.5-0.4-1.1-0.5-1.8-0.6c-0.6-0.1-1.2-0.3-1.8-0.4c-0.6,0-1.2,0-1.8,0.2c-0.8,0.3-1.7,0.4-2.3,1.1
			c-0.5,0.6-0.7,1.2-0.7,1.9c-0.1,0.8-0.1,1.7-0.1,2.5c0,0.7,0,1.4,0,2.1c0,0.8,0,1.5,0,2.3v0.8c0.7-0.1,1.4-0.2,2-0.3
			c0.4-0.1,0.9-0.2,1.3-0.2c0.3,0,0.7,0,1-0.1c0.3,0,0.5-0.1,0.8-0.1c0.3,0,0.6,0,1,0c0.7,0,1.5,0,2.2,0c0,0,0.1,0,0.1,0
			C34.6,31.1,35.3,31.3,36,31.4z M39.4,33.3c0.1-0.7,0.1-1.2,0.2-1.8c0-0.3,0-0.6,0-1c0-0.4,0-0.8,0-1.2c0-0.4,0-0.9,0-1.4
			c0-0.5,0-1.1-0.1-1.6c-0.1-0.7-0.2-1.4-0.3-2.1c-0.1-0.7-0.2-1.4-0.4-2c-0.2-0.6-0.5-1.2-0.9-1.7c-0.3-0.5-0.7-0.9-1.1-1.3
			c-0.3-0.3-0.6-0.5-1-0.6c-0.4-0.2-0.8-0.4-1.3-0.5c-0.7-0.2-1.4-0.3-2.1-0.4c-0.4-0.1-0.9,0-1.2-0.1c-0.8-0.2-1.6,0-2.4,0
			c-0.4,0-0.8,0-1.2,0.2c-0.3,0.2-0.7,0.1-1.1,0.2c-0.3,0.1-0.6,0.1-0.9,0.2c-0.3,0.1-0.6,0.3-0.9,0.5c-0.3,0.2-0.5,0.4-0.7,0.7
			c-0.2,0.2-0.4,0.3-0.5,0.5c-0.3,0.5-0.6,1-0.9,1.5c-0.2,0.4-0.3,0.8-0.4,1.2c-0.1,0.4-0.2,0.9-0.3,1.3c0,0.2-0.1,0.3-0.1,0.4
			c0,0.6-0.1,1.1-0.1,1.7c0,0.5-0.1,1.1-0.1,1.6c0,0.9,0,1.8-0.1,2.7c0,0.1-0.1,0.2-0.1,0.3c0,0.7,0,1.5,0,2.2v0.7
			c0.3-0.2,0.5-0.3,0.7-0.4c0.5-0.2,1.1-0.4,1.7-0.7c0.1,0,0.2-0.3,0.2-0.4c0-0.2-0.1-0.4-0.1-0.5c0-0.5,0-1.1,0-1.7
			c0-0.6,0-1.1,0.1-1.7c0-0.4,0-0.9,0-1.3c0-0.6,0.1-1.2,0.1-1.8c0-0.9,0.1-1.7,0.5-2.5c0.1-0.3,0.2-0.5,0.4-0.8
			c0.1-0.2,0.3-0.4,0.4-0.6l0.1-0.1c0.6-0.2,1.2-0.5,1.8-0.7c0.7-0.2,1.4-0.3,2.1-0.4c0.6-0.1,1.3,0,1.9,0c0.3,0,0.6,0,0.9,0
			c0.4,0.1,0.9,0.2,1.3,0.2c0.4,0,0.8,0.2,1.1,0.4c0.6,0.4,1.1,0.8,1.6,1.3c0.5,0.5,0.7,1.2,1,1.8c0.1,0.3,0.2,0.5,0.2,0.8
			c0.1,0.6,0.3,1.1,0.3,1.8c0.1,0.9,0.1,1.7,0.1,2.5v1.7c0,0.5-0.1,1-0.1,1.5c0,0.1,0.1,0.2,0.2,0.2c0.4,0.3,0.8,0.5,1.2,0.8
			C39,33,39.2,33.1,39.4,33.3z M20.3,63.4c0,0,0.1,0,0.1,0C20.4,63.4,20.4,63.4,20.3,63.4L20.3,63.4z M41.2,63.5
			C41.2,63.4,41.1,63.4,41.2,63.5C41.2,63.4,41.2,63.4,41.2,63.5C41.2,63.4,41.2,63.5,41.2,63.5z M28.6,67.4L28.6,67.4L28.6,67.4
			C28.7,67.4,28.6,67.4,28.6,67.4z M33,67.4C32.9,67.4,32.9,67.4,33,67.4L33,67.4C33,67.4,33,67.4,33,67.4z"/>
		<path class="st4" d="M24.9,33.7C24.9,33.7,24.9,33.7,24.9,33.7L24.9,33.7C24.9,33.7,24.9,33.7,24.9,33.7z"/>
	</g>
	<ellipse class="st3" cx="30.3" cy="42.9" rx="8.6" ry="7.8"/>
</g>
<text transform="matrix(1 0 0 1 24.8895 48.1547)" class="st5 st6 st7">PX</text>
</svg>
