<?xml version="1.0" encoding="utf-8"?>
<!-- Generator: Adobe Illustrator 23.0.0, SVG Export Plug-In . SVG Version: 6.00 Build 0)  -->
<svg version="1.1" id="Calque_1" xmlns="http://www.w3.org/2000/svg" xmlns:xlink="http://www.w3.org/1999/xlink" x="0px" y="0px"
	 viewBox="0 0 422 92" style="enable-background:new 0 0 422 92;" xml:space="preserve">
<style type="text/css">
	.st0{fill:#8AB0B7;}
	.st1{fill:#EFEFEF;}
	.st2{fill:#F9F9F9;}
	.st3{clip-path:url(#SVGID_2_);fill:url(#SVGID_3_);}
	.st4{filter:url(#Adobe_OpacityMaskFilter);}
	.st5{clip-path:url(#SVGID_5_);fill:url(#SVGID_7_);}
	.st6{clip-path:url(#SVGID_5_);mask:url(#SVGID_6_);fill:url(#SVGID_8_);}
	.st7{clip-path:url(#SVGID_10_);fill:#FFFFFF;}
	.st8{clip-path:url(#SVGID_10_);fill:#EFEFEF;}
	.st9{clip-path:url(#SVGID_12_);fill:url(#SVGID_13_);}
	.st10{clip-path:url(#SVGID_15_);fill:#EFEFEF;}
	.st11{filter:url(#Adobe_OpacityMaskFilter_1_);}
	.st12{clip-path:url(#SVGID_17_);fill:url(#SVGID_19_);}
	.st13{clip-path:url(#SVGID_17_);mask:url(#SVGID_18_);fill:url(#SVGID_20_);}
	.st14{clip-path:url(#SVGID_22_);fill:#F9F9F9;}
	.st15{clip-path:url(#SVGID_22_);fill:#EFEFEF;}
	.st16{clip-path:url(#SVGID_22_);fill:#E3E7F1;}
	.st17{filter:url(#Adobe_OpacityMaskFilter_2_);}
	.st18{clip-path:url(#SVGID_24_);fill:url(#SVGID_26_);}
	.st19{clip-path:url(#SVGID_24_);mask:url(#SVGID_25_);fill:url(#SVGID_27_);}
	.st20{clip-path:url(#SVGID_29_);fill:#F9F9F9;}
	.st21{clip-path:url(#SVGID_29_);fill:none;stroke:#F9FBFC;stroke-width:3;stroke-miterlimit:10;}
	.st22{fill:#FFFFFF;}
	.st23{font-family:'Helvetica-Bold';}
	.st24{font-size:38px;}
	.st25{font-family:'GeosansLight';}
	.st26{font-size:23px;}
</style>
<rect y="-0.72" class="st0" width="422" height="93.44"/>
<polygon class="st1" points="55.5,45.68 58.53,48.65 58.58,50.03 55.72,56.27 "/>
<polygon class="st2" points="59.11,49.4 56.26,79.63 49.03,69.09 58.13,50.58 "/>
<g>
	<defs>
		<polygon id="SVGID_1_" points="36.34,50.53 57.88,47.01 57.52,50.82 50.89,65.17 		"/>
	</defs>
	<clipPath id="SVGID_2_">
		<use xlink:href="#SVGID_1_"  style="overflow:visible;"/>
	</clipPath>
	
		<linearGradient id="SVGID_3_" gradientUnits="userSpaceOnUse" x1="3.561" y1="253.4187" x2="3.7854" y2="253.4187" gradientTransform="matrix(94.3449 153.8942 153.8942 -94.3449 -39290.8242 23413.0625)">
		<stop  offset="0" style="stop-color:#FFFFFF"/>
		<stop  offset="0.1556" style="stop-color:#FFFFFF"/>
		<stop  offset="0.465" style="stop-color:#E3E7F1"/>
		<stop  offset="0.7343" style="stop-color:#DADEE7"/>
		<stop  offset="1" style="stop-color:#DADEE7"/>
	</linearGradient>
	<polygon class="st3" points="52,37.41 65.97,60.21 42.22,74.77 28.25,51.97 	"/>
</g>
<g>
	<defs>
		<polygon id="SVGID_4_" points="36.34,50.53 57.88,47.01 57.52,50.82 		"/>
	</defs>
	<clipPath id="SVGID_5_">
		<use xlink:href="#SVGID_4_"  style="overflow:visible;"/>
	</clipPath>
	<defs>
		<filter id="Adobe_OpacityMaskFilter" filterUnits="userSpaceOnUse" x="35.73" y="43.58" width="22.76" height="10.68">
			<feColorMatrix  type="matrix" values="1 0 0 0 0  0 1 0 0 0  0 0 1 0 0  0 0 0 1 0"/>
		</filter>
	</defs>
	<mask maskUnits="userSpaceOnUse" x="35.73" y="43.58" width="22.76" height="10.68" id="SVGID_6_">
		<g class="st4">
			
				<linearGradient id="SVGID_7_" gradientUnits="userSpaceOnUse" x1="2.7389" y1="247.3141" x2="2.9634" y2="247.3141" gradientTransform="matrix(2.9281 17.8968 17.8968 -2.9281 -4387.3696 722.0487)">
				<stop  offset="0" style="stop-color:#FFFFFF"/>
				<stop  offset="0.7729" style="stop-color:#1A1A1A"/>
				<stop  offset="1" style="stop-color:#1A1A1A"/>
			</linearGradient>
			<polygon class="st5" points="57.32,43.58 58.49,50.72 36.9,54.26 35.73,47.11 			"/>
		</g>
	</mask>
	
		<linearGradient id="SVGID_8_" gradientUnits="userSpaceOnUse" x1="2.7389" y1="247.3141" x2="2.9634" y2="247.3141" gradientTransform="matrix(2.9281 17.8968 17.8968 -2.9281 -4387.3696 722.0487)">
		<stop  offset="0" style="stop-color:#BEC1C9"/>
		<stop  offset="0.7729" style="stop-color:#DADEE7"/>
		<stop  offset="1" style="stop-color:#DADEE7"/>
	</linearGradient>
	<polygon class="st6" points="57.32,43.58 58.49,50.72 36.9,54.26 35.73,47.11 	"/>
</g>
<g>
	<defs>
		<rect id="SVGID_9_" x="9.52" y="-0.72" width="93.44" height="93.44"/>
	</defs>
	<clipPath id="SVGID_10_">
		<use xlink:href="#SVGID_9_"  style="overflow:visible;"/>
	</clipPath>
	<path class="st7" d="M57.88,47.01c0,0,1.01,1.16,1.23,2.39l-9.63,19.66l6.78,10.57c0,0-0.26,0.41-0.72,0.16
		c-0.46-0.24-6.97-10.52-6.97-10.52l9.75-20.01l-0.54-1.14L57.88,47.01z"/>
	<polygon class="st8" points="35.34,31.8 27.94,39.55 36.74,39.21 	"/>
</g>
<g>
	<defs>
		<polygon id="SVGID_11_" points="36.34,50.53 47.35,38.19 35.34,31.8 		"/>
	</defs>
	<clipPath id="SVGID_12_">
		<use xlink:href="#SVGID_11_"  style="overflow:visible;"/>
	</clipPath>
	
		<linearGradient id="SVGID_13_" gradientUnits="userSpaceOnUse" x1="4.568" y1="253.4519" x2="4.7925" y2="253.4519" gradientTransform="matrix(-53.3317 139.079 139.079 53.3317 -34961.6094 -14119.6777)">
		<stop  offset="0" style="stop-color:#FFFFFF"/>
		<stop  offset="0.1556" style="stop-color:#FFFFFF"/>
		<stop  offset="0.465" style="stop-color:#E3E7F1"/>
		<stop  offset="0.7343" style="stop-color:#DADEE7"/>
		<stop  offset="1" style="stop-color:#DADEE7"/>
	</linearGradient>
	<polygon class="st9" points="53.61,34.2 45.81,54.55 29.08,48.13 36.88,27.78 	"/>
</g>
<g>
	<defs>
		<rect id="SVGID_14_" x="9.52" y="-0.72" width="93.44" height="93.44"/>
	</defs>
	<clipPath id="SVGID_15_">
		<use xlink:href="#SVGID_14_"  style="overflow:visible;"/>
	</clipPath>
	<polygon class="st10" points="36.34,50.53 60.43,23.36 57.88,47.01 	"/>
</g>
<g>
	<defs>
		<polygon id="SVGID_16_" points="36.34,50.53 57.88,47.01 60.43,23.36 		"/>
	</defs>
	<clipPath id="SVGID_17_">
		<use xlink:href="#SVGID_16_"  style="overflow:visible;"/>
	</clipPath>
	<defs>
		<filter id="Adobe_OpacityMaskFilter_1_" filterUnits="userSpaceOnUse" x="29.96" y="17.7" width="36.84" height="38.48">
			<feColorMatrix  type="matrix" values="1 0 0 0 0  0 1 0 0 0  0 0 1 0 0  0 0 0 1 0"/>
		</filter>
	</defs>
	<mask maskUnits="userSpaceOnUse" x="29.96" y="17.7" width="36.84" height="38.48" id="SVGID_18_">
		<g class="st11">
			
				<linearGradient id="SVGID_19_" gradientUnits="userSpaceOnUse" x1="3.0115" y1="253.3099" x2="3.236" y2="253.3099" gradientTransform="matrix(86.6947 21.6064 21.6064 -86.6947 -5693.9692 21930.4824)">
				<stop  offset="0" style="stop-color:#FFFFFF"/>
				<stop  offset="0.7729" style="stop-color:#1A1A1A"/>
				<stop  offset="1" style="stop-color:#1A1A1A"/>
			</linearGradient>
			<polygon class="st12" points="37.75,17.7 66.81,24.95 59.02,56.19 29.96,48.94 			"/>
		</g>
	</mask>
	
		<linearGradient id="SVGID_20_" gradientUnits="userSpaceOnUse" x1="3.0115" y1="253.3099" x2="3.236" y2="253.3099" gradientTransform="matrix(86.6947 21.6064 21.6064 -86.6947 -5693.9692 21930.4824)">
		<stop  offset="0" style="stop-color:#FFFFFF"/>
		<stop  offset="0.7729" style="stop-color:#FFFFFF"/>
		<stop  offset="1" style="stop-color:#FFFFFF"/>
	</linearGradient>
	<polygon class="st13" points="37.75,17.7 66.81,24.95 59.02,56.19 29.96,48.94 	"/>
</g>
<g>
	<defs>
		<rect id="SVGID_21_" x="9.52" y="-0.72" width="93.44" height="93.44"/>
	</defs>
	<clipPath id="SVGID_22_">
		<use xlink:href="#SVGID_21_"  style="overflow:visible;"/>
	</clipPath>
	<polygon class="st14" points="56.48,47.24 57.88,47.01 60.43,23.36 59.88,24.03 	"/>
	<polygon class="st15" points="86.33,33.32 66.68,28.82 57.88,47.01 	"/>
	<polygon class="st16" points="78.96,31.63 66.68,28.82 57.88,47.01 	"/>
	<polygon class="st15" points="84.88,25.84 60.43,23.36 57.88,47.01 	"/>
</g>
<g>
	<defs>
		<polygon id="SVGID_23_" points="57.88,47.01 84.88,25.84 60.43,23.36 		"/>
	</defs>
	<clipPath id="SVGID_24_">
		<use xlink:href="#SVGID_23_"  style="overflow:visible;"/>
	</clipPath>
	<defs>
		<filter id="Adobe_OpacityMaskFilter_2_" filterUnits="userSpaceOnUse" x="57.38" y="22.78" width="28.01" height="24.81">
			<feColorMatrix  type="matrix" values="1 0 0 0 0  0 1 0 0 0  0 0 1 0 0  0 0 0 1 0"/>
		</filter>
	</defs>
	<mask maskUnits="userSpaceOnUse" x="57.38" y="22.78" width="28.01" height="24.81" id="SVGID_25_">
		<g class="st17">
			
				<linearGradient id="SVGID_26_" gradientUnits="userSpaceOnUse" x1="7.1734" y1="254.6292" x2="7.3979" y2="254.6292" gradientTransform="matrix(-64.846 -1.3846 -1.3846 64.846 888.6535 -16466.5801)">
				<stop  offset="0" style="stop-color:#FFFFFF"/>
				<stop  offset="0.7729" style="stop-color:#1A1A1A"/>
				<stop  offset="1" style="stop-color:#1A1A1A"/>
			</linearGradient>
			<polygon class="st18" points="84.87,47.59 57.38,47 57.9,22.78 85.38,23.37 			"/>
		</g>
	</mask>
	
		<linearGradient id="SVGID_27_" gradientUnits="userSpaceOnUse" x1="7.1734" y1="254.6292" x2="7.3979" y2="254.6292" gradientTransform="matrix(-64.846 -1.3846 -1.3846 64.846 888.6535 -16466.5801)">
		<stop  offset="0" style="stop-color:#FFFFFF"/>
		<stop  offset="0.7729" style="stop-color:#FFFFFF"/>
		<stop  offset="1" style="stop-color:#FFFFFF"/>
	</linearGradient>
	<polygon class="st19" points="84.87,47.59 57.38,47 57.9,22.78 85.38,23.37 	"/>
</g>
<g>
	<defs>
		<rect id="SVGID_28_" x="9.52" y="-0.72" width="93.44" height="93.44"/>
	</defs>
	<clipPath id="SVGID_29_">
		<use xlink:href="#SVGID_28_"  style="overflow:visible;"/>
	</clipPath>
	<polygon class="st20" points="57.96,46.34 57.88,47.01 84.88,25.84 	"/>
	<polygon class="st20" points="35.62,31.95 35.34,31.8 36.34,50.53 36.6,50.42 	"/>
	<circle class="st21" cx="56.24" cy="46" r="39.92"/>
</g>
<text transform="matrix(1 0 0 1 119.876 45.9995)" class="st22 st23 st24">PRINT XPRESS</text>
<text transform="matrix(1 0 0 1 155.4894 76.6798)" class="st22 st25 st26">Votre Imprimeur en ligne</text>
</svg>
